<?xml version="1.0" encoding="utf-8"?>
<!-- Generator: Adobe Illustrator 16.0.4, SVG Export Plug-In . SVG Version: 6.00 Build 0)  -->
<!DOCTYPE svg PUBLIC "-//W3C//DTD SVG 1.1//EN" "http://www.w3.org/Graphics/SVG/1.1/DTD/svg11.dtd">
<svg version="1.1" id="Layer_1" xmlns="http://www.w3.org/2000/svg" xmlns:xlink="http://www.w3.org/1999/xlink" x="0px" y="0px"
	 width="1367px" height="272px" viewBox="0 0 1367 272" enable-background="new 0 0 1367 272" xml:space="preserve">
<g>
	<path fill="#FFFFFF" d="M113.325,118.941h16.5v142.45h-16.5v-19.8c-2.2,2.569-4.675,5.225-7.425,7.975s-5.913,5.272-9.487,7.562
		c-3.575,2.295-7.748,4.22-12.513,5.775c-4.77,1.556-10.27,2.337-16.5,2.337c-9.535,0-17.51-1.332-23.925-3.987
		c-6.419-2.655-11.597-6.368-15.538-11.138c-3.944-4.765-6.785-10.312-8.525-16.638c-1.745-6.324-2.613-13.242-2.613-20.762v-93.775
		h16.5v93.5c0,12.285,2.84,21.682,8.525,28.188c5.68,6.51,15.03,9.763,28.05,9.763c6.78,0,12.878-1.328,18.288-3.987
		c5.405-2.655,9.943-6.368,13.612-11.138c3.666-4.765,6.505-10.45,8.525-17.05c2.016-6.6,3.025-13.84,3.025-21.725V118.941z"/>
	<path fill="#FFFFFF" d="M179.325,216.842c2.565,12.285,7.193,20.947,13.888,25.987c6.69,5.045,16.268,7.562,28.737,7.562
		c6.05,0,11.275-0.73,15.675-2.2c4.4-1.465,8.018-3.438,10.862-5.912c2.84-2.476,4.993-5.269,6.462-8.388
		c1.465-3.115,2.2-6.415,2.2-9.899c0-6.966-2.247-12.144-6.737-15.538c-4.495-3.39-10.132-6.05-16.913-7.976
		c-6.785-1.924-14.12-3.574-22-4.949c-7.885-1.375-15.22-3.438-22-6.188c-6.785-2.75-12.422-6.69-16.913-11.825
		c-4.495-5.13-6.737-12.375-6.737-21.726c0-11.914,4.353-21.677,13.062-29.287c8.705-7.605,21.037-11.412,36.987-11.412
		c15.4,0,27.913,3.438,37.538,10.312s15.443,18.382,17.462,34.512h-16.775c-1.47-11-5.638-18.742-12.513-23.237
		c-6.875-4.49-15.538-6.738-25.987-6.738c-10.45,0-18.425,2.248-23.925,6.738c-5.5,4.495-8.25,10.407-8.25,17.737
		c0,6.42,2.243,11.322,6.738,14.713c4.49,3.395,10.127,6.145,16.913,8.25c6.78,2.109,14.115,3.988,22,5.638
		c7.88,1.649,15.215,3.987,22,7.013c6.78,3.025,12.418,7.107,16.912,12.237c4.49,5.135,6.738,12.284,6.738,21.45
		c0,6.785-1.47,12.787-4.4,18.013c-2.935,5.225-6.97,9.582-12.1,13.062c-5.135,3.484-11.232,6.097-18.288,7.837
		c-7.06,1.74-14.807,2.612-23.237,2.612c-8.435,0-15.907-1.237-22.413-3.712c-6.51-2.476-12.057-5.913-16.638-10.312
		c-4.584-4.4-8.16-9.53-10.725-15.4c-2.569-5.865-4.035-12.189-4.4-18.975H179.325z"/>
	<path fill="#FFFFFF" d="M317.375,194.017c0,7.7,1.005,14.987,3.025,21.862c2.015,6.875,4.993,12.835,8.938,17.875
		c3.94,5.045,8.938,9.075,14.987,12.101c6.05,3.024,13.015,4.537,20.9,4.537c10.816,0,20.076-2.84,27.775-8.525
		c7.699-5.68,12.83-13.749,15.4-24.2h18.424c-2.02,6.785-4.674,13.062-7.975,18.838c-3.299,5.775-7.424,10.819-12.375,15.125
		c-4.949,4.31-10.818,7.657-17.6,10.038c-6.785,2.38-14.67,3.574-23.65,3.574c-11.369,0-21.175-1.925-29.425-5.774
		c-8.25-3.851-15.035-9.118-20.35-15.812c-5.319-6.69-9.26-14.575-11.825-23.65c-2.57-9.074-3.85-18.838-3.85-29.287
		c0-10.45,1.513-20.256,4.538-29.426c3.025-9.164,7.331-17.188,12.925-24.062c5.59-6.875,12.418-12.28,20.488-16.225
		c8.065-3.94,17.23-5.912,27.5-5.912c19.615,0,35.016,6.737,46.201,20.212c11.18,13.475,16.68,33.047,16.5,58.712H317.375z
		 M410.324,180.267c0-6.966-0.961-13.519-2.887-19.663c-1.926-6.14-4.77-11.455-8.525-15.949c-3.76-4.49-8.482-8.065-14.162-10.725
		c-5.686-2.656-12.195-3.988-19.525-3.988c-7.334,0-13.797,1.375-19.387,4.125c-5.595,2.75-10.36,6.42-14.3,11
		c-3.945,4.585-7.107,9.9-9.488,15.95c-2.385,6.05-3.944,12.47-4.675,19.25H410.324z"/>
	<path fill="#FFFFFF" d="M477.425,261.392h-16.5v-142.45h16.5v26.676h0.55c4.581-11.366,10.493-19.293,17.737-23.788
		c7.24-4.49,16.818-6.737,28.738-6.737v17.875c-9.351-0.181-17.051,1.285-23.101,4.4c-6.05,3.119-10.862,7.334-14.438,12.649
		c-3.575,5.319-6.05,11.597-7.425,18.837c-1.375,7.245-2.062,14.808-2.062,22.688V261.392z"/>
	<path fill="#FFFFFF" d="M570.098,261.392h-16.5v-198h16.5v78.375c5.315-8.8,12.604-15.443,21.863-19.938
		c9.255-4.49,18.928-6.737,29.012-6.737c10.815,0,20.213,2.062,28.188,6.188c7.976,4.125,14.575,9.625,19.801,16.5
		c5.225,6.875,9.117,14.896,11.688,24.062c2.564,9.17,3.85,18.699,3.85,28.6c0,10.45-1.194,20.26-3.575,29.426
		c-2.385,9.169-6.188,17.097-11.412,23.787c-5.226,6.694-11.872,11.962-19.938,15.812c-8.069,3.85-17.875,5.774-29.425,5.774
		c-4.585,0-9.26-0.645-14.025-1.925c-4.77-1.284-9.397-3.115-13.888-5.5c-4.494-2.38-8.619-5.362-12.375-8.938
		c-3.76-3.575-6.832-7.743-9.212-12.513h-0.551V261.392z M570.098,189.617c0,8.619,1.053,16.637,3.163,24.062
		c2.105,7.424,5.178,13.844,9.212,19.25c4.031,5.409,9.075,9.672,15.125,12.787c6.051,3.119,12.926,4.675,20.625,4.675
		c6.966,0,13.381-1.237,19.25-3.713c5.865-2.475,11-6.093,15.4-10.862c4.4-4.766,7.838-10.588,10.312-17.463
		s3.713-14.803,3.713-23.787c0.365-8.98-0.37-17.367-2.2-25.162c-1.835-7.791-4.77-14.618-8.8-20.488
		c-4.035-5.865-9.213-10.492-15.538-13.887c-6.325-3.391-13.707-5.088-22.138-5.088c-7.52,0-14.257,1.607-20.212,4.812
		c-5.96,3.21-11,7.52-15.125,12.926c-4.125,5.409-7.288,11.734-9.487,18.975C571.198,173.898,570.098,181.551,570.098,189.617z"/>
	<path fill="#FFFFFF" d="M785.146,178.342c3.115-0.365,6.828-0.916,11.138-1.65c4.306-0.73,7.837-1.74,10.587-3.025
		c2.75-1.279,4.443-3.438,5.088-6.462c0.641-3.024,0.963-5.817,0.963-8.388c0-8.43-2.707-15.353-8.113-20.762
		c-5.409-5.406-14.531-8.113-27.362-8.113c-5.685,0-10.909,0.507-15.675,1.513c-4.77,1.01-8.938,2.75-12.513,5.225
		s-6.51,5.775-8.8,9.9c-2.295,4.125-3.807,9.308-4.537,15.538h-16.775c0.55-8.432,2.475-15.629,5.775-21.588
		c3.3-5.956,7.562-10.815,12.787-14.575c5.225-3.755,11.275-6.505,18.15-8.25c6.875-1.74,14.162-2.612,21.862-2.612
		c7.149,0,13.888,0.782,20.212,2.337c6.325,1.56,11.825,4.035,16.5,7.425c4.676,3.395,8.341,7.932,11,13.613
		c2.656,5.685,3.988,12.65,3.988,20.9v77.55c0,6.419,1.143,10.497,3.438,12.237c2.29,1.744,6.918,1.332,13.887-1.237v12.925
		c-1.284,0.369-3.162,0.915-5.637,1.649c-2.476,0.73-4.907,1.101-7.288,1.101c-2.569,0-5.044-0.275-7.425-0.825
		c-2.75-0.369-4.95-1.237-6.6-2.612c-1.65-1.375-2.982-3.025-3.988-4.95c-1.01-1.925-1.697-4.03-2.062-6.325
		c-0.369-2.29-0.55-4.718-0.55-7.287c-6.97,7.7-14.944,13.569-23.925,17.6c-8.984,4.03-18.7,6.05-29.15,6.05
		c-6.234,0-12.237-0.824-18.012-2.475c-5.775-1.65-10.863-4.215-15.263-7.7c-4.4-3.48-7.885-7.743-10.45-12.787
		c-2.569-5.04-3.85-11.043-3.85-18.013c0-24.2,16.59-38.5,49.774-42.899L785.146,178.342z M812.921,186.592
		c-6.97,2.935-14.025,4.859-21.176,5.775c-7.149,0.919-14.3,1.649-21.449,2.199c-12.65,0.92-22.508,3.76-29.562,8.525
		c-7.061,4.77-10.588,12.01-10.588,21.725c0,4.4,0.868,8.207,2.612,11.413c1.74,3.209,4.03,5.869,6.875,7.975
		c2.841,2.109,6.141,3.67,9.9,4.675c3.755,1.01,7.562,1.513,11.412,1.513c6.601,0,13.016-0.825,19.25-2.475
		c6.23-1.65,11.778-4.168,16.638-7.562c4.855-3.391,8.753-7.7,11.688-12.925c2.931-5.226,4.4-11.413,4.4-18.562V186.592z"/>
	<path fill="#FFFFFF" d="M875.071,261.392v-198h16.5v198H875.071z"/>
	<path fill="#FFFFFF" d="M936.117,261.392v-198h16.5v198H936.117z"/>
	<path fill="#FFFFFF" d="M1051.338,265.241c-9.17-0.185-17.737-1.834-25.713-4.949c-7.975-3.115-14.944-7.791-20.899-14.025
		c-5.96-6.23-10.683-14.024-14.163-23.375c-3.484-9.351-5.225-20.255-5.225-32.726c0-10.449,1.375-20.212,4.125-29.287
		c2.75-9.074,6.875-17.002,12.375-23.787c5.5-6.781,12.375-12.143,20.625-16.088c8.25-3.94,17.875-5.912,28.875-5.912
		c11.181,0,20.899,1.972,29.149,5.912c8.25,3.945,15.125,9.26,20.625,15.95c5.5,6.694,9.578,14.622,12.238,23.788
		c2.655,9.169,3.987,18.975,3.987,29.424c0,11.37-1.56,21.635-4.675,30.801c-3.12,9.17-7.562,17.05-13.338,23.649
		c-5.775,6.601-12.744,11.688-20.9,15.263C1070.266,263.454,1061.237,265.241,1051.338,265.241z M1099.737,190.166
		c0-8.43-0.919-16.314-2.75-23.649c-1.834-7.331-4.675-13.702-8.524-19.112c-3.851-5.406-8.8-9.668-14.851-12.788
		c-6.05-3.115-13.475-4.675-22.274-4.675c-8.62,0-15.997,1.697-22.138,5.088c-6.145,3.395-11.138,7.885-14.987,13.475
		c-3.851,5.595-6.694,12.01-8.525,19.25c-1.835,7.244-2.75,14.713-2.75,22.412c0,8.801,1.053,16.913,3.163,24.338
		c2.105,7.426,5.178,13.797,9.212,19.113c4.03,5.319,9.075,9.444,15.125,12.374c6.05,2.936,13.016,4.4,20.9,4.4
		c8.615,0,15.993-1.693,22.138-5.088c6.14-3.39,11.137-7.928,14.987-13.612c3.85-5.68,6.69-12.1,8.524-19.25
		C1098.818,205.291,1099.737,197.867,1099.737,190.166z"/>
	<path fill="#FFFFFF" d="M1197.637,261.941c-2.02,0.365-4.675,1.006-7.975,1.925c-3.3,0.916-6.97,1.375-11,1.375
		c-8.25,0-14.532-2.062-18.838-6.188c-4.31-4.125-6.462-11.502-6.462-22.137V79.342h16.5v150.975c0,3.484,0.09,6.51,0.274,9.075
		c0.181,2.569,0.73,4.675,1.65,6.325c0.915,1.649,2.338,2.845,4.263,3.575c1.925,0.734,4.628,1.1,8.112,1.1
		c2.2,0,4.443-0.181,6.737-0.55c2.29-0.365,4.538-0.825,6.737-1.375V261.941z"/>
</g>
<text transform="matrix(1 0 0 1 5.3125 108.5)" fill="#323232" font-family="'Helvetica-Light'" font-size="150">beta</text>
<polygon fill="#ED1C24" points="933.367,165.2 1051.983,236.459 1359.145,53.225 1317.983,29.324 1052.868,204.15 971.873,142.628 
	"/>
</svg>
