<?xml version="1.0" encoding="utf-8"?>
<!-- Generator: Adobe Illustrator 16.0.4, SVG Export Plug-In . SVG Version: 6.00 Build 0)  -->
<!DOCTYPE svg PUBLIC "-//W3C//DTD SVG 1.1//EN" "http://www.w3.org/Graphics/SVG/1.1/DTD/svg11.dtd">
<svg version="1.1" id="Layer_1" xmlns="http://www.w3.org/2000/svg" xmlns:xlink="http://www.w3.org/1999/xlink" x="0px" y="0px"
	 width="205.43px" height="84.451px" viewBox="0 0 205.43 84.451" enable-background="new 0 0 205.43 84.451" xml:space="preserve">
<g>
	<linearGradient id="SVGID_1_" gradientUnits="userSpaceOnUse" x1="0" y1="42.1499" x2="109.5908" y2="42.1499">
		<stop  offset="0" style="stop-color:#FFF33B"/>
		<stop  offset="0.0595" style="stop-color:#FFE029"/>
		<stop  offset="0.1303" style="stop-color:#FFD218"/>
		<stop  offset="0.2032" style="stop-color:#FEC90F"/>
		<stop  offset="0.2809" style="stop-color:#FDC70C"/>
		<stop  offset="0.6685" style="stop-color:#F3903F"/>
		<stop  offset="0.8876" style="stop-color:#ED683C"/>
		<stop  offset="1" style="stop-color:#E93E3A"/>
	</linearGradient>
	<path fill-rule="evenodd" clip-rule="evenodd" fill="url(#SVGID_1_)" d="M108.601,78.798c-2.868-1.51-5.776-3.378-8.879-3.916
		c-6.141-1.065-12.419-1.338-18.683-1.943c-2.116,4.111-4.954,5.108-9.474,1.496c-3.959-3.164-8.225-5.945-12.347-8.907
		c-0.614-0.441-1.243-0.892-1.76-1.437c-5.402-5.705-11.65-10.307-18.402-14.273c-0.757-0.443-1.352-1.162-2.021-1.754
		c0.195-0.233,0.392-0.467,0.588-0.699c0.585,0.245,1.202,0.434,1.75,0.744c6.663,3.775,12.639,8.438,18.268,13.638
		c2.956,2.731,6.232,5.3,9.774,7.159c2.783,1.461,5.103,3.176,7.111,5.486c1.073,1.234,3.393,0.91,4.012-0.787
		c0.482-1.322,0.679-3.031,0.272-4.344c-1.673-5.41-5.181-9.605-9.425-13.254c-3.4-2.922-6.832-5.82-10.052-8.934
		c-2.368-2.289-3.523-5.063-3.346-8.631C56.585,26.42,50.63,17.458,41.925,9.954C35.911,4.768,29.191,1.036,21.122,0.23
		c-1.009-0.101-2.032-0.232-3.037-0.17C12.101,0.434,6.12,0.862,0,1.281c0,9.66,0,19.359,0,29.592c3.446,0,6.547-0.085,9.641,0.019
		c5.294,0.178,9.369,2.611,12.243,7.029c6.131,9.431,12.285,18.847,18.31,28.346c1.283,2.022,2.815,3.206,5.045,4.169
		c7.742,3.347,15.369,6.967,22.951,10.666c4.701,2.295,9.229,3.682,14.761,2.966c7.246-0.938,14.671-0.491,22.019-0.64
		c0.762-0.016,1.644,0.221,2.256-0.086c0.908-0.453,1.992-1.154,2.306-2.006C109.777,80.663,109.229,79.128,108.601,78.798z
		 M51.92,30.179c-3.367-4.345-6.673-9.467-10.843-13.744c-4.123-4.229-9.121-7.605-13.695-11.323
		C36.901,6.59,51.377,21.693,51.92,30.179z"/>
	<linearGradient id="SVGID_2_" gradientUnits="userSpaceOnUse" x1="100.6807" y1="74.7554" x2="115.6797" y2="74.7554">
		<stop  offset="0" style="stop-color:#FFF33B"/>
		<stop  offset="0.0595" style="stop-color:#FFE029"/>
		<stop  offset="0.1303" style="stop-color:#FFD218"/>
		<stop  offset="0.2032" style="stop-color:#FEC90F"/>
		<stop  offset="0.2809" style="stop-color:#FDC70C"/>
		<stop  offset="0.6685" style="stop-color:#F3903F"/>
		<stop  offset="0.8876" style="stop-color:#ED683C"/>
		<stop  offset="1" style="stop-color:#E93E3A"/>
	</linearGradient>
	<path fill-rule="evenodd" clip-rule="evenodd" fill="url(#SVGID_2_)" d="M108.562,71.762c-3.078,0.339-6.14,0.829-7.882,1.069
		c2.291,1.15,5.659,2.758,8.946,4.519c2.32,1.243,3.932-0.396,6.053-0.973C114.156,72.824,111.903,71.394,108.562,71.762z"/>
	<linearGradient id="SVGID_3_" gradientUnits="userSpaceOnUse" x1="79.4717" y1="67.1128" x2="100.873" y2="67.1128">
		<stop  offset="0" style="stop-color:#FFF33B"/>
		<stop  offset="0.0595" style="stop-color:#FFE029"/>
		<stop  offset="0.1303" style="stop-color:#FFD218"/>
		<stop  offset="0.2032" style="stop-color:#FEC90F"/>
		<stop  offset="0.2809" style="stop-color:#FDC70C"/>
		<stop  offset="0.6685" style="stop-color:#F3903F"/>
		<stop  offset="0.8876" style="stop-color:#ED683C"/>
		<stop  offset="1" style="stop-color:#E93E3A"/>
	</linearGradient>
	<path fill-rule="evenodd" clip-rule="evenodd" fill="url(#SVGID_3_)" d="M100.873,67.935c-7.006-1.606-14.331-0.708-21.298-2.623
		c-0.034,0.275-0.069,0.55-0.104,0.824c7.092,0.926,14.185,1.852,21.276,2.777C100.79,68.587,100.831,68.261,100.873,67.935z"/>
	<linearGradient id="SVGID_4_" gradientUnits="userSpaceOnUse" x1="81.0381" y1="71.5444" x2="96.8008" y2="71.5444">
		<stop  offset="0" style="stop-color:#FFF33B"/>
		<stop  offset="0.0595" style="stop-color:#FFE029"/>
		<stop  offset="0.1303" style="stop-color:#FFD218"/>
		<stop  offset="0.2032" style="stop-color:#FEC90F"/>
		<stop  offset="0.2809" style="stop-color:#FDC70C"/>
		<stop  offset="0.6685" style="stop-color:#F3903F"/>
		<stop  offset="0.8876" style="stop-color:#ED683C"/>
		<stop  offset="1" style="stop-color:#E93E3A"/>
	</linearGradient>
	<path fill-rule="evenodd" clip-rule="evenodd" fill="url(#SVGID_4_)" d="M81.038,71.061c5.218,0.655,10.436,1.312,15.653,1.968
		c0.036-0.252,0.072-0.502,0.109-0.754c-5.209-0.738-10.419-1.477-15.628-2.214C81.128,70.394,81.083,70.728,81.038,71.061z"/>
	<linearGradient id="SVGID_5_" gradientUnits="userSpaceOnUse" x1="83.1025" y1="69.1479" x2="93.6152" y2="69.1479">
		<stop  offset="0" style="stop-color:#FFF33B"/>
		<stop  offset="0.0595" style="stop-color:#FFE029"/>
		<stop  offset="0.1303" style="stop-color:#FFD218"/>
		<stop  offset="0.2032" style="stop-color:#FEC90F"/>
		<stop  offset="0.2809" style="stop-color:#FDC70C"/>
		<stop  offset="0.6685" style="stop-color:#F3903F"/>
		<stop  offset="0.8876" style="stop-color:#ED683C"/>
		<stop  offset="1" style="stop-color:#E93E3A"/>
	</linearGradient>
	<path fill-rule="evenodd" clip-rule="evenodd" fill="url(#SVGID_5_)" d="M83.17,68.115c-0.022,0.145-0.045,0.289-0.067,0.433
		c3.451,0.545,6.902,1.09,10.353,1.635c0.054-0.214,0.107-0.428,0.16-0.642C90.133,69.066,86.651,68.59,83.17,68.115z"/>
</g>
<path fill-rule="evenodd" clip-rule="evenodd" fill="#FFFFFF" d="M51.92,30.179C51.377,21.693,36.901,6.59,27.382,5.112
	c4.574,3.718,9.572,7.095,13.695,11.323C45.247,20.712,48.553,25.834,51.92,30.179z"/>
<g>
	<linearGradient id="SVGID_6_" gradientUnits="userSpaceOnUse" x1="95.9375" y1="42.2251" x2="205.4297" y2="42.2251">
		<stop  offset="0" style="stop-color:#FFF33B"/>
		<stop  offset="0.0595" style="stop-color:#FFE029"/>
		<stop  offset="0.1303" style="stop-color:#FFD218"/>
		<stop  offset="0.2032" style="stop-color:#FEC90F"/>
		<stop  offset="0.2809" style="stop-color:#FDC70C"/>
		<stop  offset="0.6685" style="stop-color:#F3903F"/>
		<stop  offset="0.8876" style="stop-color:#ED683C"/>
		<stop  offset="1" style="stop-color:#E93E3A"/>
	</linearGradient>
	<path fill-rule="evenodd" clip-rule="evenodd" fill="url(#SVGID_6_)" d="M196.931,53.804c-5.399-0.128-9.927-2.066-12.963-6.713
		c-6.524-9.986-12.958-20.032-19.521-29.993c-0.676-1.026-1.857-1.889-2.995-2.412c-5.977-2.75-12.037-5.317-18.023-8.045
		c-4.229-1.927-8.357-4.07-12.595-5.975c-1.102-0.495-2.506-0.808-3.665-0.603c-8.229,1.456-16.487,1.741-24.8,1.051
		c-1.18-0.099-2.459-0.358-3.531-0.027c-1.095,0.338-2.426,1.127-2.833,2.071c-0.299,0.694,0.446,2.429,1.21,2.88
		c2.365,1.397,4.86,2.991,7.488,3.442c6.066,1.042,12.238,1.496,18.379,2.065c0.678,0.062,3.407,3.153,3.849,4.442
		c1.9,5.553,5.759,9.652,10.134,13.392c3.403,2.908,6.712,5.942,9.895,9.089c1.92,1.897,2.692,4.279,2.547,7.146
		c-0.145,2.839,0.158,5.765,0.712,8.563c1.601,8.088,6.43,14.255,12.396,19.599c7.693,6.89,16.372,11.339,27.106,10.591
		c4.806-0.334,9.63-0.397,14.445-0.603c0.479-0.021,0.953-0.166,1.264-0.223c0-9.951,0-19.73,0-29.729
		C202.321,53.815,199.625,53.868,196.931,53.804z"/>
	<linearGradient id="SVGID_7_" gradientUnits="userSpaceOnUse" x1="90.0107" y1="10.6792" x2="124.4473" y2="10.6792">
		<stop  offset="0" style="stop-color:#FFF33B"/>
		<stop  offset="0.0595" style="stop-color:#FFE029"/>
		<stop  offset="0.1303" style="stop-color:#FFD218"/>
		<stop  offset="0.2032" style="stop-color:#FEC90F"/>
		<stop  offset="0.2809" style="stop-color:#FDC70C"/>
		<stop  offset="0.6685" style="stop-color:#F3903F"/>
		<stop  offset="0.8876" style="stop-color:#ED683C"/>
		<stop  offset="1" style="stop-color:#E93E3A"/>
	</linearGradient>
	<path fill-rule="evenodd" clip-rule="evenodd" fill="url(#SVGID_7_)" d="M124.312,14.506c0.045-0.225,0.09-0.45,0.135-0.676
		c-0.347-0.172-0.682-0.459-1.042-0.498c-5.12-0.565-10.237-1.188-15.37-1.607c-3.949-0.322-7.646-1.249-10.928-3.531
		c-2.648-1.843-4.148-1.811-7.097,0.234c1.311,3.719,4.009,4.72,8.812,4.167c3.725-0.428,7.56-0.338,11.307-0.021
		C114.877,12.976,119.587,13.841,124.312,14.506z"/>
	<linearGradient id="SVGID_8_" gradientUnits="userSpaceOnUse" x1="104.5137" y1="16.4878" x2="116.8887" y2="16.4878">
		<stop  offset="0" style="stop-color:#FFF33B"/>
		<stop  offset="0.0595" style="stop-color:#FFE029"/>
		<stop  offset="0.1303" style="stop-color:#FFD218"/>
		<stop  offset="0.2032" style="stop-color:#FEC90F"/>
		<stop  offset="0.2809" style="stop-color:#FDC70C"/>
		<stop  offset="0.6685" style="stop-color:#F3903F"/>
		<stop  offset="0.8876" style="stop-color:#ED683C"/>
		<stop  offset="1" style="stop-color:#E93E3A"/>
	</linearGradient>
	<path fill-rule="evenodd" clip-rule="evenodd" fill="url(#SVGID_8_)" d="M116.889,17.406c-4.074-0.652-8.148-1.305-12.223-1.956
		c-0.051,0.359-0.102,0.72-0.152,1.08C108.525,17.772,112.729,17.562,116.889,17.406z"/>
	<linearGradient id="SVGID_9_" gradientUnits="userSpaceOnUse" x1="110.667" y1="15.2778" x2="121.5781" y2="15.2778">
		<stop  offset="0" style="stop-color:#FFF33B"/>
		<stop  offset="0.0595" style="stop-color:#FFE029"/>
		<stop  offset="0.1303" style="stop-color:#FFD218"/>
		<stop  offset="0.2032" style="stop-color:#FEC90F"/>
		<stop  offset="0.2809" style="stop-color:#FDC70C"/>
		<stop  offset="0.6685" style="stop-color:#F3903F"/>
		<stop  offset="0.8876" style="stop-color:#ED683C"/>
		<stop  offset="1" style="stop-color:#E93E3A"/>
	</linearGradient>
	<path fill-rule="evenodd" clip-rule="evenodd" fill="url(#SVGID_9_)" d="M121.51,16.365c0.022-0.158,0.046-0.316,0.068-0.474
		c-3.609-0.567-7.22-1.134-10.83-1.7c-0.027,0.181-0.054,0.36-0.081,0.54C114.281,15.276,117.896,15.82,121.51,16.365z"/>
	<linearGradient id="SVGID_10_" gradientUnits="userSpaceOnUse" x1="111.917" y1="46.2505" x2="155.7637" y2="46.2505">
		<stop  offset="0" style="stop-color:#FFF33B"/>
		<stop  offset="0.0595" style="stop-color:#FFE029"/>
		<stop  offset="0.1303" style="stop-color:#FFD218"/>
		<stop  offset="0.2032" style="stop-color:#FEC90F"/>
		<stop  offset="0.2809" style="stop-color:#FDC70C"/>
		<stop  offset="0.6685" style="stop-color:#F3903F"/>
		<stop  offset="0.8876" style="stop-color:#ED683C"/>
		<stop  offset="1" style="stop-color:#E93E3A"/>
	</linearGradient>
	<path fill-rule="evenodd" clip-rule="evenodd" fill="url(#SVGID_10_)" d="M147.662,45.546c1.101-2.838-7.839-8.28-14.127-10.878
		c-6.287-2.598-10.853-8.344-16.646-10.84c-5.04-2.171-6.325,10.958-3.5,12.433c2.825,1.476,7.024,1.623,16.738,9.989
		c11.637,10.022,7.493,7.448,9.993,11.038c2.501,3.59,15.272,11.487,15.644,11.625l-6.524-11.305
		C149.239,57.609,146.562,48.384,147.662,45.546z"/>
</g>
<linearGradient id="SVGID_11_" gradientUnits="userSpaceOnUse" x1="79.4331" y1="39.9087" x2="123.7988" y2="39.9087">
	<stop  offset="0" style="stop-color:#2484C6"/>
	<stop  offset="1" style="stop-color:#8AD6F5"/>
</linearGradient>
<circle fill-rule="evenodd" clip-rule="evenodd" fill="url(#SVGID_11_)" cx="101.616" cy="39.909" r="22.183"/>
</svg>
