<?xml version="1.0" encoding="utf-8"?>
<!-- Generator: Adobe Illustrator 16.0.4, SVG Export Plug-In . SVG Version: 6.00 Build 0)  -->
<!DOCTYPE svg PUBLIC "-//W3C//DTD SVG 1.1//EN" "http://www.w3.org/Graphics/SVG/1.1/DTD/svg11.dtd">
<svg version="1.1" id="Layer_1" xmlns="http://www.w3.org/2000/svg" xmlns:xlink="http://www.w3.org/1999/xlink" x="0px" y="0px"
	 width="42.787px" height="42.786px" viewBox="3.608 3.006 42.787 42.786" enable-background="new 3.608 3.006 42.787 42.786"
	 xml:space="preserve">
<circle fill="#4667A3" cx="25.001" cy="24.399" r="21.393"/>
<path id="Facebook_3_" fill="#FFFFFF" d="M21.251,15.729c0,0.713,0,3.897,0,3.897h-2.855v4.765h2.855v14.161h5.864v-14.16h3.938
	c0,0,0.367-2.285,0.547-4.783c-0.512,0-4.461,0-4.461,0s0-2.772,0-3.258c0-0.487,0.639-1.142,1.271-1.142c0.631,0,1.963,0,3.195,0
	c0-0.649,0-2.891,0-4.961c-1.646,0-3.521,0-4.347,0C21.106,10.248,21.251,15.017,21.251,15.729z"/>
</svg>
