<?xml version="1.0" encoding="utf-8"?>
<!-- Generator: Adobe Illustrator 16.0.4, SVG Export Plug-In . SVG Version: 6.00 Build 0)  -->
<!DOCTYPE svg PUBLIC "-//W3C//DTD SVG 1.1//EN" "http://www.w3.org/Graphics/SVG/1.1/DTD/svg11.dtd">
<svg version="1.1" id="Layer_1" xmlns="http://www.w3.org/2000/svg" xmlns:xlink="http://www.w3.org/1999/xlink" x="0px" y="0px"
	 width="240.191px" height="280px" viewBox="0 0 240.191 280" enable-background="new 0 0 240.191 280" xml:space="preserve">
<g>
	<g>
		<linearGradient id="SVGID_1_" gradientUnits="userSpaceOnUse" x1="118.1274" y1="226.6372" x2="118.1274" y2="4.882812e-04">
			<stop  offset="0" style="stop-color:#ED1C24"/>
			<stop  offset="1" style="stop-color:#00C0F3"/>
		</linearGradient>
		<path fill="url(#SVGID_1_)" d="M61.994,225.241c8.265,1.942,16.757,1.938,24.688-0.518c46.569-14.41,93.019-29.21,139.49-43.934
			c4.583-1.452,7.583-4.835,9.687-9.061c0.664-1.334,0.519-2.326-0.64-3.493c-22.308-22.461-44.504-45.033-66.876-67.429
			c-4.618-4.623-10.458-7.292-17.184-6.97c-3.315,0.159-6.601,0.959-10.062,1.494c0-0.812,0-1.745,0-2.679
			c0.019-27.886-0.032-55.772,0.147-83.657c0.021-3.234-1.187-4.998-3.819-6.17c-1.631-0.726-3.342-1.276-5.028-1.873
			c-0.99-0.35-2.002-0.636-3.005-0.952c-2.828,0-5.656,0-8.485,0c-1.525,0.337-3.142,0.462-4.558,1.059
			c-2.56,1.08-5.096,2.288-7.448,3.754c-1.12,0.698-1.465,2.479,0.235,2.875c4.701,1.094,9.469,1.954,14.249,2.63
			c2.359,0.334,4.805,0.058,7.299,0.058c0,0.729,0,1.41,0,2.205c-2.935,0.173-5.803,0.341-8.949,0.526c0,40.375,0,80.535,0,121.144
			c-2.875-0.671-5.373-1.255-7.873-1.836c-1.894-0.441-2.413-1.57-2.411-3.535c0.059-37.784,0.03-75.567,0.021-113.351
			c0-0.929,0-1.858,0-2.996c-1.131-0.099-2.094-0.182-3.283-0.286c0,1.151,0,2.079,0,3.006c0,28.829-0.038,57.658,0.067,86.486
			c0.009,2.444-0.725,3.292-3.009,3.915c-33.245,9.053-66.469,18.182-99.665,27.414c-1.976,0.549-3.667,2.121-5.584,3.272
			c0.768,1.173,1.186,1.822,1.614,2.465c18.278,27.5,36.58,54.984,54.792,82.527C57.831,223.486,59.665,224.693,61.994,225.241z
			 M101.565,128.646c-3.603,2.901-3.636,6.517-0.111,9.513c3.395,2.887,7.526,4.199,11.775,4.95
			c8.844,1.563,17.649,1.417,26.166-1.792c2.017-0.76,3.967-1.921,5.663-3.259c3.396-2.68,3.344-6.359,0.104-9.207
			c-0.468-0.412-0.966-0.789-1.347-1.314c3.365,1.402,6.455,3.19,8.256,6.559c1.677,3.136,0.927,6.407-1.912,9.125
			c-4.185,4.009-9.421,5.882-14.91,6.949c-11.118,2.163-22.173,1.956-32.801-2.381c-2.761-1.127-5.376-2.943-7.613-4.94
			c-3.466-3.093-3.306-7.717-0.03-11.031c2.923-2.957,6.518-4.718,11.001-6.077C104.066,126.924,102.745,127.696,101.565,128.646z
			 M155.559,174.241c-13.519,5.447-27.644,6.68-42.049,5.529c-9.359-0.746-18.44-2.7-26.96-6.768
			c-6.096-2.91-11.752-6.463-14.818-12.825c-0.979-2.031-1.31-4.375-1.938-6.576c0.207-0.104,0.414-0.21,0.62-0.314
			c3.715,8.005,10.57,12.374,18.313,15.246c5.76,2.137,11.802,3.793,17.864,4.777c12.901,2.095,25.854,1.672,38.487-1.837
			c5.456-1.516,10.845-3.691,15.835-6.366c6.459-3.463,11.573-8.411,12.241-16.532c2.459,2.971,1.81,9.463-1.1,13.634
			C167.934,168.117,162.026,171.634,155.559,174.241z M92.537,147.797c5.483,4.652,12.049,6.896,19.025,7.996
			c11.757,1.854,23.281,1.227,34.254-3.861c2.046-0.948,4.033-2.141,5.815-3.519c7.506-5.807,7.105-14.548-0.841-19.971
			c-1.439-0.982-2.942-1.873-4.416-2.805c5.293,1.458,10.136,3.691,13.974,7.712c4.81,5.039,4.836,11.042,0.053,16.125
			c-4.41,4.686-10.147,7.069-16.125,8.755c-14.67,4.137-29.431,4.106-44.109,0.014c-5.139-1.434-10.039-3.538-14.271-6.956
			c-7.003-5.655-7.235-13.435-0.508-19.266c4.04-3.502,8.863-5.468,14.001-6.855c-1.649,1.007-3.359,1.929-4.938,3.037
			c-3.728,2.616-6.603,5.802-6.591,10.738C87.87,142.713,89.835,145.504,92.537,147.797z M162.657,161.367
			c-6.782,4.955-14.566,7.531-22.714,9.041c-15.802,2.929-31.364,2.115-46.49-3.608c-5.69-2.154-10.918-5.148-14.923-9.904
			c-4.38-5.2-5.045-11.182-1.856-16.768c0.407-0.714,0.955-1.347,1.638-2.296c0.141,2.544-0.03,4.758,0.43,6.831
			c1.693,7.627,7.019,12.379,13.41,16.136c7.86,4.62,16.518,6.735,25.504,7.333c12.734,0.846,25.055-0.919,36.303-7.396
			c6.336-3.649,11.656-8.386,13.254-15.958c0.521-2.465,0.248-5.098,0.339-7.654c0.386,0.592,0.771,1.183,1.157,1.774
			C174.531,148.292,169.962,156.032,162.657,161.367z M97.528,207.985c-3.736,5.318-9.132,7.753-15.385,8.312
			c-6.612,0.591-12.672-1.203-18.29-4.768c-3.196-2.027-5.306-4.362-3.919-8.528c2.006,5.29,6.226,7.785,11.246,9.141
			c6.591,1.778,13.04,1.344,19.144-1.907c4.713-2.51,6.491-5.464,6.869-10.722c0.36,2.118,0.804,4.228,1.031,6.359
			C98.296,206.551,97.942,207.396,97.528,207.985z"/>
		<linearGradient id="SVGID_2_" gradientUnits="userSpaceOnUse" x1="148.5933" y1="280.0005" x2="148.5933" y2="188.4614">
			<stop  offset="0" style="stop-color:#ED1C24"/>
			<stop  offset="1" style="stop-color:#00C0F3"/>
		</linearGradient>
		<path fill="url(#SVGID_2_)" d="M237.323,189.354c-51.965,16.053-103.924,32.123-155.902,48.129
			c-4.811,1.481-9.799,2.236-14.856,1.564c-3.046-0.405-6.056-1.087-9.476-1.716c0,8.821,0.174,17.619-0.087,26.404
			c-0.102,3.438,1.005,5.89,3.556,7.913c1.106,0.877,2.217,1.751,3.336,2.612c3.783,2.911,8.208,4.404,12.705,5.739
			c2.2,0,4.4,0,6.6,0c2.323-0.674,4.713-1.175,6.959-2.047c45.861-17.803,91.704-35.654,137.567-53.451
			c1.448-0.562,2.244-1.284,2.707-2.824c2.819-9.373,5.784-18.703,8.647-28.063c0.484-1.586,0.71-3.253,1.112-5.153
			C238.954,188.846,238.139,189.102,237.323,189.354z"/>
	</g>
	<g>
		<path fill="#FFFFFF" d="M93.453,166.799c15.125,5.724,30.688,6.537,46.49,3.608c8.147-1.51,15.932-4.086,22.714-9.041
			c7.306-5.335,11.874-13.075,6.053-22.469c-0.386-0.591-0.771-1.183-1.157-1.774c-0.091,2.556,0.182,5.189-0.339,7.654
			c-1.598,7.572-6.918,12.309-13.254,15.958c-11.248,6.477-23.568,8.241-36.303,7.396c-8.986-0.598-17.644-2.713-25.504-7.333
			c-6.391-3.757-11.717-8.509-13.41-16.136c-0.46-2.073-0.29-4.287-0.43-6.831c-0.683,0.949-1.231,1.582-1.638,2.296
			c-3.189,5.586-2.524,11.567,1.856,16.768C82.535,161.651,87.763,164.645,93.453,166.799z"/>
		<path fill="#FFFFFF" d="M90.324,210.235c-6.104,3.251-12.553,3.686-19.144,1.907c-5.021-1.355-9.24-3.851-11.246-9.141
			c-1.387,4.166,0.723,6.501,3.919,8.528c5.618,3.564,11.677,5.358,18.29,4.768c6.252-0.56,11.649-2.994,15.385-8.312
			c0.414-0.589,0.769-1.434,0.696-2.112c-0.228-2.132-0.671-4.241-1.031-6.359C96.815,204.771,95.037,207.725,90.324,210.235z"/>
		<path fill="#FFFFFF" d="M85.896,151.288c4.231,3.418,9.131,5.522,14.271,6.956c14.679,4.093,29.439,4.123,44.109-0.014
			c5.978-1.686,11.715-4.069,16.125-8.755c4.783-5.083,4.757-11.086-0.053-16.125c-3.838-4.021-8.681-6.254-13.974-7.712
			c1.474,0.933,2.977,1.823,4.416,2.805c7.946,5.423,8.347,14.164,0.841,19.971c-1.782,1.378-3.77,2.57-5.815,3.519
			c-10.973,5.088-22.497,5.716-34.254,3.861c-6.976-1.101-13.542-3.344-19.025-7.996c-2.702-2.293-4.667-5.084-4.677-8.856
			c-0.012-4.937,2.864-8.122,6.591-10.738c1.579-1.108,3.288-2.03,4.938-3.037c-5.138,1.387-9.961,3.354-14.001,6.855
			C78.661,137.853,78.893,145.632,85.896,151.288z"/>
		<path fill="#FFFFFF" d="M173.155,148.575c-0.668,8.121-5.782,13.069-12.241,16.532c-4.99,2.675-10.379,4.851-15.835,6.366
			c-12.633,3.509-25.586,3.932-38.487,1.837c-6.062-0.984-12.104-2.641-17.864-4.777c-7.743-2.872-14.598-7.241-18.313-15.246
			c-0.207,0.104-0.413,0.21-0.62,0.314c0.627,2.201,0.959,4.545,1.938,6.576c3.066,6.362,8.723,9.915,14.818,12.825
			c8.52,4.067,17.601,6.021,26.96,6.768c14.405,1.15,28.53-0.082,42.049-5.529c6.467-2.606,12.375-6.124,16.496-12.032
			C174.964,158.038,175.614,151.545,173.155,148.575z"/>
		<path fill="#FFFFFF" d="M101.565,128.646c1.18-0.95,2.501-1.722,4.242-2.905c-4.483,1.359-8.078,3.12-11.001,6.077
			c-3.276,3.314-3.437,7.938,0.03,11.031c2.237,1.997,4.853,3.813,7.613,4.94c10.628,4.337,21.683,4.544,32.801,2.381
			c5.489-1.067,10.726-2.94,14.91-6.949c2.839-2.718,3.589-5.99,1.912-9.125c-1.801-3.369-4.891-5.157-8.256-6.559
			c0.381,0.525,0.879,0.903,1.347,1.314c3.239,2.848,3.291,6.527-0.104,9.207c-1.696,1.338-3.646,2.499-5.663,3.259
			c-8.517,3.209-17.322,3.355-26.166,1.792c-4.249-0.751-8.381-2.063-11.775-4.95C97.929,135.163,97.962,131.547,101.565,128.646z"
			/>
	</g>
</g>
</svg>
