<?xml version="1.0" encoding="utf-8"?>
<!-- Generator: Adobe Illustrator 16.0.4, SVG Export Plug-In . SVG Version: 6.00 Build 0)  -->
<!DOCTYPE svg PUBLIC "-//W3C//DTD SVG 1.1//EN" "http://www.w3.org/Graphics/SVG/1.1/DTD/svg11.dtd">
<svg version="1.1" id="Layer_1" xmlns="http://www.w3.org/2000/svg" xmlns:xlink="http://www.w3.org/1999/xlink" x="0px" y="0px"
	 width="42.786px" height="42.786px" viewBox="4.287 3.207 42.786 42.786" enable-background="new 4.287 3.207 42.786 42.786"
	 xml:space="preserve">
<circle fill="#0586BF" cx="25.68" cy="24.6" r="21.393"/>
<path id="Facebook_3_" display="none" fill="#FFFFFF" d="M21.931,15.929c0,0.713,0,3.897,0,3.897h-2.854v4.765h2.854v14.162h5.864
	V24.591h3.938c0,0,0.367-2.285,0.547-4.783c-0.512,0-4.461,0-4.461,0s0-2.772,0-3.258c0-0.487,0.64-1.142,1.271-1.142
	c0.631,0,1.963,0,3.195,0c0-0.649,0-2.891,0-4.961c-1.646,0-3.52,0-4.346,0C21.786,10.447,21.931,15.217,21.931,15.929z"/>
<path id="Twitter_2_" display="none" fill="#FFFFFF" d="M32.078,31.062h-6.381c-0.888,0-1.642-0.31-2.261-0.935
	c-0.624-0.623-0.932-1.377-0.932-2.269v-2.271h9.094c0.818,0,1.525-0.295,2.112-0.88c0.585-0.591,0.88-1.295,0.88-2.117
	c0-0.824-0.295-1.529-0.882-2.116c-0.59-0.587-1.297-0.882-2.121-0.882h-9.083v-4.69c0-0.889-0.315-1.648-0.945-2.282
	c-0.625-0.634-1.382-0.952-2.262-0.952c-0.904,0-1.674,0.313-2.299,0.934c-0.629,0.622-0.943,1.389-0.943,2.302v12.957
	c0,2.664,0.943,4.941,2.828,6.83c1.887,1.895,4.161,2.838,6.818,2.838h6.379c0.886,0,1.646-0.318,2.277-0.952
	c0.634-0.632,0.949-1.392,0.949-2.279c0-0.887-0.315-1.647-0.949-2.282C33.727,31.382,32.964,31.062,32.078,31.062z"/>
<path id="LinkedIn_3_" fill="#FFFFFF" d="M37.539,27.163v8.769h-5.084v-8.181c0-2.056-0.734-3.458-2.574-3.458
	c-1.404,0-2.242,0.945-2.607,1.859c-0.135,0.326-0.17,0.781-0.17,1.238v8.541H22.02c0,0,0.068-13.856,0-15.292h5.083v2.168
	c-0.011,0.016-0.022,0.033-0.033,0.049h0.033v-0.049c0.676-1.041,1.883-2.527,4.582-2.527C35.032,20.28,37.539,22.466,37.539,27.163
	z M16.7,13.268c-1.74,0-2.878,1.141-2.878,2.642c0,1.468,1.105,2.644,2.81,2.644h0.034c1.773,0,2.876-1.175,2.876-2.644
	C19.509,14.409,18.439,13.268,16.7,13.268z M14.124,35.932h5.083V20.64h-5.083V35.932z"/>
</svg>
