<?xml version="1.0" encoding="utf-8"?>
<!-- Generator: Adobe Illustrator 16.0.4, SVG Export Plug-In . SVG Version: 6.00 Build 0)  -->
<!DOCTYPE svg PUBLIC "-//W3C//DTD SVG 1.1//EN" "http://www.w3.org/Graphics/SVG/1.1/DTD/svg11.dtd">
<svg version="1.1" id="Layer_1" xmlns="http://www.w3.org/2000/svg" xmlns:xlink="http://www.w3.org/1999/xlink" x="0px" y="0px"
	 width="55.508px" height="72.084px" viewBox="-0.5 -0.5 55.508 72.084" enable-background="new -0.5 -0.5 55.508 72.084"
	 xml:space="preserve">
<ellipse fill="#803192" cx="27.254" cy="27.237" rx="11.396" ry="11.381"/>
<path fill="#A1A1A1" d="M27.254,71.584l-0.362-0.379c-0.068-0.072-6.911-7.263-13.664-16.202C4.119,42.945-0.5,33.609-0.5,27.254
	C-0.5,11.95,11.95-0.5,27.254-0.5s27.754,12.45,27.754,27.754c0,6.354-4.619,15.69-13.728,27.749
	c-6.753,8.939-13.596,16.13-13.665,16.202L27.254,71.584z M27.254,0.5C12.502,0.5,0.5,12.502,0.5,27.254
	C0.5,41,24.032,66.68,27.254,70.13c3.222-3.45,26.754-29.131,26.754-42.876C54.008,12.502,42.006,0.5,27.254,0.5z"/>
</svg>
