<?xml version="1.0" encoding="utf-8"?>
<!-- Generator: Adobe Illustrator 16.0.4, SVG Export Plug-In . SVG Version: 6.00 Build 0)  -->
<!DOCTYPE svg PUBLIC "-//W3C//DTD SVG 1.1//EN" "http://www.w3.org/Graphics/SVG/1.1/DTD/svg11.dtd">
<svg version="1.1" id="Layer_1" xmlns="http://www.w3.org/2000/svg" xmlns:xlink="http://www.w3.org/1999/xlink" x="0px" y="0px"
	 width="50.923px" height="92.79px" viewBox="0 0 50.923 92.79" enable-background="new 0 0 50.923 92.79" xml:space="preserve">
<path display="none" fill-rule="evenodd" clip-rule="evenodd" fill="#4FBA6F" d="M18.27,37.051l-11.899,6.07l19.215,8.792
	l12.967-5.692L18.27,37.051z"/>
<g>
	<polygon fill-rule="evenodd" clip-rule="evenodd" fill="#2ECC71" points="0,46.395 0,81.343 25.384,92.722 25.384,92.79 
		25.461,92.756 25.537,92.79 25.537,92.722 50.92,81.343 50.92,46.395 25.461,57.808 	"/>
	<polygon fill-rule="evenodd" clip-rule="evenodd" fill="#2ECC71" points="25.541,0.069 25.541,0 25.464,0.034 25.387,0 
		25.387,0.069 0.003,11.447 0.003,46.395 4.695,44.292 16.031,49.405 16.035,49.403 25.182,53.528 41.306,46.3 32.132,42.187 
		32.155,42.176 20.786,37.079 25.464,34.982 50.923,46.395 50.923,11.447 	"/>
</g>
</svg>
