<?xml version="1.0" encoding="utf-8"?>
<!-- Generator: Adobe Illustrator 16.0.4, SVG Export Plug-In . SVG Version: 6.00 Build 0)  -->
<!DOCTYPE svg PUBLIC "-//W3C//DTD SVG 1.1//EN" "http://www.w3.org/Graphics/SVG/1.1/DTD/svg11.dtd">
<svg version="1.1" id="Layer_1" xmlns="http://www.w3.org/2000/svg" xmlns:xlink="http://www.w3.org/1999/xlink" x="0px" y="0px"
	 width="468.961px" height="141.79px" viewBox="2 -49 468.961 141.79" enable-background="new 2 -49 468.961 141.79"
	 xml:space="preserve">
<path display="none" fill="#4FBA6F" d="M18.27,37.051l-11.899,6.07l19.215,8.792l12.967-5.691L18.27,37.051z"/>
<g>
	<polygon fill="#2ECC71" points="2,21.895 2,75.297 40.789,92.687 40.789,92.79 40.907,92.739 41.023,92.79 41.023,92.687 
		79.81,75.297 79.81,21.895 40.907,39.335 	"/>
	<polygon fill="#2ECC71" points="41.029,-48.895 41.029,-49 40.911,-48.948 40.793,-49 40.793,-48.895 2.004,-31.508 2.004,21.895 
		9.174,18.682 26.497,26.494 26.502,26.491 40.48,32.794 65.119,21.75 51.099,15.465 51.135,15.448 33.763,7.66 40.911,4.455 
		79.813,21.895 79.813,-31.508 	"/>
</g>
<path fill="#323232" d="M95.99-1.135v53.614c0,2.391,0.46,4.486,1.391,6.283c0.928,1.794,2.114,3.286,3.562,4.484
	c1.451,1.198,3.102,2.072,4.959,2.633c1.854,0.562,3.674,0.842,5.456,0.842c2.004,0,3.991-0.296,5.961-0.895
	c1.967-0.6,3.729-1.498,5.292-2.693c1.56-1.194,2.82-2.671,3.788-4.43c0.962-1.756,1.446-3.831,1.446-6.225V-1.135h8.971V51.13
	c0,3.891-0.747,7.312-2.241,10.266c-1.497,2.955-3.462,5.44-5.89,7.457c-2.43,2.02-5.161,3.534-8.188,4.541
	c-3.026,1.013-6.077,1.515-9.14,1.515c-2.844,0-5.721-0.502-8.639-1.515c-2.915-1.011-5.533-2.525-7.851-4.541
	c-2.318-2.017-4.206-4.502-5.662-7.457c-1.461-2.954-2.19-6.375-2.19-10.266V-1.135H95.99z"/>
<path fill="#323232" d="M149.602,56.069c0,1.775,0.332,3.369,1.005,4.772c0.667,1.408,1.581,2.573,2.735,3.501
	c1.154,0.928,2.473,1.65,3.964,2.166c1.488,0.518,3.056,0.774,4.692,0.774c1.337,0,2.789-0.164,4.353-0.501
	c1.563-0.334,3.017-0.857,4.357-1.57c1.339-0.704,2.456-1.621,3.35-2.74c0.896-1.123,1.343-2.5,1.343-4.142
	c0-1.191-0.356-2.333-1.065-3.411c-0.713-1.082-1.665-2.069-2.86-2.965c-1.198-0.898-2.579-1.737-4.151-2.52
	c-1.57-0.785-3.213-1.512-4.936-2.183c-2.318-0.898-4.617-1.845-6.898-2.856c-2.279-1.004-4.316-2.161-6.111-3.47
	c-1.795-1.304-3.253-2.816-4.373-4.531c-1.121-1.715-1.683-3.769-1.683-6.156c0-2.685,0.521-4.923,1.569-6.714
	c1.045-1.793,2.431-3.228,4.149-4.31c1.722-1.08,3.703-1.864,5.945-2.35c2.244-0.484,4.561-0.727,6.954-0.727
	c2.841,0,5.457,0.32,7.853,0.954c2.39,0.637,4.466,1.59,6.226,2.86c1.754,1.273,3.119,2.86,4.092,4.767
	c0.972,1.907,1.457,4.169,1.457,6.786l-7.962-0.112c0-1.495-0.319-2.766-0.952-3.813c-0.637-1.046-1.499-1.908-2.582-2.58
	c-1.083-0.673-2.339-1.178-3.756-1.514c-1.422-0.338-2.88-0.505-4.375-0.505c-3.138,0-5.703,0.749-7.683,2.243
	c-1.981,1.497-2.972,3.14-2.972,4.936c0,1.346,0.375,2.523,1.123,3.533c0.752,1.01,1.724,1.907,2.927,2.691
	c1.201,0.784,2.568,1.497,4.105,2.131c1.538,0.637,3.135,1.329,4.788,2.074c2.172,0.974,4.384,1.928,6.638,2.861
	c2.251,0.938,4.314,2.02,6.193,3.253c1.875,1.233,3.393,2.71,4.556,4.429c1.163,1.727,1.745,3.855,1.745,6.397
	c0,2.991-0.583,5.534-1.744,7.623c-1.16,2.099-2.717,3.817-4.667,5.162c-1.946,1.349-4.217,2.319-6.803,2.918
	c-2.587,0.597-5.304,0.897-8.154,0.897c-2.774,0-5.397-0.377-7.872-1.123c-2.473-0.746-4.63-1.887-6.469-3.42
	c-1.837-1.532-3.3-3.421-4.387-5.665c-1.082-2.242-1.627-4.859-1.627-7.852h7.963V56.069z"/>
<path fill="#323232" d="M232.375,55.732c-0.748,2.618-1.795,5.047-3.141,7.29s-2.972,4.189-4.878,5.831
	c-1.909,1.646-4.095,2.938-6.563,3.871c-2.467,0.933-5.157,1.399-8.074,1.399c-3.892,0-7.328-0.804-10.319-2.41
	c-2.99-1.607-5.495-3.738-7.515-6.396c-2.021-2.654-3.552-5.702-4.6-9.139c-1.047-3.439-1.568-7.029-1.568-10.768
	c0-3.74,0.521-7.364,1.568-10.88c1.048-3.513,2.579-6.618,4.6-9.31c2.02-2.691,4.524-4.859,7.515-6.504
	c2.991-1.645,6.428-2.468,10.319-2.468c3.886,0,7.327,0.823,10.318,2.468c2.991,1.646,5.498,3.813,7.515,6.504
	c2.019,2.692,3.549,5.799,4.598,9.31c1.047,3.516,1.572,7.14,1.572,10.88v1.457H193.68c0.15,2.829,0.636,5.485,1.457,7.978
	c0.821,2.489,1.926,4.646,3.312,6.472c1.381,1.822,3.025,3.271,4.933,4.352c1.908,1.078,4.02,1.616,6.338,1.616
	c3.363,0,6.317-1.057,8.861-3.164c2.541-2.11,4.448-4.907,5.718-8.389L232.375,55.732L232.375,55.732z M225.196,40.029
	c-0.447-2.362-1.121-4.576-2.018-6.643c-0.897-2.066-2.002-3.857-3.312-5.37c-1.308-1.513-2.822-2.712-4.542-3.599
	c-1.72-0.884-3.589-1.329-5.606-1.329c-2.017,0-3.89,0.444-5.607,1.329c-1.723,0.887-3.255,2.085-4.6,3.599
	c-1.345,1.513-2.487,3.303-3.422,5.37c-0.934,2.066-1.588,4.28-1.964,6.643H225.196z"/>
<path fill="#323232" d="M237.645,17.372h7.964v6.954h0.226c1.42-2.541,3.158-4.504,5.215-5.888c2.057-1.383,4.656-2.077,7.796-2.077
	c1.493,0,2.877,0.337,4.147,1.011v7.963c-1.043-0.299-1.832-0.486-2.354-0.561c-0.523-0.074-1.082-0.113-1.682-0.113
	c-1.944,0-3.738,0.337-5.383,1.009c-1.648,0.674-3.05,1.59-4.207,2.749c-1.16,1.161-2.076,2.507-2.75,4.038
	c-0.671,1.533-1.009,3.16-1.009,4.878v35.781h-7.964V17.372z"/>
<path fill="#2ECC71" d="M266.499-1.135h27.258c2.315,0,4.559,0.525,6.727,1.57c2.174,1.048,4.077,2.412,5.723,4.094
	c1.643,1.683,2.953,3.589,3.922,5.72c0.973,2.132,1.461,4.282,1.461,6.45c0,1.794-0.168,3.551-0.504,5.271
	c-0.336,1.721-0.879,3.348-1.627,4.879c-0.746,1.534-1.662,2.88-2.744,4.039c-1.086,1.159-2.379,2.074-3.871,2.747
	c2.095,0.524,3.889,1.421,5.381,2.693c1.494,1.272,2.752,2.747,3.758,4.429c1.014,1.684,1.758,3.515,2.244,5.497
	c0.488,1.982,0.73,3.945,0.73,5.888c0,2.393-0.504,4.841-1.514,7.348c-1.012,2.506-2.375,4.764-4.09,6.784
	c-1.725,2.021-3.725,3.664-6.003,4.936c-2.282,1.271-4.693,1.906-7.233,1.906H266.5v-74.25H266.499z M275.471,30.271h16.531
	c1.414,0,2.793-0.393,4.136-1.177c1.336-0.786,2.512-1.776,3.515-2.973c1.006-1.195,1.807-2.524,2.4-3.981
	c0.6-1.458,0.895-2.86,0.895-4.207c0-1.122-0.224-2.335-0.67-3.645c-0.447-1.307-1.135-2.504-2.068-3.589
	c-0.931-1.083-2.084-1.999-3.459-2.748c-1.377-0.746-2.957-1.122-4.748-1.122h-16.53L275.471,30.271L275.471,30.271z
	 M275.471,65.151h17.433c1.569,0,3.13-0.369,4.697-1.122c1.563-0.745,2.957-1.738,4.187-2.972c1.229-1.23,2.233-2.651,3.019-4.264
	c0.778-1.609,1.171-3.272,1.171-4.991c0-1.572-0.3-3.194-0.895-4.877c-0.595-1.684-1.453-3.199-2.568-4.544
	c-1.115-1.345-2.471-2.447-4.078-3.307c-1.602-0.857-3.408-1.291-5.423-1.291h-17.546L275.471,65.151L275.471,65.151z"/>
<path fill="#2ECC71" d="M319.887,33.86c0-2.692,0.613-5.121,1.85-7.291c1.232-2.168,2.84-4.019,4.822-5.552
	c1.98-1.531,4.186-2.692,6.615-3.476c2.426-0.786,4.883-1.18,7.344-1.18c2.619,0,5.18,0.377,7.684,1.123
	c2.502,0.748,4.727,1.87,6.678,3.364c1.938,1.497,3.512,3.329,4.709,5.497c1.197,2.17,1.795,4.675,1.795,7.515v28.713
	c0,0.896,0.336,1.778,1.01,2.635c0.674,0.862,1.463,1.292,2.359,1.292c0.52,0,1.01-0.113,1.455-0.335
	c0.453-0.226,0.975-0.487,1.574-0.787v7.628c-0.973,0.297-1.908,0.562-2.807,0.781c-0.896,0.227-2.096,0.338-3.588,0.338
	c-4.789,0-7.18-3.028-7.18-9.083c-2.543,3.139-5.623,5.439-9.252,6.896c-3.629,1.458-7.234,2.188-10.824,2.188
	c-2.17,0-4.225-0.393-6.17-1.176c-1.939-0.787-3.682-1.888-5.215-3.312c-1.533-1.42-2.742-3.046-3.639-4.879
	c-0.898-1.83-1.352-3.829-1.352-5.997c0-3.441,0.877-6.262,2.641-8.472c1.756-2.205,3.963-4.037,6.615-5.495
	c2.65-1.458,5.512-2.617,8.584-3.475c3.061-0.858,5.922-1.646,8.58-2.358c2.65-0.709,4.857-1.438,6.613-2.186
	c1.754-0.747,2.639-1.72,2.639-2.917c0-1.42-0.262-2.805-0.785-4.151c-0.525-1.346-1.309-2.523-2.354-3.532
	c-1.051-1.01-2.381-1.812-3.986-2.412c-1.607-0.597-3.537-0.897-5.773-0.897c-1.65,0-3.236,0.28-4.773,0.842
	c-1.531,0.56-2.875,1.327-4.033,2.299c-1.16,0.973-2.096,2.132-2.807,3.477c-0.713,1.345-1.066,2.805-1.066,4.375H319.887z
	 M353.426,42.719c-2.025,0.899-4.584,1.739-7.684,2.524c-3.1,0.786-6.111,1.722-9.029,2.804c-2.922,1.088-5.428,2.451-7.512,4.095
	c-2.098,1.645-3.145,3.776-3.145,6.394c0,2.84,1.047,5.047,3.145,6.615c2.09,1.57,4.555,2.357,7.4,2.357
	c1.494,0,3.102-0.226,4.822-0.672c1.719-0.454,3.361-1.125,4.932-2.022c1.574-0.897,2.979-2.022,4.209-3.366
	c1.229-1.348,2.189-2.917,2.859-4.712V42.719H353.426z"/>
<path fill="#2ECC71" d="M378.327-1.135v74.25h-7.969v-74.25H378.327z"/>
<path fill="#2ECC71" d="M392.899-1.135v74.25h-7.963v-74.25H392.899z"/>
<path fill="#2ECC71" d="M421.053,74.125c-3.889,0-7.326-0.805-10.316-2.41c-2.996-1.608-5.498-3.736-7.516-6.396
	c-2.02-2.649-3.549-5.699-4.602-9.138c-1.043-3.44-1.572-7.03-1.572-10.767c0-3.737,0.523-7.364,1.572-10.88
	c1.049-3.513,2.582-6.618,4.602-9.309c2.021-2.691,4.525-4.86,7.516-6.506c2.99-1.644,6.428-2.467,10.316-2.467
	s7.324,0.824,10.316,2.467c2.99,1.646,5.496,3.814,7.51,6.506c2.023,2.691,3.553,5.798,4.605,9.309
	c1.039,3.516,1.57,7.143,1.57,10.88c0,3.736-0.525,7.326-1.57,10.767c-1.051,3.441-2.582,6.488-4.605,9.138
	c-2.02,2.655-4.521,4.787-7.51,6.396C428.385,73.321,424.942,74.125,421.053,74.125z M421.053,67.283
	c2.393,0,4.578-0.575,6.562-1.729c1.979-1.155,3.66-2.736,5.047-4.744c1.383-2.007,2.471-4.333,3.254-6.974
	c0.781-2.643,1.174-5.449,1.174-8.424c0-2.978-0.393-5.798-1.174-8.481c-0.783-2.679-1.871-5.039-3.254-7.086
	c-1.387-2.046-3.066-3.683-5.047-4.909c-1.984-1.227-4.17-1.842-6.562-1.842c-2.395,0-4.58,0.616-6.561,1.842
	c-1.984,1.226-3.664,2.865-5.051,4.909c-1.387,2.048-2.471,4.408-3.252,7.086c-0.783,2.678-1.176,5.503-1.176,8.481
	c0,2.975,0.393,5.786,1.176,8.424c0.781,2.641,1.865,4.967,3.252,6.974c1.387,2.008,3.064,3.589,5.051,4.744
	C416.473,66.708,418.659,67.283,421.053,67.283z"/>
<path fill="#2ECC71" d="M460.872,2.006v15.366h8.855v6.841h-8.855v36.903c0,2.316,0.709,3.941,2.129,4.879
	c1.42,0.934,3.102,1.401,5.045,1.401c0.375,0,0.785-0.017,1.234-0.056c0.447-0.036,1.014-0.244,1.682-0.619v6.507
	c-0.973,0.226-2.061,0.429-3.252,0.618c-1.197,0.186-2.471,0.277-3.818,0.277c-1.492,0-2.9-0.185-4.203-0.56
	c-1.311-0.375-2.473-0.969-3.477-1.794c-1.01-0.823-1.814-1.908-2.414-3.254c-0.592-1.347-0.895-2.988-0.895-4.935v-39.37h-8.072
	V17.37h8.072V2.006H460.872z"/>
<g>
	<path fill="#323232" d="M87.375-44.137c2.196-0.365,5.068-0.679,8.727-0.679c4.493,0,7.784,1.044,9.875,2.926
		c1.934,1.672,3.083,4.233,3.083,7.368c0,3.188-0.942,5.696-2.718,7.524c-2.402,2.561-6.323,3.868-10.764,3.868
		c-1.359,0-2.614-0.053-3.658-0.314v14.109h-4.546V-44.137z M91.923-27.153c0.993,0.261,2.246,0.366,3.762,0.366
		c5.487,0,8.831-2.665,8.831-7.524c0-4.651-3.292-6.897-8.309-6.897c-1.985,0-3.5,0.157-4.284,0.365V-27.153z"/>
	<path fill="#323232" d="M136.601-22.188c0,9.353-6.478,13.428-12.593,13.428c-6.844,0-12.122-5.016-12.122-13.012
		c0-8.466,5.54-13.429,12.541-13.429C131.691-35.201,136.601-29.924,136.601-22.188z M116.536-21.927c0,5.539,3.188,9.72,7.682,9.72
		c4.388,0,7.681-4.129,7.681-9.824c0-4.284-2.143-9.719-7.577-9.719C118.887-31.752,116.536-26.735,116.536-21.927z"/>
	<path fill="#323232" d="M143.867-34.625l3.344,12.854c0.732,2.822,1.412,5.436,1.881,8.047h0.156
		c0.574-2.56,1.41-5.278,2.246-7.994l4.129-12.907h3.866l3.919,12.646c0.942,3.03,1.672,5.696,2.247,8.255h0.157
		c0.418-2.56,1.097-5.226,1.933-8.204l3.607-12.699h4.545l-8.152,25.291h-4.18l-3.868-12.07c-0.889-2.822-1.619-5.33-2.247-8.309
		h-0.104c-0.627,3.029-1.411,5.643-2.299,8.361l-4.076,12.017h-4.181l-7.628-25.291h4.704V-34.625z"/>
	<path fill="#323232" d="M182.54-21.144c0.104,6.219,4.076,8.777,8.674,8.777c3.291,0,5.279-0.575,7.002-1.305l0.783,3.292
		c-1.619,0.731-4.388,1.567-8.412,1.567c-7.787,0-12.437-5.121-12.437-12.751c0-7.629,4.493-13.638,11.862-13.638
		c8.255,0,10.45,7.263,10.45,11.914c0,0.94-0.104,1.672-0.157,2.143H182.54z M196.021-24.437c0.052-2.926-1.201-7.473-6.375-7.473
		c-4.651,0-6.688,4.284-7.055,7.473H196.021z"/>
	<path fill="#323232" d="M206.16-26.735c0-2.979-0.053-5.538-0.208-7.891h4.023l0.156,4.964h0.208c1.15-3.396,3.919-5.54,7.001-5.54
		c0.524,0,0.889,0.053,1.307,0.157v4.336c-0.47-0.104-0.941-0.156-1.568-0.156c-3.24,0-5.539,2.456-6.166,5.905
		c-0.104,0.627-0.208,1.359-0.208,2.143v13.481h-4.545V-26.735z"/>
	<path fill="#323232" d="M225.287-21.144c0.104,6.219,4.075,8.777,8.673,8.777c3.292,0,5.278-0.575,7.002-1.305l0.783,3.292
		c-1.619,0.731-4.388,1.567-8.413,1.567c-7.786,0-12.437-5.121-12.437-12.751c0-7.629,4.494-13.638,11.862-13.638
		c8.256,0,10.45,7.263,10.45,11.914c0,0.94-0.104,1.672-0.157,2.143H225.287z M238.767-24.437c0.052-2.926-1.201-7.473-6.375-7.473
		c-4.65,0-6.688,4.284-7.054,7.473H238.767z"/>
	<path fill="#323232" d="M270.749-46.435v30.567c0,2.247,0.052,4.808,0.209,6.532h-4.129l-0.208-4.39h-0.105
		c-1.411,2.822-4.493,4.965-8.621,4.965c-6.113,0-10.817-5.174-10.817-12.855c-0.052-8.413,5.176-13.586,11.339-13.586
		c3.868,0,6.479,1.829,7.63,3.868h0.104v-15.102H270.749z M266.151-24.331c0-0.575-0.052-1.359-0.209-1.933
		c-0.678-2.926-3.187-5.33-6.634-5.33c-4.757,0-7.579,4.18-7.579,9.772c0,5.121,2.51,9.353,7.473,9.353
		c3.085,0,5.905-2.038,6.74-5.487c0.157-0.628,0.209-1.254,0.209-1.986V-24.331z"/>
	<path fill="#323232" d="M289.25-9.335c0.104-1.724,0.209-4.284,0.209-6.532v-30.567h4.546v15.885h0.103
		c1.622-2.822,4.546-4.651,8.622-4.651c6.271,0,10.714,5.226,10.659,12.907c0,9.041-5.695,13.534-11.336,13.534
		c-3.659,0-6.585-1.411-8.466-4.755h-0.157l-0.208,4.18H289.25z M294.004-19.472c0,0.574,0.103,1.149,0.207,1.672
		c0.889,3.188,3.555,5.381,6.898,5.381c4.807,0,7.68-3.918,7.68-9.719c0-5.069-2.611-9.406-7.523-9.406
		c-3.136,0-6.061,2.144-7.001,5.644c-0.104,0.522-0.261,1.15-0.261,1.88V-19.472z"/>
	<path fill="#323232" d="M320.5-34.625l5.537,14.945c0.574,1.671,1.201,3.658,1.621,5.172h0.104c0.47-1.514,0.993-3.448,1.62-5.276
		l5.016-14.841h4.86l-6.899,18.026c-3.291,8.675-5.539,13.116-8.675,15.832c-2.245,1.986-4.491,2.771-5.641,2.979l-1.15-3.868
		c1.15-0.365,2.664-1.096,4.022-2.246c1.256-0.994,2.823-2.77,3.867-5.122c0.208-0.469,0.366-0.836,0.366-1.097
		s-0.104-0.628-0.314-1.202l-9.352-23.305h5.018V-34.625z"/>
</g>
</svg>
