<?xml version="1.0" encoding="utf-8"?>
<!-- Generator: Adobe Illustrator 16.0.4, SVG Export Plug-In . SVG Version: 6.00 Build 0)  -->
<!DOCTYPE svg PUBLIC "-//W3C//DTD SVG 1.1//EN" "http://www.w3.org/Graphics/SVG/1.1/DTD/svg11.dtd">
<svg version="1.1" id="Layer_1" xmlns="http://www.w3.org/2000/svg" xmlns:xlink="http://www.w3.org/1999/xlink" x="0px" y="0px"
	 width="301.217px" height="94.221px" viewBox="0 0 301.217 94.221" enable-background="new 0 0 301.217 94.221"
	 xml:space="preserve">
<g>
	<g>
		<path fill-rule="evenodd" clip-rule="evenodd" fill="#C52127" d="M149.603,0.191c-0.109,0-0.203,0.078-0.223,0.185l-2.131,11.122
			c-0.012,0.068,0.006,0.137,0.049,0.189c0.043,0.052,0.107,0.081,0.174,0.081h6.631c0.107,0,0.201-0.076,0.223-0.183l0.35-1.753
			c0.012-0.066-0.004-0.136-0.049-0.189c-0.043-0.052-0.107-0.083-0.176-0.083c0,0-3.639,0-4.123,0
			c0.082-0.42,0.451-2.369,0.508-2.667c0.342,0,3.715,0,3.715,0c0.111,0,0.205-0.079,0.225-0.188l0.316-1.753
			c0.002-0.013,0.006-0.026,0.006-0.04c0-0.053-0.02-0.104-0.055-0.146c-0.043-0.053-0.107-0.082-0.174-0.082c0,0-3.139,0-3.613,0
			c0.078-0.406,0.379-1.998,0.434-2.285c0.346,0,4.162,0,4.162,0c0.109,0,0.205-0.08,0.225-0.189l0.301-1.753
			c0.002-0.012,0.004-0.025,0.004-0.038c0-0.054-0.02-0.105-0.053-0.147c-0.045-0.051-0.107-0.081-0.176-0.081H149.603z"/>
		<path fill-rule="evenodd" clip-rule="evenodd" fill="#C52127" d="M86.365,2.4h-0.514l-0.562,2.938h0.521
			c0.734,0,1.383-0.234,1.783-0.641c0.289-0.295,0.434-0.669,0.434-1.112V3.547C88.013,2.754,87.5,2.4,86.365,2.4z M83.765,0.191
			h1.881c1.783,0,5.1,0,5.16,3.107v0.095c0,1.099-0.369,2.055-1.07,2.768c-0.877,0.895-2.219,1.386-3.783,1.386h-1.102l-0.775,4.037
			c-0.021,0.108-0.115,0.185-0.225,0.185h-2.23c-0.068,0-0.133-0.029-0.176-0.083c-0.043-0.051-0.061-0.121-0.049-0.188
			l2.146-11.122C83.564,0.269,83.658,0.191,83.765,0.191z"/>
		<path fill-rule="evenodd" clip-rule="evenodd" fill="#C52127" d="M96.099,7.234c0.023,1.218,0.605,2.519,2.166,2.519
			c0.795,0,1.508-0.316,2.121-0.939c1.082-1.105,1.543-2.856,1.518-4.104c-0.021-1.209-0.611-2.502-2.197-2.502
			c-0.811,0-1.527,0.313-2.133,0.929C96.648,4.08,96.07,5.689,96.099,7.234z M95.031,2.151C96.25,0.725,97.833,0,99.738,0
			c3.088,0,4.895,1.801,4.953,4.94c0.037,1.886-0.611,3.688-1.826,5.079c-1.119,1.27-2.799,1.941-4.852,1.941
			c-2.754,0-4.645-1.947-4.699-4.844C93.279,5.279,93.888,3.517,95.031,2.151z"/>
		<path fill-rule="evenodd" clip-rule="evenodd" fill="#C52127" d="M120.828,0.191c-0.09,0-0.17,0.054-0.207,0.136
			c0,0-2.777,6.276-3.393,7.666c-0.037-1.495-0.188-7.58-0.188-7.58c-0.002-0.123-0.104-0.222-0.229-0.222h-2.994
			c-0.092,0-0.176,0.056-0.211,0.14c0,0-2.611,6.301-3.182,7.677c-0.086-1.468-0.445-7.602-0.445-7.602
			c-0.006-0.121-0.105-0.215-0.225-0.215h-2.232c-0.062,0-0.123,0.027-0.168,0.073c-0.043,0.047-0.062,0.11-0.059,0.174
			l0.914,11.121c0.01,0.119,0.109,0.209,0.227,0.209h2.758c0.092,0,0.174-0.055,0.209-0.139c0,0,2.768-6.563,3.375-8.002
			c0.049,1.538,0.252,7.92,0.252,7.92c0.002,0.124,0.104,0.221,0.227,0.221h2.789c0.088,0,0.17-0.051,0.207-0.133l5.094-11.121
			c0.031-0.071,0.027-0.153-0.018-0.218c-0.041-0.066-0.111-0.105-0.189-0.105H120.828z"/>
		<path fill-rule="evenodd" clip-rule="evenodd" fill="#C52127" d="M126.705,0.191c-0.107,0-0.203,0.078-0.223,0.185l-2.129,11.122
			c-0.012,0.068,0.006,0.137,0.049,0.189c0.041,0.052,0.105,0.081,0.174,0.081h6.629c0.109,0,0.201-0.076,0.225-0.183l0.348-1.753
			c0.014-0.066-0.004-0.136-0.047-0.189c-0.043-0.052-0.107-0.083-0.176-0.083c0,0-3.641,0-4.123,0
			c0.08-0.42,0.449-2.369,0.506-2.667c0.342,0,3.717,0,3.717,0c0.109,0,0.203-0.079,0.223-0.188l0.318-1.753
			c0.002-0.013,0.004-0.026,0.004-0.04c0-0.053-0.02-0.104-0.053-0.146c-0.045-0.053-0.107-0.082-0.176-0.082c0,0-3.139,0-3.613,0
			c0.078-0.406,0.381-1.998,0.436-2.285c0.346,0,4.16,0,4.16,0c0.111,0,0.207-0.08,0.227-0.189l0.301-1.753
			c0-0.012,0.002-0.025,0.002-0.038c0-0.054-0.018-0.105-0.053-0.147c-0.043-0.051-0.107-0.081-0.174-0.081H126.705z"/>
		<path fill-rule="evenodd" clip-rule="evenodd" fill="#C52127" d="M140.507,2.4h-0.736l-0.477,2.54h0.537
			c0.533,0,1.502-0.08,2.023-0.611c0.242-0.246,0.359-0.558,0.359-0.95V3.34C142.199,2.463,141.558,2.4,140.507,2.4z M140.355,0.191
			c2.041,0,4.582,0,4.637,2.854v0.074c0,0.843-0.273,1.572-0.795,2.113c-0.441,0.455-1.051,0.767-1.764,0.912
			c0.238,0.204,0.414,0.495,0.508,0.862l1.154,4.478c0.004,0.019,0.008,0.039,0.008,0.058c0,0.049-0.018,0.099-0.049,0.139
			c-0.043,0.055-0.109,0.088-0.18,0.088h-2.344c-0.105,0-0.197-0.073-0.221-0.176l-0.592-2.612l-0.109-0.517
			c-0.184-0.903-0.268-1.315-1.111-1.315h-0.654l-0.848,4.436c-0.021,0.108-0.115,0.185-0.225,0.185h-2.23
			c-0.068,0-0.133-0.029-0.176-0.081c-0.045-0.053-0.062-0.121-0.049-0.188l2.113-11.123c0.021-0.107,0.115-0.186,0.225-0.186
			H140.355z"/>
		<path fill-rule="evenodd" clip-rule="evenodd" fill="#C52127" d="M163.101,2.4h-0.576l-1.361,7.16h0.76
			c1.42,0,2.508-0.377,3.24-1.12c0.746-0.763,1.125-1.909,1.125-3.412l-0.002-0.175C166.257,3.317,165.066,2.4,163.101,2.4z
			 M160.437,0.191h3.348c1.939,0,5.207,0.646,5.291,4.972c0.021,1.098-0.174,3.173-1.709,4.735c-1.217,1.24-3.004,1.87-5.312,1.87
			h-3.746c-0.066,0-0.131-0.029-0.174-0.081c-0.045-0.053-0.062-0.121-0.051-0.189l2.131-11.122
			C160.236,0.27,160.33,0.191,160.437,0.191z"/>
		<path fill-rule="evenodd" clip-rule="evenodd" fill="#C52127" d="M178.886,6.798h-0.531l-0.521,2.763h0.49
			c0.857,0,1.795-0.066,2.277-0.557c0.242-0.247,0.359-0.588,0.359-1.04V7.912C180.945,7.11,180.363,6.798,178.886,6.798z
			 M179.804,2.4h-0.594l-0.447,2.285h0.6c0.584,0,1.369-0.091,1.789-0.52c0.209-0.213,0.311-0.486,0.311-0.838V3.292
			C181.447,2.543,180.867,2.4,179.804,2.4z M177.205,0.191h3.299c2.279,0,3.605,1.052,3.641,2.885v0.052
			c0,1.148-0.748,2.17-1.826,2.617c0.828,0.385,1.311,1.204,1.334,2.351V8.18c0,0.91-0.287,1.664-0.855,2.241
			c-0.875,0.895-2.402,1.348-4.535,1.348h-3.17c-0.068,0-0.133-0.029-0.178-0.081c-0.041-0.053-0.059-0.121-0.047-0.188
			l2.113-11.123C177.003,0.27,177.095,0.191,177.205,0.191z"/>
		<path fill-rule="evenodd" clip-rule="evenodd" fill="#C52127" d="M194.679,0.191c-0.07,0-0.139,0.034-0.18,0.09
			c0,0-2.848,3.769-3.279,4.339c-0.244-0.651-1.602-4.28-1.602-4.28c-0.031-0.089-0.117-0.148-0.213-0.148h-2.357
			c-0.076,0-0.148,0.039-0.191,0.102c-0.023,0.038-0.037,0.082-0.037,0.127c0,0.029,0.006,0.06,0.02,0.088
			c0,0,2.656,6.329,2.709,6.453c-0.025,0.132-0.871,4.537-0.871,4.537c-0.002,0.015-0.004,0.03-0.004,0.044
			c0,0.053,0.02,0.104,0.051,0.144c0.045,0.054,0.109,0.083,0.178,0.083h2.23c0.109,0,0.203-0.076,0.223-0.185
			c0,0,0.852-4.439,0.875-4.549c0.068-0.087,5.223-6.473,5.223-6.473c0.035-0.041,0.051-0.092,0.051-0.143
			c0-0.033-0.006-0.066-0.021-0.099c-0.037-0.079-0.117-0.13-0.205-0.13H194.679z"/>
	</g>
	<g>
		<g>
			<g>
				<path fill-rule="evenodd" clip-rule="evenodd" fill="#C52127" d="M34.025,18.238c-1.184,2.496-0.713,4.545,1.053,4.576
					c1.768,0.031,4.158-1.965,5.342-4.459c1.184-2.496,0.715-4.546-1.053-4.578C37.601,13.749,35.208,15.744,34.025,18.238z
					 M48.416,9.229c0.014,0.006,0.023,0.021,0.023,0.037c0,0.006,0,0.011-0.002,0.015c-1.057,2.991-2.807,6.393-4.541,8.975
					c-3.656,5.429-8.902,8.852-11.719,7.645c-2.812-1.207-2.137-6.586,1.523-12.017c0.824-1.219,1.725-2.336,2.66-3.322
					c0.008-0.008,0.012-0.018,0.012-0.029c0-0.021-0.02-0.041-0.041-0.041c0,0-0.004,0-0.006,0.001
					c-1.148,0.16-2.314,0.387-3.488,0.684c-0.01,0.001-0.018,0.008-0.023,0.015C20.462,26.336,15.208,46.008,15.931,63.555v0.002
					c0,0.023-0.02,0.041-0.043,0.041c-0.004,0-0.01,0-0.014-0.002C8.593,60.661,3.273,53.629,2.72,44.724l-0.008-0.104
					C1.792,28.774,14.423,12.544,30.927,8.367C37.322,6.747,43.365,7.175,48.416,9.229z"/>
				<path fill-rule="evenodd" clip-rule="evenodd" d="M43.746,51.963c-1.199,0.834-2.451,1.604-3.744,2.297
					c-0.006,0.003-0.012,0.004-0.018,0.004c-0.021,0-0.041-0.017-0.043-0.039c-0.24-3.805-1.061-7.489-2.477-10.556
					c-3.779-8.187-10.383-8.816-14.746-1.406c-2.668,4.535-3.885,11.035-3.557,17.273c0,0.018,0.012,0.033,0.029,0.037
					c4.629,1.451,9.961,1.609,15.65,0.174c16.48-4.199,29.086-20.414,28.17-36.242C62.203,9.601,51.236,0.616,37.41,1.449
					c-0.01,0-0.018,0.005-0.025,0.012c-1.344,1.36-2.602,2.734-3.785,4.12c-0.004,0.008-0.008,0.017-0.008,0.025
					c0,0.023,0.02,0.043,0.041,0.043c0,0,0.002,0,0.006-0.001C41.74,4.622,48.234,6.27,52.47,9.646
					c0.01,0.007,0.016,0.019,0.016,0.031c0,0.008-0.002,0.018-0.006,0.022c-14.6,20.584-12.793,32.311-8.721,42.215
					c0.004,0.005,0.004,0.009,0.004,0.016C43.763,51.942,43.757,51.955,43.746,51.963z"/>
			</g>
			<g>
				<path fill-rule="evenodd" clip-rule="evenodd" d="M179.921,28.414c3.445,0,5.992,0.751,7.221,1.445
					c0.016,0.008,0.025,0.027,0.021,0.044l-1.189,6.241c-0.004,0.012-0.012,0.023-0.023,0.029s-0.027,0.006-0.039-0.001
					c-1.395-0.761-3.805-1.57-6.393-1.57c-2.172,0-3.588,0.91-3.588,2.435c0,1.092,1.084,2.072,3.377,3.189
					c2.984,1.492,6.357,3.701,6.357,7.696c0,2.608-0.869,4.789-2.582,6.489c-2.279,2.26-5.975,3.495-10.422,3.459
					c-3.418-0.055-6.875-0.941-8.605-2.195c-0.012-0.01-0.02-0.027-0.016-0.043l1.191-6.28c0.004-0.013,0.012-0.023,0.023-0.029
					c0.016-0.006,0.027-0.006,0.041,0.004c1.852,1.161,5.498,2.414,8.174,2.414c2.074,0,3.473-0.96,3.473-2.494
					c0-1.392-0.982-2.365-3.492-3.591c-3.971-1.985-5.957-4.5-5.957-7.468C167.494,32.357,172.464,28.414,179.921,28.414z"/>
				<path d="M144.554,19.079h8.24c0.014,0,0.023,0.007,0.031,0.016c0.01,0.011,0.012,0.022,0.01,0.034l-4.307,22.643
					c0,0.01,0.002,0.02,0.014,0.023c0.008,0.004,0.018,0.002,0.023-0.005l11.084-12.784c0.008-0.01,0.02-0.016,0.031-0.016
					l9.037,0.002c0.016,0,0.031,0.009,0.037,0.024c0.004,0.005,0.004,0.012,0.004,0.017c0,0.01-0.004,0.021-0.01,0.027
					l-11.479,12.929l7.004,15.193c0,0.006,0.004,0.01,0.004,0.018s-0.004,0.016-0.008,0.023c-0.006,0.012-0.02,0.02-0.035,0.02
					h-8.92c-0.016,0-0.031-0.012-0.037-0.025l-6.787-15.047c-0.002-0.009-0.012-0.014-0.02-0.013
					c-0.012,0.003-0.016,0.009-0.02,0.017l-2.855,15.034c-0.006,0.02-0.021,0.035-0.043,0.035h-8.238
					c-0.012,0-0.025-0.006-0.033-0.016c-0.008-0.012-0.01-0.023-0.01-0.035l7.24-38.078
					C144.519,19.094,144.535,19.079,144.554,19.079z"/>
				<path fill-rule="evenodd" clip-rule="evenodd" d="M133.398,28.473c2.117,0,4.277,0.368,5.775,0.981
					c0.02,0.008,0.029,0.027,0.027,0.047l-1.281,6.723c-0.004,0.013-0.012,0.024-0.023,0.03c-0.014,0.006-0.029,0.005-0.039-0.003
					c-1.295-0.723-2.791-1.071-4.576-1.071c-5.965,0-9.518,5.2-9.518,10.211c0,4.252,2.838,5.774,5.486,5.774
					c2.367,0,4.381-0.516,6.938-1.774c0.014-0.007,0.031-0.006,0.043,0.004c0.014,0.01,0.018,0.025,0.016,0.04l-1.309,6.906
					c-0.004,0.014-0.012,0.023-0.023,0.031c-1.939,0.938-4.938,1.5-8.023,1.5c-7.242,0-11.91-4.535-11.91-11.561
					C114.98,36.142,122.894,28.473,133.398,28.473z"/>
				<path d="M88.468,28.356c0.496,0,1.105,0.052,1.555,0.136c0.01,0,0.02,0.006,0.025,0.016s0.008,0.021,0.006,0.032l-1.611,8.12
					c-0.002,0.012-0.01,0.021-0.02,0.027s-0.021,0.008-0.031,0.006c-0.293-0.06-0.756-0.131-1.307-0.131
					c-5.689,0-7.91,5.562-8.771,10.16l-2.021,10.813c-0.004,0.02-0.02,0.033-0.039,0.033h-8.297c-0.012,0-0.023-0.004-0.031-0.014
					s-0.012-0.023-0.01-0.035l5.42-28.495c0.004-0.02,0.02-0.033,0.039-0.033l7.297-0.002c0.014,0,0.023,0.006,0.033,0.016
					c0.006,0.007,0.01,0.016,0.01,0.026l-0.367,1.926c-0.348,1.833-0.908,2.914-1.27,3.426l-0.055,0.094
					c-0.125,0.271,0.074,0.552,0.289,0.652c0.219,0.101,0.566,0.075,0.693-0.195l0.037-0.103c0.16-0.604,0.492-1.91,1.617-3.175
					C83.597,29.518,85.941,28.356,88.468,28.356z"/>
				<path fill-rule="evenodd" clip-rule="evenodd" d="M278.363,40.246c0.039-0.002,0.078-0.003,0.115-0.006
					c3.307-0.141,5.289-0.65,6.264-1.613c0.463-0.459,0.688-1.02,0.688-1.703c0-1.459-1.207-2.379-3.012-2.379
					c-2.715,0-4.695,1.668-5.781,3.664c-0.031,0.057-0.061,0.115-0.09,0.171c-0.789,1.479-1.041,1.641-1.75,2.089l-0.09,0.06
					c-0.23,0.191-0.154,0.53,0,0.714c0.154,0.182,0.467,0.309,0.695,0.117l0.076-0.08C276.054,40.592,276.177,40.34,278.363,40.246z
					 M283.453,28.414c5.898,0,9.836,3.428,9.836,8.51c0,2.351-0.766,4.281-2.271,5.75c-2.537,2.472-7.117,3.713-13.994,3.757h-0.002
					c-1.648-0.001-2.025-0.832-2.318-1.386l-0.059-0.088c-0.184-0.237-0.535-0.188-0.725-0.039
					c-0.186,0.146-0.311,0.469-0.127,0.703l0.074,0.078c0.764,0.691,1.025,0.845,1.342,1.962c0.139,0.56,0.365,1.128,0.672,1.56
					c1.086,1.371,3.004,2.117,5.385,2.117c3.477,0,6.49-0.844,9.768-2.732c0.014-0.007,0.031-0.007,0.045,0.002
					c0.012,0.01,0.02,0.026,0.016,0.042l-1.32,6.943c-0.002,0.014-0.01,0.023-0.021,0.029c-3.99,2.031-8.674,2.25-10.502,2.25
					c-7.799,0-12.256-4.333-12.256-11.906c0-4.363,1.604-8.738,4.396-12C274.455,30.387,278.738,28.414,283.453,28.414z"/>
				<path d="M199.521,51.566c4.402,0,7.633-6.248,7.633-11.765c0-1.329-0.312-4.565-3.383-4.565c-3.121,0-5.756,3.557-6.777,8.948
					C196.644,46.029,195.666,51.566,199.521,51.566z M198.937,28.867l-0.248,1.295c-0.387,2.045-0.996,2.83-1.391,3.314l-0.062,0.09
					c-0.145,0.263,0.014,0.548,0.221,0.664c0.209,0.115,0.582,0.122,0.729-0.139l0.043-0.099c0.201-0.591,0.535-1.792,1.838-3.039
					c1.916-1.642,4.246-2.54,6.664-2.54c5.547,0,9.145,4.203,9.145,10.755c0,6.872-3.303,13.919-9.246,17.087
					c-4.615,2.461-8.832,1.904-10.895,0.291c-0.498-0.391-0.619-1.407-0.674-1.808l-0.025-0.105
					c-0.092-0.285-0.432-0.396-0.689-0.304c-0.227,0.081-0.432,0.354-0.34,0.637l0.043,0.1c0.379,0.672,0.641,1.161,0.561,1.772
					l-1.795,9.48c-0.004,0.021-0.02,0.035-0.041,0.035h-8.297c-0.014,0-0.023-0.006-0.031-0.016s-0.012-0.023-0.01-0.035
					l7.125-37.458c0.002-0.018,0.02-0.033,0.039-0.033l7.297,0.006c0.012,0,0.023,0.004,0.031,0.014
					C198.937,28.844,198.939,28.855,198.937,28.867z"/>
				<path fill-rule="evenodd" clip-rule="evenodd" d="M262.753,28.473c2.113,0,4.273,0.368,5.773,0.981
					c0.02,0.008,0.029,0.027,0.025,0.047l-1.279,6.723c-0.004,0.013-0.012,0.024-0.023,0.03c-0.014,0.006-0.029,0.005-0.039-0.003
					c-1.293-0.723-2.791-1.071-4.576-1.071c-5.965,0-9.518,5.2-9.518,10.211c0,4.252,2.838,5.774,5.486,5.774
					c2.369,0,4.381-0.516,6.936-1.774c0.014-0.007,0.031-0.006,0.043,0.004c0.016,0.01,0.02,0.025,0.018,0.04l-1.309,6.906
					c-0.004,0.014-0.012,0.023-0.023,0.031c-1.939,0.938-4.938,1.5-8.023,1.5c-7.242,0-11.91-4.535-11.91-11.561
					C244.333,36.142,252.248,28.473,262.753,28.473z"/>
				<path d="M228.835,36.458c-2.252,2.253-3.943,6.481-3.939,9.849c0.002,2.955,1.098,4.797,3.004,4.797
					c3.047,0,5.676-3.188,6.578-7.857c0.203-1.043,0.408-2.105,0.557-3.049c0.146-0.942,0.24-1.775,0.213-2.356
					c-0.098-1.993-1.137-3.069-2.998-3.069C231.111,34.771,229.931,35.361,228.835,36.458z M231.935,57.247l0.25-1.262
					c0.238-1.143,1.145-2.702,1.494-3.214l0.053-0.094c0.121-0.273-0.055-0.594-0.273-0.69c-0.264-0.113-0.594-0.024-0.717,0.249
					l-0.033,0.104c-0.15,0.604-0.479,1.969-1.768,3.194c-1.65,1.504-3.934,2.396-6.42,2.396c-5.57,0-8.086-4.944-8.09-9.891
					c-0.004-5.621,2.205-11.187,5.904-14.887c3.098-3.101,7.096-4.738,11.568-4.738c3.398,0.014,5.914,1,7.492,2.908
					c2.332,2.828,2.141,7.072,1.559,10.158l-3.016,15.782c-0.004,0.02-0.02,0.035-0.041,0.035h-7.92
					c-0.012,0-0.025-0.008-0.033-0.016C231.937,57.27,231.935,57.258,231.935,57.247z"/>
				<path d="M99.482,36.458c-2.252,2.253-3.943,6.481-3.939,9.849c0.002,2.955,1.098,4.797,3.002,4.797
					c3.049,0,5.678-3.188,6.58-7.857c0.203-1.043,0.408-2.105,0.557-3.049c0.146-0.942,0.24-1.775,0.213-2.356
					c-0.098-1.993-1.137-3.069-2.998-3.069C101.757,34.771,100.578,35.361,99.482,36.458z M102.582,57.247l0.25-1.262
					c0.236-1.143,1.145-2.702,1.492-3.214l0.055-0.094c0.121-0.273-0.055-0.594-0.275-0.69c-0.262-0.113-0.592-0.024-0.715,0.249
					l-0.033,0.104c-0.15,0.604-0.479,1.969-1.768,3.194c-1.65,1.504-3.934,2.396-6.42,2.396c-5.57,0-8.086-4.944-8.09-9.891
					c-0.004-5.621,2.205-11.187,5.904-14.887c3.098-3.101,7.096-4.738,11.566-4.738c3.4,0.014,5.916,1,7.494,2.908
					c2.332,2.828,2.141,7.072,1.559,10.158l-3.016,15.782c-0.004,0.02-0.02,0.035-0.041,0.035h-7.92
					c-0.012,0-0.025-0.008-0.033-0.016C102.583,57.27,102.58,57.258,102.582,57.247z"/>
				<path d="M293.324,54.349c-0.156,1.728,1.105,3.109,2.828,3.109c1.758,0,3.328-1.438,3.484-3.196
					c0.156-1.73-1.105-3.113-2.828-3.113C295.05,51.148,293.484,52.586,293.324,54.349z M292.828,54.305
					c0.184-2.018,1.965-3.654,3.98-3.654c2.02,0,3.506,1.637,3.324,3.654c-0.182,2.016-1.961,3.649-3.98,3.649
					C294.136,57.954,292.648,56.321,292.828,54.305z M295.683,52.149c0-0.009,0.008-0.016,0.016-0.016h0.914l0.012,0.003
					c0.234,0.002,0.389,0.004,0.508,0.014c0.158,0.012,0.279,0.035,0.402,0.078c0.467,0.155,0.73,0.523,0.73,0.992
					c0,0.081-0.008,0.166-0.025,0.252c-0.105,0.575-0.471,1.044-1.141,1.229l0.588,1.729c0,0.004,0,0.006,0,0.006
					c0,0.006,0,0.01-0.002,0.012c-0.006,0.006-0.01,0.006-0.016,0.006h-0.596c-0.008,0-0.014-0.002-0.016-0.01l-0.559-1.649
					l-0.369,0.007h-0.012h-0.404l-0.309,1.64c0,0.008-0.008,0.012-0.018,0.012h-0.494c-0.004,0-0.01,0-0.014-0.004
					c-0.002-0.004-0.004-0.01-0.004-0.016l0.311-1.652l0.004-0.021l0.246-1.297L295.683,52.149z M296.517,52.664h-0.402l-0.15,0.809
					l-0.15,0.802h0.395h0.045c0.203-0.004,0.336-0.007,0.443-0.013c0.119-0.01,0.205-0.025,0.303-0.057
					c0.381-0.107,0.646-0.387,0.713-0.74c0.066-0.351-0.096-0.625-0.432-0.733c-0.086-0.03-0.164-0.046-0.281-0.054
					c-0.105-0.009-0.238-0.009-0.438-0.013L296.517,52.664z"/>
			</g>
		</g>
		<g>
			<path d="M130.775,90.012h-3.123c-0.014,0-0.025-0.006-0.033-0.014c-0.006-0.01-0.01-0.023-0.01-0.035l3.582-18.848
				c0.004-0.021,0.02-0.035,0.041-0.035h3.123c0.012,0,0.025,0.006,0.033,0.016c0.006,0.01,0.01,0.021,0.008,0.035l-3.58,18.848
				C130.812,89.999,130.794,90.012,130.775,90.012z"/>
			<path d="M238.498,90.012h-1.988c-0.012,0-0.023-0.006-0.031-0.014c-0.008-0.01-0.012-0.023-0.01-0.035l1.447-7.566
				c0.07-0.443,0.094-1.055,0.061-1.484c-0.135-1.723-1.234-2.75-2.939-2.75c-1.949,0-3.773,1.838-4.242,4.277l-1.395,7.539
				c-0.004,0.02-0.021,0.033-0.041,0.033h-1.99c-0.012,0-0.023-0.006-0.031-0.014c-0.008-0.01-0.01-0.023-0.008-0.035l1.418-7.566
				c0.09-0.408,0.125-1.018,0.088-1.484c-0.133-1.697-1.268-2.75-2.965-2.75c-1.949,0-3.771,1.838-4.242,4.277l-1.42,7.539
				c-0.004,0.02-0.023,0.033-0.043,0.033h-1.988c-0.012,0-0.023-0.006-0.031-0.014c-0.008-0.01-0.012-0.023-0.008-0.035l2.514-13.35
				c0.004-0.02,0.021-0.033,0.041-0.033h1.988c0.012,0,0.023,0.006,0.031,0.016c0.008,0.008,0.012,0.021,0.01,0.033l-0.369,2.01
				c1.162-1.41,2.334-2.342,4.178-2.342c1.932,0,3.438,1.104,4.045,2.959c1.135-1.936,2.904-2.959,5.121-2.959
				c2.465,0,4.25,1.676,4.447,4.17c0.039,0.508-0.053,1.105-0.143,1.684c-0.02,0.131-0.039,0.262-0.059,0.391l-1.404,7.438
				C238.537,89.999,238.517,90.012,238.498,90.012z"/>
			<path d="M284.093,90.012h-1.988c-0.012,0-0.023-0.006-0.031-0.014c-0.008-0.01-0.012-0.023-0.01-0.035l1.42-7.566
				c0.088-0.406,0.125-1.016,0.088-1.484c-0.133-1.723-1.32-2.75-3.172-2.75c-2.092,0-3.959,1.799-4.447,4.277l-1.422,7.539
				c-0.004,0.02-0.021,0.033-0.041,0.033h-1.988c-0.014,0-0.025-0.006-0.033-0.014c-0.008-0.01-0.01-0.023-0.008-0.035l2.514-13.35
				c0.004-0.02,0.021-0.033,0.041-0.033h1.988c0.014,0,0.023,0.006,0.033,0.016c0.006,0.008,0.01,0.021,0.008,0.033l-0.369,2.01
				c0.975-1.18,2.264-2.342,4.385-2.342c2.611,0,4.428,1.637,4.629,4.17c0.039,0.523-0.018,1.203-0.176,2.074l-1.379,7.438
				C284.132,89.999,284.113,90.012,284.093,90.012z"/>
			<path d="M287.941,94.221c-1.09,0-2.047-0.297-3.014-0.938c-0.018-0.012-0.025-0.037-0.012-0.057l0.967-1.49
				c0.006-0.01,0.016-0.016,0.027-0.018c0.012-0.006,0.023,0.002,0.031,0.006c0.502,0.367,1.41,0.656,2.07,0.656
				c1.199,0,2.141-0.701,3.246-2.418l-3.471-13.33c-0.002-0.014,0-0.025,0.008-0.037c0.006-0.01,0.02-0.016,0.033-0.016h2.064
				c0.021,0,0.037,0.012,0.041,0.031l2.709,11.049l6.25-11.059c0.008-0.014,0.021-0.021,0.037-0.021h2.246
				c0.016,0,0.031,0.008,0.037,0.021c0.006,0.012,0.006,0.029,0,0.041l-8.055,13.809C291.527,93.129,290.015,94.221,287.941,94.221z
				"/>
			<path d="M195.173,90.323c-2.949,0-6.09-2.018-6.379-5.875c-0.16-2.145,0.568-4.262,2-5.812c1.371-1.486,3.291-2.338,5.266-2.338
				c3.238,0,4.885,1.969,5.578,3.145c0.012,0.018,0.006,0.043-0.012,0.057l-1.521,1.006c-0.02,0.012-0.045,0.008-0.059-0.012
				c-0.74-1.098-1.859-2.357-3.982-2.357c-1.324,0-2.629,0.607-3.578,1.664c-1.129,1.225-1.703,2.898-1.574,4.592
				c0.199,2.688,2.281,4.092,4.234,4.092c1.385,0,2.551-0.539,3.781-1.742c0.008-0.008,0.02-0.012,0.029-0.012l0,0
				c0.012,0,0.021,0.004,0.029,0.012l1.256,1.291c0.016,0.016,0.016,0.041,0,0.059C198.744,89.614,197.132,90.323,195.173,90.323z"
				/>
			<path d="M155.328,90.297c-2.551,0-4.324-1.615-4.52-4.117c-0.059-0.734,0.086-1.631,0.225-2.412l1.404-7.438
				c0.004-0.02,0.021-0.033,0.043-0.033h3.121c0.014,0,0.027,0.006,0.035,0.014c0.006,0.012,0.01,0.023,0.008,0.035l-1.445,7.566
				c-0.072,0.414-0.102,0.975-0.074,1.355c0.105,1.34,1.008,2.105,2.477,2.105c1.695,0,3.043-1.324,3.436-3.375l1.463-7.668
				c0.004-0.02,0.021-0.033,0.041-0.033h3.125c0.012,0,0.023,0.006,0.031,0.014c0.008,0.012,0.012,0.023,0.008,0.035l-2.57,13.633
				c-0.004,0.02-0.02,0.033-0.041,0.033h-3.123c-0.012,0-0.023-0.006-0.031-0.014c-0.008-0.01-0.012-0.023-0.008-0.035l0.297-1.613
				C158.353,89.28,157.126,90.297,155.328,90.297z"/>
			<path d="M120.671,90.323c-3.693,0-6.461-2.512-6.73-6.105c-0.164-2.176,0.539-4.232,1.975-5.789
				c1.416-1.535,3.418-2.416,5.492-2.416c3.139,0,4.877,1.695,5.779,3.119c0.012,0.018,0.008,0.043-0.01,0.055l-2.299,1.652
				c-0.008,0.008-0.021,0.014-0.031,0.008c-0.012-0.002-0.02-0.008-0.027-0.018c-0.73-1.049-1.656-2.021-3.467-2.021
				c-1.037,0-2.076,0.484-2.857,1.328c-0.973,1.086-1.469,2.562-1.357,4.049c0.146,1.953,1.592,3.369,3.436,3.369
				c1.23,0,2.199-0.438,3.334-1.512c0.008-0.008,0.018-0.012,0.029-0.012c0.008-0.004,0.021,0.004,0.031,0.016l1.801,2.039
				c0.016,0.018,0.016,0.041-0.002,0.059C124.664,89.221,123.195,90.323,120.671,90.323z"/>
			<path d="M103.939,90.012h-3.123c-0.012,0-0.023-0.006-0.031-0.014c-0.008-0.01-0.012-0.023-0.008-0.035l1.418-7.566
				c0.09-0.422,0.129-0.953,0.098-1.355c-0.105-1.338-1.018-2.105-2.502-2.105c-1.693,0-3.043,1.324-3.436,3.375l-1.438,7.668
				c-0.004,0.02-0.021,0.033-0.041,0.033h-3.148c-0.014,0-0.025-0.006-0.033-0.014c-0.008-0.01-0.01-0.023-0.008-0.035l2.568-13.633
				c0.004-0.02,0.021-0.033,0.041-0.033h3.125c0.012,0,0.023,0.006,0.031,0.014c0.008,0.012,0.012,0.023,0.008,0.035l-0.301,1.592
				c0.887-0.92,2.127-1.926,3.932-1.926c2.533,0,4.297,1.615,4.494,4.119c0.057,0.732-0.088,1.629-0.227,2.41l-1.379,7.438
				C103.976,89.999,103.958,90.012,103.939,90.012z"/>
			<path d="M20.271,90.012h-1.988c-0.012,0-0.023-0.006-0.031-0.014c-0.008-0.01-0.012-0.023-0.008-0.035l1.418-7.566
				c0.09-0.414,0.125-1.027,0.088-1.484c-0.135-1.723-1.322-2.75-3.174-2.75c-2.088,0-3.957,1.799-4.449,4.277l-1.42,7.539
				c-0.004,0.02-0.021,0.033-0.041,0.033H8.677c-0.014,0-0.025-0.006-0.033-0.014c-0.006-0.01-0.01-0.023-0.008-0.035l3.58-18.848
				c0.004-0.021,0.021-0.035,0.041-0.035h1.986c0.014,0,0.025,0.006,0.033,0.016s0.01,0.021,0.008,0.035l-1.43,7.506
				c0.973-1.178,2.264-2.34,4.383-2.34c2.611,0,4.428,1.637,4.625,4.17c0.043,0.529-0.014,1.189-0.174,2.074l-1.377,7.438
				C20.308,89.999,20.291,90.012,20.271,90.012z"/>
			<path d="M3.736,90.245c-2.055,0-3.357-0.998-3.484-2.672c-0.033-0.43-0.004-0.941,0.076-1.404l1.494-7.748H0.042
				c-0.014,0-0.025-0.008-0.033-0.016c-0.008-0.01-0.012-0.023-0.008-0.035l0.332-1.756c0.004-0.02,0.021-0.033,0.041-0.033h1.818
				l0.777-3.994c0.002-0.02,0.02-0.033,0.039-0.033h1.957c0.014,0,0.025,0.004,0.033,0.014c0.006,0.01,0.01,0.021,0.008,0.035
				l-0.771,3.979h4.148c0.014,0,0.025,0.006,0.033,0.016c0.008,0.008,0.01,0.021,0.008,0.035l-0.33,1.754
				c-0.004,0.02-0.021,0.035-0.043,0.035H3.89l-1.479,7.66c-0.025,0.279-0.051,0.68-0.027,0.969c0.078,1.1,1.07,1.332,1.889,1.332
				c0.604,0,1.238-0.139,1.885-0.41c0.014-0.008,0.027-0.004,0.043,0.006c0.012,0.01,0.018,0.025,0.014,0.041l-0.354,1.807
				c-0.002,0.014-0.012,0.025-0.023,0.029C5.185,90.127,4.558,90.245,3.736,90.245z"/>
			<path d="M141.654,90.323c-1.9,0-3.57-0.613-4.83-1.777c-1.217-1.121-1.965-2.715-2.105-4.484c-0.16-2.062,0.559-4.125,1.971-5.66
				c1.393-1.539,3.311-2.389,5.396-2.389c1.902,0,3.572,0.615,4.832,1.779c1.217,1.127,1.965,2.727,2.105,4.508
				c0.16,2.072-0.557,4.127-1.973,5.635C145.658,89.475,143.74,90.323,141.654,90.323z M142.117,78.807
				c-1.061,0-2.086,0.463-2.887,1.305c-0.918,0.971-1.443,2.479-1.336,3.84c0.172,2.205,1.602,3.576,3.729,3.576
				c1.098,0,2.15-0.475,2.885-1.303c0.92-0.973,1.445-2.48,1.338-3.842C145.671,80.176,144.246,78.807,142.117,78.807z"/>
			<path d="M209.427,90.323c-3.596,0-6.303-2.48-6.582-6.029c-0.164-2.07,0.559-4.125,1.975-5.635
				c1.383-1.5,3.311-2.361,5.293-2.361c3.609,0,6.326,2.467,6.605,6.002c0.158,2.035-0.561,4.098-1.971,5.66
				C213.363,89.461,211.423,90.323,209.427,90.323z M210.123,78.135c-1.355,0-2.645,0.592-3.635,1.664
				c-1.096,1.188-1.674,2.848-1.547,4.436c0.205,2.605,1.918,4.223,4.475,4.223c1.371,0,2.662-0.582,3.637-1.639
				c1.094-1.188,1.672-2.846,1.547-4.436C214.392,79.764,212.677,78.135,210.123,78.135z"/>
			<path d="M242.951,94.143h-1.988c-0.012,0-0.023-0.006-0.031-0.016c-0.008-0.008-0.012-0.021-0.01-0.035l3.301-17.479
				c0.004-0.02,0.021-0.033,0.041-0.033h1.988c0.012,0,0.023,0.006,0.031,0.016c0.008,0.008,0.012,0.021,0.008,0.035l-0.406,2.133
				c1.371-1.66,2.938-2.467,4.785-2.467c3.139,0,5.516,2.34,5.779,5.691c0.184,2.326-0.549,4.568-2.01,6.15
				c-1.295,1.408-3.023,2.184-4.867,2.184c-2.926,0-4.467-1.727-5.252-3.221l-1.326,7.008
				C242.99,94.129,242.972,94.143,242.951,94.143z M250.24,78.135c-1.395,0-2.771,0.645-3.779,1.77
				c-1.156,1.254-1.748,2.879-1.625,4.461c0.188,2.387,2.045,4.117,4.416,4.117c1.326,0,2.574-0.545,3.516-1.537
				c1.109-1.23,1.664-2.971,1.52-4.768C254.099,79.76,252.474,78.135,250.24,78.135z"/>
			<path d="M262.617,90.295c-2.059,0-4.365-1.168-4.566-3.73c-0.1-1.26,0.254-2.369,1.027-3.207
				c0.988-1.074,2.613-1.664,4.572-1.664c1.447,0,3.01,0.232,4.773,0.711l0.047-0.264c0.076-0.408,0.109-0.891,0.082-1.229
				c-0.137-1.748-1.447-2.672-3.785-2.672c-1.553,0-2.742,0.352-3.701,0.693c-0.014,0.002-0.023,0-0.033-0.002
				c-0.01-0.006-0.02-0.016-0.023-0.027l-0.463-1.65c-0.008-0.021,0.004-0.045,0.025-0.051c1.447-0.557,2.795-0.803,4.367-0.803
				c3.355,0,5.398,1.518,5.607,4.168c0.045,0.555-0.006,1.211-0.141,1.846l-1.42,7.564c-0.004,0.02-0.021,0.033-0.041,0.033h-1.936
				c-0.014,0-0.025-0.006-0.033-0.014c-0.006-0.01-0.01-0.023-0.008-0.035l0.373-1.928
				C266.095,89.536,264.507,90.295,262.617,90.295z M263.843,83.249c-1.322,0-2.371,0.379-3.033,1.098
				c-0.506,0.521-0.742,1.207-0.682,1.98c0.113,1.42,1.285,2.338,2.984,2.338c2.346,0,4.447-1.697,4.891-3.943l0.176-0.891
				C266.837,83.456,265.3,83.249,263.843,83.249z"/>
			<path d="M171.691,90.297c-1.504,0-2.904-0.559-3.943-1.574c-1.09-1.064-1.738-2.551-1.875-4.299
				c-0.188-2.379,0.525-4.572,2.008-6.178c1.309-1.42,3.117-2.234,4.967-2.234c2.084,0,3.652,0.863,4.787,2.641l1.422-7.537
				c0.004-0.021,0.021-0.035,0.041-0.035h3.125c0.014,0,0.025,0.006,0.033,0.016c0.006,0.01,0.01,0.021,0.008,0.035l-3.557,18.848
				c-0.004,0.02-0.021,0.033-0.041,0.033h-3.123c-0.014,0-0.025-0.006-0.033-0.014c-0.008-0.01-0.01-0.023-0.008-0.035l0.32-1.662
				C174.558,89.663,173.242,90.297,171.691,90.297z M173.419,78.782c-1.102,0-2.137,0.463-2.912,1.303
				c-0.959,1.043-1.439,2.545-1.314,4.125c0.156,2.016,1.521,3.318,3.477,3.318c1.145,0,2.26-0.514,3.057-1.404
				c0.99-1.076,1.494-2.516,1.381-3.945C176.953,80.176,175.435,78.782,173.419,78.782z"/>
			<path d="M62.591,94.143h-3.15c-0.012,0-0.023-0.006-0.031-0.016c-0.008-0.008-0.012-0.021-0.01-0.035l3.355-17.762
				c0.002-0.02,0.021-0.033,0.041-0.033h3.123c0.014,0,0.025,0.006,0.033,0.014c0.008,0.012,0.012,0.023,0.008,0.035l-0.32,1.666
				c1.309-1.383,2.586-2,4.131-2c3.205,0,5.543,2.361,5.82,5.873c0.186,2.377-0.529,4.57-2.008,6.178
				c-1.309,1.42-3.109,2.232-4.943,2.232c-2.07,0-3.689-0.887-4.812-2.639l-1.195,6.453C62.628,94.129,62.611,94.143,62.591,94.143z
				 M68.82,78.782c-1.152,0-2.25,0.498-3.086,1.406c-0.973,1.057-1.469,2.496-1.354,3.945c0.154,1.967,1.695,3.395,3.662,3.395
				c1.113,0,2.174-0.475,2.912-1.303c0.975-1.031,1.441-2.496,1.314-4.125C72.111,80.084,70.755,78.782,68.82,78.782z"/>
			<path d="M84.121,90.323c-1.873,0-3.49-0.559-4.674-1.617c-1.188-1.061-1.889-2.578-2.033-4.385
				c-0.168-2.162,0.598-4.393,2.051-5.971c1.389-1.508,3.297-2.338,5.371-2.338c1.684,0,3.133,0.533,4.191,1.545
				c1.004,0.957,1.596,2.266,1.715,3.787c0.078,0.967-0.051,1.975-0.367,2.908c-0.006,0.016-0.023,0.027-0.039,0.027h-9.871
				c0.188,2.133,1.592,3.402,3.766,3.402c1.229,0,2.201-0.379,3.357-1.307c0.014-0.014,0.041-0.01,0.059,0.006L89.3,88.37
				c0.012,0.016,0.012,0.043-0.006,0.059C87.871,89.702,86.177,90.323,84.121,90.323z M80.646,82.131h6.988
				c0.057-0.242,0.072-0.562,0.045-0.91c-0.125-1.607-1.199-2.568-2.875-2.568c-1.168,0-2.211,0.459-3.012,1.328
				C81.263,80.555,80.867,81.297,80.646,82.131z"/>
			<path d="M30.292,90.323c-3.561,0-6.131-2.299-6.4-5.719c-0.172-2.193,0.602-4.453,2.068-6.047c1.361-1.479,3.123-2.26,5.096-2.26
				c1.607,0,2.99,0.525,4,1.521c0.924,0.914,1.496,2.203,1.607,3.629c0.066,0.84-0.021,1.697-0.268,2.545
				c-0.004,0.018-0.02,0.029-0.039,0.029H25.939c-0.008,0.168,0.006,0.336,0.02,0.498c0.191,2.424,1.879,3.988,4.301,3.988
				c1.779,0,2.867-0.625,3.955-1.564c0.008-0.008,0.018-0.012,0.027-0.012c0.006,0.002,0.023,0.006,0.031,0.016l1.135,1.318
				c0.016,0.016,0.014,0.043-0.002,0.059C34.375,89.254,32.863,90.323,30.292,90.323z M26.091,82.442h8.514
				c0.057-0.246,0.07-0.578,0.039-0.986c-0.129-1.643-1.131-3.396-3.559-3.396c-1.346,0-2.576,0.549-3.561,1.588
				C26.849,80.377,26.353,81.344,26.091,82.442z"/>
			<path d="M51.8,90.323c-1.9,0-3.57-0.613-4.83-1.777c-1.219-1.121-1.965-2.715-2.105-4.484c-0.16-2.062,0.557-4.125,1.973-5.66
				c1.391-1.539,3.305-2.389,5.393-2.389c1.904,0,3.574,0.615,4.832,1.779c1.219,1.127,1.965,2.727,2.105,4.508
				c0.162,2.07-0.555,4.125-1.973,5.635C55.802,89.475,53.886,90.323,51.8,90.323z M52.263,78.807c-1.059,0-2.084,0.463-2.887,1.305
				c-0.918,0.969-1.443,2.477-1.338,3.84c0.174,2.205,1.604,3.576,3.73,3.576c1.098,0,2.15-0.475,2.885-1.303
				c0.92-0.971,1.443-2.479,1.338-3.842C55.818,80.176,54.39,78.807,52.263,78.807z"/>
		</g>
	</g>
</g>
</svg>
