<?xml version="1.0" encoding="utf-8"?>
<!-- Generator: Adobe Illustrator 16.0.4, SVG Export Plug-In . SVG Version: 6.00 Build 0)  -->
<!DOCTYPE svg PUBLIC "-//W3C//DTD SVG 1.1//EN" "http://www.w3.org/Graphics/SVG/1.1/DTD/svg11.dtd">
<svg version="1.1" id="Layer_1" xmlns="http://www.w3.org/2000/svg" xmlns:xlink="http://www.w3.org/1999/xlink" x="0px" y="0px"
	 width="64.752px" height="48.559px" viewBox="35.706 41.071 64.752 48.559" enable-background="new 35.706 41.071 64.752 48.559"
	 xml:space="preserve">
<path fill="none" stroke="#A1A1A1" stroke-width="0.6" stroke-miterlimit="10" d="M84.27,87.609v2.021H51.894v-2.021
	c0-2.237,1.812-4.047,4.047-4.047h8.095V45.117H51.894c0,1.269-0.597,2.387-1.515,3.13l7.047,15.502h-2.223l-6.662-14.657
	c-0.226,0.04-0.457,0.071-0.695,0.071c-0.239,0-0.471-0.031-0.695-0.071L40.489,63.75h-2.223l7.047-15.502
	c-0.917-0.743-1.514-1.862-1.514-3.13c0-2.237,1.812-4.047,4.047-4.047h40.468c2.233,0,4.047,1.81,4.047,4.047
	c0,1.27-0.596,2.387-1.514,3.13l7.047,15.502H95.67l-6.66-14.657c-0.225,0.04-0.457,0.071-0.695,0.071
	c-0.236,0-0.471-0.031-0.693-0.071L80.958,63.75h-2.224l7.048-15.502c-0.916-0.743-1.515-1.862-1.515-3.13h-12.14v38.444h8.096
	C82.456,83.562,84.27,85.372,84.27,87.609z"/>
<path fill="#3B97D3" d="M59.987,65.352h-1.832h-2.223H39.761h-2.224h-1.832c0,6.703,5.437,10.116,12.142,10.116
	C54.551,75.469,59.987,72.055,59.987,65.352z"/>
<path fill="#3B97D3" d="M96.4,65.352H80.229h-2.223h-1.832c0,6.703,5.436,10.116,12.141,10.116s12.143-3.413,12.143-10.116h-1.832
	H96.4z"/>
</svg>
