<?xml version="1.0" encoding="utf-8"?>
<!-- Generator: Adobe Illustrator 16.0.4, SVG Export Plug-In . SVG Version: 6.00 Build 0)  -->
<!DOCTYPE svg PUBLIC "-//W3C//DTD SVG 1.1//EN" "http://www.w3.org/Graphics/SVG/1.1/DTD/svg11.dtd">
<svg version="1.1" id="Layer_1" xmlns="http://www.w3.org/2000/svg" xmlns:xlink="http://www.w3.org/1999/xlink" x="0px" y="0px"
	 width="12.75px" height="35.256px" viewBox="162.253 0 12.75 35.256" enable-background="new 162.253 0 12.75 35.256"
	 xml:space="preserve">
<g>
	<path fill="#2ECC71" d="M164.292,2.381h-2.049v-0.74h4.987v0.74h-2.06v5.997h-0.879V2.381z"/>
	<path fill="#2ECC71" d="M173.659,5.419c-0.05-0.939-0.11-2.069-0.1-2.908h-0.03c-0.229,0.79-0.51,1.629-0.85,2.559l-1.189,3.268
		h-0.659l-1.09-3.208c-0.319-0.95-0.59-1.819-0.779-2.619h-0.021c-0.02,0.839-0.069,1.969-0.13,2.979l-0.18,2.888h-0.829l0.47-6.736
		h1.109l1.149,3.258c0.279,0.83,0.51,1.569,0.68,2.269h0.029c0.17-0.68,0.41-1.419,0.71-2.269l1.199-3.258h1.109l0.42,6.736h-0.85
		L173.659,5.419z"/>
</g>
</svg>
