<?xml version="1.0" encoding="utf-8"?>
<!-- Generator: Adobe Illustrator 16.0.4, SVG Export Plug-In . SVG Version: 6.00 Build 0)  -->
<!DOCTYPE svg PUBLIC "-//W3C//DTD SVG 1.1//EN" "http://www.w3.org/Graphics/SVG/1.1/DTD/svg11.dtd">
<svg version="1.1" id="Layer_1" xmlns="http://www.w3.org/2000/svg" xmlns:xlink="http://www.w3.org/1999/xlink" x="0px" y="0px"
	 width="122.67px" height="97.27px" viewBox="0 0 122.67 97.27" enable-background="new 0 0 122.67 97.27" xml:space="preserve">
<g>
	<path fill-rule="evenodd" clip-rule="evenodd" fill="#1C75BC" d="M38.51,86.13c-0.85,0.728-2.28,1.296-3.052,1.912
		c2.464,0.773,3.953,1.771,3.953,2.859c0,2.462-7.583,3.503-16.938,3.503c-9.354,0-16.938-1.041-16.938-3.503
		c0-1.089,1.488-2.086,3.953-2.859c-0.661-0.676-0.665-1.406-1.214-2.178C2.556,87.029,0,88.852,0,90.901
		c0,3.517,9.108,6.368,22.473,6.368c13.365,0,22.382-2.852,22.382-6.368C44.855,88.852,44.228,87.295,38.51,86.13z"/>
	<path display="none" fill-rule="evenodd" clip-rule="evenodd" d="M36.011,86.193c2.368-3.321,3.774-7.375,3.774-11.765
		c0-11.218-9.094-20.312-20.312-20.312c-11.218,0-20.312,9.095-20.312,20.312c0,4.39,1.407,8.443,3.774,11.765
		c4.573-0.932,10.307-1.487,16.538-1.487C25.704,84.706,31.438,85.262,36.011,86.193z"/>
	<path display="none" fill-rule="evenodd" clip-rule="evenodd" d="M4.96,88.627c3.688,3.769,8.824,6.114,14.513,6.114
		s10.825-2.346,14.512-6.114c-3.473-1.091-8.682-1.785-14.512-1.785S8.433,87.536,4.96,88.627z"/>
</g>
<linearGradient id="SVGID_1_" gradientUnits="userSpaceOnUse" x1="15.2061" y1="44.8584" x2="122.6704" y2="44.8584">
	<stop  offset="0" style="stop-color:#2484C6"/>
	<stop  offset="1" style="stop-color:#7453A2"/>
</linearGradient>
<path fill-rule="evenodd" clip-rule="evenodd" fill="url(#SVGID_1_)" d="M20.241,82.515c5.428-1.88,10.111-4.932,14.16-8.983
	c0.488-0.489,0.886-1.101,1.444-1.483c9.15-6.275,14.688-15.46,19.894-24.867c1.457-2.633,3.576-4.426,5.837-6.224
	c6.709-5.339,12.631-11.49,17.789-18.309c3.859-5.102,8.837-8.775,14.213-11.908c5.867-3.418,11.938-6.506,18.032-9.511
	c5.234-2.58,7.933-1.104,9.368,4.484c2.099,8.167,1.912,16.447,1.216,24.715c-0.442,5.25-2.238,6.614-7.479,5.95
	c-2.978-0.377-5.644,0.426-8.457,0.977c-3.151,0.617-4.256,3.307-4.678,5.404c-2.188,10.853-5.779,20.812-14.535,28.253
	c-2.561,2.176-4.17,4.842-3.145,8.512c0.875,3.127-1.471,4.214-3.705,5.332c-2.209,1.105-3.226-0.176-4.532-1.734
	c-2.503-2.988-6.192-3.678-9.766-3.396c-5.305,0.418-7.391-2.524-8.707-6.898c-1.061-3.528-2.917-4.027-5.264-0.994
	c-5.824,7.523-14.099,11.291-22.201,15.464c-3.193,1.645-6.469,2.285-9.953,2.411c-1.884,0.067-3.473-0.285-3.899-2.484
	c0.029-1.256-0.832-2.432-0.64-2.617c0.236-0.24,4.188-1.613,4.424-1.854C19.78,82.497,19.971,82.408,20.241,82.515z"/>
<path fill-rule="evenodd" clip-rule="evenodd" fill="none" stroke="#FFFFFF" stroke-miterlimit="10" d="M73.372,81.863
	c0,0-4.391-7.459-3.391-9.459s7-11.25,8-12"/>
<path display="none" fill-rule="evenodd" clip-rule="evenodd" fill="none" stroke="#FFFFFF" stroke-miterlimit="10" d="
	M60.231,57.904c0,0,6.066,6.939,16.891,3.871"/>
<path display="none" fill-rule="evenodd" clip-rule="evenodd" fill="none" stroke="#FFFFFF" stroke-miterlimit="10" d="
	M66.154,61.618c0,0-1.033,2.616-0.62,5.373c0.311,2.075,1.441,4.231,4.447,5.413"/>
<path display="none" fill-rule="evenodd" clip-rule="evenodd" fill="none" stroke="#FFFFFF" stroke-miterlimit="10" d="
	M56.598,69.472c0,0,4.187-3.077,9.065-1.893"/>
<path fill-rule="evenodd" clip-rule="evenodd" fill="none" stroke="#FFFFFF" stroke-miterlimit="10" d="M15.206,86.864
	c0,0,6.763-2.45,6.763-5.001"/>
<path fill-rule="evenodd" clip-rule="evenodd" fill="none" stroke="#FFFFFF" stroke-miterlimit="10" d="M83.148,85.864
	c0,0-5.316-5.876-9.241-3.209"/>
</svg>
