<?xml version="1.0" encoding="utf-8"?>
<!-- Generator: Adobe Illustrator 16.0.4, SVG Export Plug-In . SVG Version: 6.00 Build 0)  -->
<!DOCTYPE svg PUBLIC "-//W3C//DTD SVG 1.1//EN" "http://www.w3.org/Graphics/SVG/1.1/DTD/svg11.dtd">
<svg version="1.1" xmlns="http://www.w3.org/2000/svg" xmlns:xlink="http://www.w3.org/1999/xlink" x="0px" y="0px" width="136px"
	 height="136px" viewBox="0 0 136 136" enable-background="new 0 0 136 136" xml:space="preserve">
<g id="Layer_1" display="none">
	<path display="inline" fill="#ED1C24" d="M69.594,67.808c-0.246,0.102-0.505,0.153-0.767,0.153H58.795
		c-1.108,0-2.006-0.897-2.006-2.006s0.898-2.006,2.006-2.006h9.2l9.443-9.442c0.783-0.784,2.054-0.784,2.837,0s0.783,2.053,0,2.837
		l-10.031,10.03C70.061,67.558,69.841,67.706,69.594,67.808z"/>
	<circle fill="#595959" cx="68.081" cy="65.414" r="34.976"/>
	<path display="inline" fill="none" stroke="#323232" stroke-width="4" stroke-miterlimit="10" d="M68.081,35.125
		c-16.73,0-30.289,13.565-30.289,30.289c0,16.729,13.559,30.288,30.289,30.288c16.729,0,30.289-13.559,30.289-30.288
		C98.37,48.691,84.811,35.125,68.081,35.125z"/>
</g>
<g id="Layer_2">
	<path fill="none" stroke="#323232" stroke-width="6" stroke-miterlimit="10" d="M93.237,42.355H42.926
		c-2.315,0-4.193,1.875-4.193,4.193v37.733c0,2.314,1.878,4.192,4.193,4.192h50.311c2.315,0,4.191-1.878,4.191-4.192V46.548
		C97.429,44.23,95.553,42.355,93.237,42.355z"/>
	<rect x="42.925" y="46.548" display="none" fill="#595959" width="50.311" height="37.733"/>
	<polygon fill="#FBAD18" points="89.044,80.088 47.118,80.088 47.118,71.703 55.503,59.125 63.888,75.896 72.273,63.318 
		80.658,67.511 89.044,50.741 	"/>
</g>
</svg>
