<?xml version="1.0" encoding="utf-8"?>
<!-- Generator: Adobe Illustrator 16.0.4, SVG Export Plug-In . SVG Version: 6.00 Build 0)  -->
<!DOCTYPE svg PUBLIC "-//W3C//DTD SVG 1.1//EN" "http://www.w3.org/Graphics/SVG/1.1/DTD/svg11.dtd">
<svg version="1.1" id="Layer_1" xmlns="http://www.w3.org/2000/svg" xmlns:xlink="http://www.w3.org/1999/xlink" x="0px" y="0px"
	 width="89.245px" height="89.244px" viewBox="26.458 20.792 89.245 89.244" enable-background="new 26.458 20.792 89.245 89.244"
	 xml:space="preserve">
<path fill="#ED1C24" d="M73.457,69.245c-0.332,0.137-0.68,0.205-1.029,0.205H58.974c-1.487,0-2.689-1.203-2.689-2.689
	c0-1.487,1.203-2.69,2.689-2.69h12.338l12.664-12.665c1.051-1.051,2.754-1.051,3.807,0c1.051,1.051,1.051,2.754,0,3.805
	L74.328,68.663C74.082,68.909,73.787,69.107,73.457,69.245z"/>
<circle display="none" fill="#595959" cx="71.082" cy="65.414" r="34.976"/>
<path fill="none" stroke="#A1A1A1" stroke-miterlimit="10" d="M71.082,109.536c-24.33,0-44.124-19.793-44.124-44.121
	c0-24.329,19.793-44.123,44.124-44.123c24.328,0,44.121,19.793,44.121,44.123C115.203,89.743,95.41,109.536,71.082,109.536z
	 M71.082,28.292c-20.47,0-37.124,16.653-37.124,37.123c0,20.469,16.654,37.121,37.124,37.121c20.469,0,37.121-16.652,37.121-37.121
	C108.203,44.945,91.55,28.292,71.082,28.292z"/>
</svg>
