<?xml version="1.0" encoding="utf-8"?>
<!-- Generator: Adobe Illustrator 16.0.4, SVG Export Plug-In . SVG Version: 6.00 Build 0)  -->
<!DOCTYPE svg PUBLIC "-//W3C//DTD SVG 1.1//EN" "http://www.w3.org/Graphics/SVG/1.1/DTD/svg11.dtd">
<svg version="1.1" id="Layer_1" xmlns="http://www.w3.org/2000/svg" xmlns:xlink="http://www.w3.org/1999/xlink" x="0px" y="0px"
	 width="88.245px" height="88.243px" viewBox="26.958 21.292 88.245 88.243" enable-background="new 26.958 21.292 88.245 88.243"
	 xml:space="preserve">
<path fill="#ED1C24" d="M73.456,69.245c-0.331,0.137-0.679,0.205-1.029,0.205H58.974c-1.487,0-2.69-1.203-2.69-2.69
	c0-1.487,1.204-2.69,2.69-2.69h12.338l12.664-12.665c1.051-1.051,2.754-1.051,3.806,0c1.051,1.051,1.051,2.754,0,3.805
	L74.328,68.662C74.082,68.909,73.787,69.107,73.456,69.245z"/>
<circle display="none" fill="#595959" cx="71.081" cy="65.414" r="34.976"/>
<path fill="none" stroke="#323232" stroke-width="7" stroke-miterlimit="10" d="M71.081,24.792
	c-22.438,0-40.623,18.193-40.623,40.623c0,22.437,18.185,40.62,40.623,40.62c22.437,0,40.622-18.186,40.622-40.62
	C111.703,42.986,93.518,24.792,71.081,24.792z"/>
</svg>
