<?xml version="1.0" encoding="utf-8"?>
<!-- Generator: Adobe Illustrator 16.0.4, SVG Export Plug-In . SVG Version: 6.00 Build 0)  -->
<!DOCTYPE svg PUBLIC "-//W3C//DTD SVG 1.1//EN" "http://www.w3.org/Graphics/SVG/1.1/DTD/svg11.dtd">
<svg version="1.1" id="Layer_1" xmlns="http://www.w3.org/2000/svg" xmlns:xlink="http://www.w3.org/1999/xlink" x="0px" y="0px"
	 width="38px" height="26px" viewBox="0 0 38 26" enable-background="new 0 0 38 26" xml:space="preserve">
<path fill="#FFFFFF" d="M28,0C28,0,1.254,19.775,1.002,20.008L1,20.01l0,0C0.367,20.597,0,21.275,0,22c0,2.209,3.357,4,7.5,4
	c3.41,0,6.283-1.215,7.195-2.877L28,0z M12.957,22.695c0,0.988-1.934,2.367-5.541,2.304c-3.607-0.062-5.457-1.458-5.457-2.495
	S3.891,20.137,7.5,20.2C11.107,20.264,12.957,21.708,12.957,22.695z M11,0c0,0,2.979,2.129,6.93,4.959
	c-0.85,0.63-1.668,1.234-2.441,1.807C12.984,2.992,11,0,11,0z M37.383,19.02h0.002H37.383c-0.184-0.211-6.373-4.676-12.711-9.227
	l-3.33,5.787c2.365,3.555,4.215,6.333,4.275,6.402L25.629,22l0.004-0.001C26.676,23.182,28.908,24,31.5,24c3.59,0,6.5-1.566,6.5-3.5
	C38,19.971,37.775,19.471,37.383,19.02z M36.088,21.047c0,0.547-1.51,1.898-4.4,2.049c-2.889,0.152-4.588-0.971-4.588-1.545
	c0-0.575,1.51-1.898,4.4-2.05C34.389,19.35,36.088,20.5,36.088,21.047z"/>
</svg>
