<?xml version="1.0" encoding="utf-8"?>
<!-- Generator: Adobe Illustrator 16.0.4, SVG Export Plug-In . SVG Version: 6.00 Build 0)  -->
<!DOCTYPE svg PUBLIC "-//W3C//DTD SVG 1.1//EN" "http://www.w3.org/Graphics/SVG/1.1/DTD/svg11.dtd">
<svg version="1.1" id="Layer_1" xmlns="http://www.w3.org/2000/svg" xmlns:xlink="http://www.w3.org/1999/xlink" x="0px" y="0px"
	 width="50px" height="50px" viewBox="0 0 50 50" enable-background="new 0 0 50 50" xml:space="preserve">
<circle fill="#D34836" cx="25.617" cy="24.762" r="21.393"/>
<path id="Facebook_3_" display="none" fill="#FFFFFF" d="M21.867,16.092c0,0.713,0,3.897,0,3.897h-2.854v4.765h2.854v14.162h5.864
	V24.753h3.938c0,0,0.367-2.285,0.547-4.783c-0.512,0-4.461,0-4.461,0s0-2.772,0-3.258c0-0.487,0.639-1.142,1.271-1.142
	c0.631,0,1.963,0,3.194,0c0-0.649,0-2.891,0-4.961c-1.646,0-3.52,0-4.346,0C21.724,10.61,21.867,15.379,21.867,16.092z"/>
<path id="Twitter_2_" display="none" fill="#FFFFFF" d="M32.014,31.226h-6.381c-0.888,0-1.642-0.31-2.261-0.935
	c-0.624-0.623-0.932-1.377-0.932-2.269v-2.271h9.093c0.818,0,1.525-0.295,2.113-0.88c0.584-0.591,0.879-1.295,0.879-2.117
	c0-0.824-0.295-1.529-0.881-2.116c-0.591-0.587-1.297-0.882-2.121-0.882H22.44v-4.69c0-0.889-0.315-1.648-0.945-2.282
	c-0.625-0.634-1.382-0.952-2.262-0.952c-0.904,0-1.674,0.313-2.299,0.934c-0.629,0.622-0.943,1.389-0.943,2.302v12.956
	c0,2.664,0.943,4.941,2.828,6.83c1.887,1.895,4.161,2.839,6.818,2.839h6.379c0.887,0,1.646-0.319,2.278-0.953
	c0.633-0.632,0.949-1.392,0.949-2.279c0-0.887-0.316-1.647-0.949-2.282C33.661,31.545,32.898,31.226,32.014,31.226z"/>
<path id="Twitter__x28_alt_x29__2_" display="none" fill="#FFFFFF" d="M39.293,23.412c1.986-0.164,3.334-1.066,3.852-2.292
	c-0.716,0.44-2.939,0.92-4.168,0.462c-0.062-0.289-0.127-0.563-0.193-0.811c-0.936-3.437-4.141-6.205-7.498-5.871
	c0.271-0.11,0.547-0.211,0.821-0.303c0.37-0.133,2.538-0.486,2.196-1.251c-0.287-0.673-2.937,0.509-3.436,0.664
	c0.659-0.248,1.748-0.673,1.864-1.43c-1.01,0.138-1.999,0.615-2.765,1.309c0.277-0.297,0.487-0.66,0.531-1.05
	c-2.691,1.719-4.264,5.185-5.536,8.546c-0.999-0.968-1.884-1.73-2.678-2.154c-2.229-1.195-4.893-2.441-9.074-3.994
	c-0.128,1.384,0.685,3.224,3.025,4.447c-0.507-0.068-1.435,0.084-2.177,0.262c0.303,1.585,1.289,2.891,3.961,3.522
	c-1.221,0.08-1.852,0.358-2.424,0.957c0.556,1.102,1.912,2.4,4.354,2.133c-2.713,1.171-1.105,3.336,1.102,3.013
	c-3.767,3.892-9.706,3.606-13.116,0.352c8.905,12.134,28.262,7.176,31.145-4.512c2.162,0.019,3.434-0.749,4.221-1.594
	C42.056,24.029,40.25,23.811,39.293,23.412z"/>
<path id="Google_3_" fill="#FFFFFF" d="M30.745,10h-7.806c-2.046,0-4.623,0.302-6.782,2.08c-1.631,1.402-2.425,3.331-2.425,5.073
	c0,2.953,2.274,5.944,6.291,5.944c0.378,0,0.793-0.038,1.214-0.075c-0.19,0.453-0.381,0.831-0.381,1.476
	c0,1.175,0.607,1.892,1.137,2.574c-1.703,0.112-4.887,0.302-7.238,1.739c-2.236,1.328-2.919,3.257-2.919,4.62
	c0,2.801,2.654,5.415,8.149,5.415c6.519,0,9.967-3.596,9.967-7.157c0-2.609-1.516-3.898-3.182-5.3l-1.366-1.059
	c-0.414-0.342-0.983-0.794-0.983-1.628c0-0.832,0.569-1.363,1.059-1.855c1.592-1.249,3.185-2.574,3.185-5.375
	c0-2.878-1.821-4.393-2.692-5.111h2.352L30.745,10z M27.413,33.167c0,2.348-1.935,4.088-5.572,4.088
	c-4.054,0-6.669-1.931-6.669-4.618c0-2.688,2.426-3.595,3.259-3.898c1.592-0.53,3.638-0.605,3.979-0.605
	c0.379,0,0.569,0,0.873,0.036C26.162,30.214,27.413,31.236,27.413,33.167z M24.38,20.978c-0.606,0.604-1.631,1.059-2.579,1.059
	c-3.257,0-4.735-4.203-4.735-6.738c0-0.985,0.19-2.006,0.833-2.801c0.607-0.757,1.667-1.25,2.653-1.25
	c3.145,0,4.775,4.24,4.775,6.964C25.328,18.895,25.252,20.106,24.38,20.978z"/>
<polygon fill="#FFFFFF" points="39.625,24.259 35.282,24.259 35.282,19.917 34.301,19.917 34.301,24.259 29.958,24.259 
	29.958,25.24 34.301,25.24 34.301,29.583 35.282,29.583 35.282,25.24 39.625,25.24 "/>
</svg>
