<?xml version="1.0" encoding="utf-8"?>
<!-- Generator: Adobe Illustrator 16.0.4, SVG Export Plug-In . SVG Version: 6.00 Build 0)  -->
<!DOCTYPE svg PUBLIC "-//W3C//DTD SVG 1.1//EN" "http://www.w3.org/Graphics/SVG/1.1/DTD/svg11.dtd">
<svg version="1.1" id="Layer_1" xmlns="http://www.w3.org/2000/svg" xmlns:xlink="http://www.w3.org/1999/xlink" x="0px" y="0px"
	 width="177.006px" height="35.256px" viewBox="0 0 177.006 35.256" enable-background="new 0 0 177.006 35.256"
	 xml:space="preserve">
<g>
	<path fill="#323232" d="M4.16,0v24.856c0,1.11,0.214,2.08,0.645,2.912c0.431,0.832,0.981,1.526,1.653,2.08
		c0.671,0.555,1.437,0.962,2.298,1.222c0.86,0.26,1.704,0.39,2.53,0.39c0.93,0,1.85-0.138,2.763-0.416
		c0.912-0.277,1.729-0.693,2.453-1.248c0.723-0.554,1.308-1.239,1.756-2.054c0.447-0.814,0.671-1.776,0.671-2.886V0h4.16v24.232
		c0,1.803-0.347,3.389-1.04,4.758c-0.694,1.37-1.604,2.522-2.73,3.458c-1.127,0.936-2.392,1.638-3.796,2.106
		c-1.404,0.468-2.817,0.702-4.238,0.702c-1.318,0-2.652-0.234-4.004-0.702c-1.352-0.468-2.566-1.17-3.64-2.106
		c-1.075-0.936-1.95-2.088-2.626-3.458C0.338,27.621,0,26.035,0,24.232V0H4.16z"/>
	<path fill="#323232" d="M29.016,26.52c0,0.824,0.155,1.562,0.466,2.214c0.31,0.652,0.733,1.193,1.268,1.622
		c0.535,0.429,1.147,0.764,1.838,1.004c0.69,0.241,1.416,0.36,2.175,0.36c0.621,0,1.294-0.077,2.019-0.233
		c0.725-0.156,1.398-0.398,2.02-0.727c0.621-0.328,1.139-0.752,1.553-1.271c0.415-0.519,0.622-1.159,0.622-1.92
		c0-0.553-0.165-1.081-0.494-1.582c-0.33-0.501-0.771-0.959-1.326-1.375c-0.555-0.416-1.196-0.805-1.924-1.168
		c-0.728-0.363-1.491-0.7-2.288-1.012c-1.075-0.415-2.141-0.855-3.198-1.323c-1.058-0.466-2.002-1.002-2.834-1.609
		c-0.832-0.605-1.508-1.306-2.028-2.101s-0.78-1.747-0.78-2.854c0-1.245,0.242-2.283,0.728-3.113
		c0.485-0.831,1.126-1.496,1.924-1.998c0.797-0.501,1.716-0.864,2.756-1.089c1.04-0.225,2.114-0.337,3.224-0.337
		c1.317,0,2.53,0.148,3.64,0.442c1.109,0.295,2.071,0.737,2.886,1.326c0.814,0.59,1.447,1.326,1.898,2.21
		c0.45,0.884,0.676,1.933,0.676,3.146l-3.692-0.052c0-0.693-0.148-1.282-0.442-1.768c-0.295-0.485-0.694-0.884-1.196-1.196
		c-0.503-0.312-1.084-0.546-1.742-0.702c-0.659-0.156-1.335-0.234-2.028-0.234c-1.456,0-2.644,0.347-3.562,1.04
		c-0.919,0.694-1.378,1.456-1.378,2.288c0,0.624,0.174,1.17,0.521,1.638c0.348,0.468,0.799,0.884,1.357,1.248
		c0.557,0.364,1.191,0.694,1.904,0.988c0.713,0.295,1.453,0.616,2.218,0.962c1.008,0.451,2.034,0.893,3.079,1.326
		c1.043,0.434,2,0.936,2.87,1.508c0.869,0.572,1.574,1.257,2.113,2.054c0.54,0.798,0.809,1.786,0.809,2.964
		c0,1.387-0.27,2.566-0.808,3.536c-0.539,0.971-1.26,1.768-2.164,2.392c-0.903,0.624-1.955,1.075-3.154,1.352
		c-1.199,0.277-2.459,0.416-3.781,0.416c-1.286,0-2.502-0.174-3.649-0.52c-1.147-0.346-2.147-0.875-2.999-1.586
		c-0.852-0.71-1.53-1.586-2.034-2.626c-0.503-1.04-0.755-2.253-0.755-3.64H29.016z"/>
	<path fill="#323232" d="M67.392,26.364c-0.347,1.214-0.832,2.34-1.456,3.38s-1.378,1.942-2.262,2.704
		c-0.884,0.763-1.898,1.361-3.042,1.794s-2.392,0.65-3.744,0.65c-1.803,0-3.398-0.373-4.784-1.118
		c-1.387-0.745-2.548-1.733-3.484-2.964s-1.647-2.643-2.132-4.238c-0.486-1.594-0.728-3.258-0.728-4.992
		c0-1.733,0.242-3.414,0.728-5.044c0.485-1.629,1.196-3.068,2.132-4.316s2.097-2.253,3.484-3.016
		c1.386-0.762,2.981-1.144,4.784-1.144c1.802,0,3.397,0.382,4.784,1.144c1.386,0.763,2.548,1.768,3.484,3.016
		s1.646,2.687,2.132,4.316c0.485,1.63,0.728,3.311,0.728,5.044v0.676H49.452c0.069,1.311,0.294,2.543,0.676,3.698
		c0.381,1.155,0.892,2.155,1.534,3c0.641,0.845,1.404,1.517,2.288,2.017c0.884,0.5,1.863,0.75,2.938,0.75
		c1.56,0,2.929-0.489,4.108-1.467c1.178-0.978,2.062-2.275,2.652-3.889H67.392z M64.063,19.084c-0.208-1.095-0.52-2.121-0.936-3.079
		c-0.416-0.958-0.928-1.788-1.534-2.49c-0.607-0.701-1.309-1.257-2.106-1.668c-0.798-0.41-1.664-0.616-2.6-0.616
		s-1.803,0.206-2.6,0.616c-0.798,0.411-1.508,0.967-2.132,1.668c-0.624,0.702-1.153,1.532-1.586,2.49
		c-0.434,0.958-0.737,1.984-0.91,3.079H64.063z"/>
	<path fill="#323232" d="M69.835,8.58h3.692v3.224h0.104c0.658-1.178,1.464-2.088,2.418-2.73c0.953-0.641,2.158-0.962,3.614-0.962
		c0.693,0,1.334,0.156,1.924,0.468v3.692c-0.485-0.138-0.85-0.225-1.092-0.26c-0.243-0.034-0.503-0.052-0.779-0.052
		c-0.902,0-1.734,0.156-2.497,0.468c-0.763,0.312-1.413,0.737-1.95,1.274c-0.538,0.538-0.962,1.162-1.274,1.872
		c-0.312,0.711-0.468,1.465-0.468,2.262v16.588h-3.692V8.58z"/>
	<path fill="#2ECC71" d="M82.212,0h12.636c1.074,0,2.114,0.243,3.12,0.728c1.005,0.486,1.889,1.118,2.652,1.898
		c0.762,0.78,1.369,1.664,1.819,2.652s0.677,1.985,0.677,2.99c0,0.832-0.078,1.646-0.234,2.444
		c-0.156,0.798-0.408,1.552-0.754,2.262c-0.347,0.711-0.772,1.335-1.274,1.872c-0.503,0.538-1.101,0.962-1.794,1.274
		c0.971,0.243,1.803,0.659,2.496,1.248c0.693,0.59,1.274,1.274,1.742,2.054c0.468,0.78,0.814,1.63,1.04,2.548
		c0.225,0.919,0.338,1.829,0.338,2.73c0,1.11-0.234,2.245-0.702,3.406c-0.468,1.162-1.101,2.21-1.897,3.146
		c-0.798,0.936-1.726,1.699-2.782,2.288c-1.058,0.59-2.176,0.884-3.354,0.884H82.212V0z M86.372,14.56h7.664
		c0.656,0,1.295-0.182,1.917-0.546c0.62-0.364,1.164-0.823,1.63-1.378c0.467-0.554,0.838-1.17,1.114-1.846
		c0.276-0.676,0.414-1.326,0.414-1.95c0-0.52-0.104-1.083-0.311-1.69c-0.207-0.606-0.526-1.161-0.958-1.664
		c-0.432-0.502-0.967-0.927-1.605-1.274c-0.639-0.346-1.372-0.52-2.201-0.52h-7.664V14.56z M86.372,30.732h8.082
		c0.726,0,1.451-0.173,2.177-0.52c0.725-0.346,1.372-0.806,1.942-1.378c0.569-0.572,1.036-1.23,1.398-1.976
		c0.362-0.745,0.544-1.516,0.544-2.314c0-0.728-0.138-1.482-0.414-2.262c-0.276-0.78-0.674-1.482-1.192-2.106
		s-1.147-1.135-1.891-1.534c-0.742-0.398-1.58-0.598-2.513-0.598h-8.134V30.732z"/>
	<path fill="#2ECC71" d="M106.963,16.224c0-1.248,0.286-2.374,0.858-3.38c0.572-1.005,1.317-1.863,2.236-2.574
		c0.918-0.71,1.94-1.248,3.067-1.612c1.126-0.364,2.263-0.546,3.406-0.546c1.213,0,2.4,0.174,3.562,0.52
		c1.16,0.347,2.191,0.867,3.094,1.56c0.9,0.694,1.629,1.543,2.184,2.548c0.555,1.006,0.832,2.167,0.832,3.484v13.312
		c0,0.416,0.156,0.824,0.468,1.222c0.312,0.399,0.677,0.598,1.093,0.598c0.242,0,0.468-0.052,0.676-0.156s0.45-0.225,0.728-0.364
		v3.536c-0.45,0.138-0.884,0.26-1.3,0.364s-0.971,0.156-1.664,0.156c-2.219,0-3.328-1.404-3.328-4.212
		c-1.179,1.456-2.608,2.522-4.29,3.198c-1.682,0.676-3.354,1.014-5.018,1.014c-1.006,0-1.959-0.182-2.86-0.546
		c-0.901-0.364-1.708-0.875-2.418-1.534c-0.711-0.658-1.273-1.412-1.689-2.262c-0.416-0.849-0.624-1.776-0.624-2.782
		c0-1.594,0.407-2.903,1.222-3.926c0.814-1.022,1.837-1.872,3.068-2.548c1.229-0.676,2.556-1.213,3.978-1.612
		c1.421-0.398,2.747-0.762,3.979-1.092c1.229-0.329,2.253-0.667,3.067-1.014c0.814-0.346,1.223-0.797,1.223-1.352
		c0-0.658-0.122-1.3-0.364-1.924c-0.243-0.624-0.607-1.17-1.092-1.638c-0.486-0.468-1.102-0.84-1.847-1.118
		c-0.745-0.277-1.638-0.416-2.678-0.416c-0.763,0-1.5,0.13-2.21,0.39c-0.711,0.26-1.335,0.616-1.872,1.066
		c-0.538,0.451-0.971,0.988-1.3,1.612c-0.33,0.624-0.494,1.3-0.494,2.028H106.963z M122.512,20.332
		c-0.937,0.416-2.124,0.806-3.562,1.17c-1.438,0.364-2.834,0.798-4.186,1.3c-1.353,0.503-2.515,1.136-3.484,1.898
		c-0.971,0.763-1.456,1.751-1.456,2.964c0,1.318,0.485,2.34,1.456,3.068c0.97,0.728,2.114,1.092,3.432,1.092
		c0.693,0,1.438-0.104,2.236-0.312c0.797-0.208,1.56-0.52,2.288-0.936c0.728-0.416,1.378-0.936,1.95-1.56
		c0.571-0.624,1.014-1.352,1.326-2.184V20.332z"/>
	<path fill="#2ECC71" d="M134.055,0v34.424h-3.692V0H134.055z"/>
	<path fill="#2ECC71" d="M140.814,0v34.424h-3.692V0H140.814z"/>
	<path fill="#2ECC71" d="M153.866,34.892c-1.803,0-3.397-0.373-4.784-1.118s-2.548-1.733-3.483-2.964
		c-0.937-1.23-1.647-2.643-2.133-4.238c-0.485-1.594-0.728-3.258-0.728-4.992c0-1.733,0.242-3.414,0.728-5.044
		c0.485-1.629,1.196-3.068,2.133-4.316c0.936-1.248,2.097-2.253,3.483-3.016c1.387-0.762,2.981-1.144,4.784-1.144
		c1.802,0,3.397,0.382,4.784,1.144c1.386,0.763,2.548,1.768,3.483,3.016c0.937,1.248,1.646,2.687,2.133,4.316
		c0.484,1.63,0.728,3.311,0.728,5.044c0,1.734-0.243,3.398-0.728,4.992c-0.486,1.595-1.196,3.008-2.133,4.238
		c-0.936,1.23-2.098,2.219-3.483,2.964C157.264,34.519,155.668,34.892,153.866,34.892z M153.866,31.72
		c1.109,0,2.123-0.267,3.042-0.802c0.918-0.535,1.698-1.268,2.34-2.199s1.145-2.009,1.508-3.234
		c0.364-1.224,0.546-2.527,0.546-3.906c0-1.38-0.182-2.69-0.546-3.932c-0.363-1.242-0.866-2.336-1.508-3.285
		c-0.642-0.949-1.422-1.708-2.34-2.276c-0.919-0.569-1.933-0.854-3.042-0.854c-1.11,0-2.124,0.285-3.042,0.854
		c-0.919,0.568-1.699,1.328-2.34,2.276c-0.642,0.949-1.145,2.043-1.508,3.285c-0.364,1.241-0.546,2.552-0.546,3.932
		c0,1.379,0.182,2.682,0.546,3.906c0.363,1.225,0.866,2.303,1.508,3.234c0.641,0.931,1.421,1.664,2.34,2.199
		C151.742,31.453,152.756,31.72,153.866,31.72z"/>
	<path fill="#2ECC71" d="M172.326,1.456V8.58h4.107v3.172h-4.107V28.86c0,1.075,0.329,1.829,0.987,2.262
		c0.658,0.434,1.438,0.65,2.341,0.65c0.173,0,0.363-0.008,0.571-0.026c0.208-0.017,0.469-0.112,0.78-0.286v3.016
		c-0.451,0.104-0.954,0.199-1.508,0.286c-0.555,0.086-1.145,0.13-1.769,0.13c-0.693,0-1.344-0.087-1.949-0.26
		c-0.607-0.174-1.145-0.45-1.612-0.832c-0.468-0.381-0.841-0.884-1.118-1.508s-0.416-1.386-0.416-2.288V11.752h-3.744V8.58h3.744
		V1.456H172.326z"/>
</g>
</svg>
