<?xml version="1.0" encoding="utf-8"?>
<!-- Generator: Adobe Illustrator 16.0.4, SVG Export Plug-In . SVG Version: 6.00 Build 0)  -->
<!DOCTYPE svg PUBLIC "-//W3C//DTD SVG 1.1//EN" "http://www.w3.org/Graphics/SVG/1.1/DTD/svg11.dtd">
<svg version="1.1" id="Layer_1" xmlns="http://www.w3.org/2000/svg" xmlns:xlink="http://www.w3.org/1999/xlink" x="0px" y="0px"
	 width="114.579px" height="100.795px" viewBox="40.373 0 114.579 100.795" enable-background="new 40.373 0 114.579 100.795"
	 xml:space="preserve">
<linearGradient id="SVGID_1_" gradientUnits="userSpaceOnUse" x1="97.6631" y1="0" x2="97.6631" y2="100.7959">
	<stop  offset="0" style="stop-color:#08BF00"/>
	<stop  offset="1" style="stop-color:#00D7FF"/>
</linearGradient>
<path fill="url(#SVGID_1_)" d="M154.952,100.793v-7.267c0-0.056-0.014-0.11-0.016-0.166c-0.322-15.062-12.625-27.174-27.763-27.174
	h-6.389l-3.294-6.474l-7.35,2.361c1.229-1.258,2.375-2.688,3.44-4.263c3-4.438,4.5-10.062,6.062-15
	c0.59-1.863,1.728-1.697,1.728-3.836c0-2.909,0.473-11.495,0.207-14.226c-0.038-0.387-1.579-0.51-1.623-0.892
	c-0.052-0.454,0.56-1.787,0.498-2.233c-0.907-6.556-0.274-10.252-3.979-14.375C112.332,2.637,104.24,0,98.558,0
	c-2.953,0-5.891,0.394-8.612,1.422c-0.699,0.264-0.552,1.351-1.219,1.703c-0.646,0.341-2.107-0.057-2.718,0.374
	c-1.011,0.713-1.968,1.554-2.857,2.541c-3.799,4.211-5.684,8.367-6.698,15.003c-0.102,0.666,0.94,2.329,0.859,2.541
	c-0.113,0.294-1.758,0.989-1.899,1.626c-0.48,2.168-0.282,11.617-0.282,13.875c0,1.907,1.201,1.538,1.593,3.29
	c1.75,7.812,2.02,10.137,5.481,15.625c1.008,1.599,2.171,3.023,3.449,4.265l-8.741-2.55l-3.246,6.473H68.15
	c-15.138,0-27.439,12.111-27.762,27.174c-0.002,0.057-0.015,0.11-0.015,0.166v7.268h114.579V100.793z"/>
<text transform="matrix(1 0 0 1 82.9619 50.3979)" fill="#FFFFFF" font-family="'Helvetica-Bold'" font-size="50">?</text>
</svg>
