<?xml version="1.0" encoding="utf-8"?>
<!-- Generator: Adobe Illustrator 16.0.4, SVG Export Plug-In . SVG Version: 6.00 Build 0)  -->
<!DOCTYPE svg PUBLIC "-//W3C//DTD SVG 1.1//EN" "http://www.w3.org/Graphics/SVG/1.1/DTD/svg11.dtd">
<svg version="1.1" id="Layer_1" xmlns="http://www.w3.org/2000/svg" xmlns:xlink="http://www.w3.org/1999/xlink" x="0px" y="0px"
	 width="1367px" height="272px" viewBox="0 0 1367 272" enable-background="new 0 0 1367 272" xml:space="preserve">
<g>
	<path fill="#323232" d="M113.325,118.941h16.5v142.45h-16.5v-19.8c-2.2,2.569-4.675,5.226-7.425,7.976s-5.913,5.271-9.487,7.562
		c-3.575,2.295-7.748,4.221-12.513,5.773c-4.77,1.558-10.27,2.339-16.5,2.339c-9.535,0-17.51-1.332-23.925-3.987
		c-6.419-2.654-11.597-6.368-15.538-11.138c-3.944-4.767-6.785-10.312-8.525-16.64c-1.745-6.324-2.613-13.242-2.613-20.762V118.94
		h16.5v93.5c0,12.285,2.84,21.684,8.525,28.188c5.68,6.511,15.03,9.763,28.05,9.763c6.78,0,12.878-1.328,18.288-3.986
		c5.405-2.654,9.943-6.367,13.612-11.139c3.666-4.765,6.505-10.449,8.525-17.05c2.016-6.6,3.025-13.84,3.025-21.725L113.325,118.941
		L113.325,118.941z"/>
	<path fill="#323232" d="M179.325,216.842c2.565,12.285,7.193,20.947,13.888,25.987c6.69,5.045,16.268,7.562,28.737,7.562
		c6.05,0,11.275-0.729,15.675-2.199c4.4-1.465,8.018-3.438,10.862-5.912c2.84-2.477,4.993-5.27,6.462-8.389
		c1.465-3.115,2.2-6.414,2.2-9.897c0-6.968-2.247-12.146-6.737-15.538c-4.495-3.391-10.132-6.051-16.913-7.977
		c-6.785-1.924-14.12-3.574-22-4.949c-7.885-1.375-15.22-3.438-22-6.188c-6.785-2.75-12.422-6.689-16.913-11.824
		c-4.495-5.131-6.737-12.375-6.737-21.727c0-11.914,4.353-21.677,13.062-29.287c8.705-7.605,21.037-11.412,36.987-11.412
		c15.4,0,27.913,3.438,37.538,10.312s15.443,18.382,17.462,34.512h-16.775c-1.47-11-5.638-18.742-12.513-23.236
		c-6.875-4.491-15.538-6.739-25.987-6.739c-10.45,0-18.425,2.248-23.925,6.739c-5.5,4.494-8.25,10.406-8.25,17.736
		c0,6.42,2.243,11.32,6.738,14.713c4.49,3.396,10.127,6.146,16.913,8.25c6.78,2.107,14.115,3.988,22,5.639
		c7.88,1.648,15.215,3.986,22,7.014c6.78,3.025,12.418,7.105,16.912,12.236c4.49,5.135,6.738,12.283,6.738,21.449
		c0,6.785-1.47,12.787-4.4,18.014c-2.935,5.226-6.97,9.582-12.1,13.062c-5.135,3.483-11.232,6.099-18.288,7.837
		c-7.06,1.74-14.807,2.612-23.237,2.612c-8.435,0-15.907-1.237-22.413-3.714c-6.51-2.476-12.057-5.911-16.638-10.312
		c-4.584-4.399-8.16-9.53-10.725-15.399c-2.569-5.864-4.035-12.188-4.4-18.976L179.325,216.842L179.325,216.842z"/>
	<path fill="#323232" d="M317.375,194.018c0,7.699,1.005,14.986,3.025,21.861c2.015,6.875,4.992,12.835,8.938,17.875
		c3.94,5.045,8.938,9.075,14.987,12.102c6.05,3.023,13.015,4.537,20.899,4.537c10.816,0,20.076-2.841,27.775-8.524
		c7.699-5.681,12.83-13.749,15.4-24.2h18.424c-2.021,6.785-4.674,13.062-7.977,18.838c-3.299,5.774-7.424,10.819-12.375,15.125
		c-4.947,4.311-10.817,7.657-17.6,10.038c-6.785,2.38-14.67,3.574-23.65,3.574c-11.369,0-21.175-1.927-29.425-5.774
		c-8.25-3.851-15.035-9.117-20.35-15.812c-5.319-6.69-9.261-14.575-11.825-23.65c-2.57-9.073-3.85-18.838-3.85-29.286
		c0-10.449,1.513-20.257,4.538-29.427c3.025-9.164,7.331-17.188,12.925-24.062c5.59-6.875,12.418-12.279,20.487-16.226
		c8.065-3.94,17.23-5.912,27.5-5.912c19.615,0,35.017,6.737,46.201,20.212c11.18,13.475,16.68,33.046,16.5,58.71H317.375
		L317.375,194.018z M410.324,180.268c0-6.967-0.961-13.52-2.887-19.664c-1.928-6.14-4.771-11.455-8.525-15.949
		c-3.76-4.488-8.482-8.063-14.162-10.723c-5.686-2.656-12.195-3.988-19.525-3.988c-7.334,0-13.797,1.375-19.387,4.125
		c-5.595,2.75-10.359,6.418-14.3,11c-3.945,4.586-7.107,9.899-9.488,15.951c-2.385,6.049-3.943,12.469-4.675,19.25h92.949V180.268z"
		/>
	<path fill="#323232" d="M477.425,261.393h-16.5V118.942h16.5v26.676h0.55c4.581-11.366,10.493-19.293,17.737-23.788
		c7.24-4.49,16.818-6.737,28.738-6.737v17.875c-9.353-0.181-17.051,1.285-23.103,4.4c-6.05,3.118-10.86,7.334-14.438,12.649
		c-3.575,5.317-6.05,11.596-7.425,18.836c-1.375,7.246-2.062,14.809-2.062,22.688L477.425,261.393L477.425,261.393z"/>
	<path fill="#323232" d="M570.098,261.393h-16.5v-198h16.5v78.375c5.315-8.801,12.604-15.442,21.863-19.938
		c9.255-4.49,18.928-6.737,29.012-6.737c10.815,0,20.213,2.062,28.188,6.188c7.976,4.125,14.575,9.625,19.801,16.5
		c5.227,6.875,9.117,14.896,11.688,24.062c2.562,9.171,3.85,18.699,3.85,28.601c0,10.451-1.194,20.261-3.575,29.427
		c-2.385,9.169-6.188,17.097-11.412,23.786c-5.226,6.695-11.872,11.963-19.938,15.812c-8.069,3.851-17.875,5.774-29.425,5.774
		c-4.585,0-9.262-0.646-14.025-1.926c-4.77-1.283-9.396-3.114-13.888-5.5c-4.494-2.381-8.619-5.361-12.375-8.938
		c-3.762-3.574-6.832-7.742-9.212-12.513h-0.553V261.393L570.098,261.393z M570.098,189.617c0,8.619,1.055,16.637,3.163,24.062
		c2.105,7.424,5.18,13.844,9.212,19.25c4.031,5.407,9.075,9.672,15.125,12.785c6.053,3.119,12.928,4.676,20.625,4.676
		c6.968,0,13.381-1.236,19.25-3.714c5.865-2.475,11-6.093,15.4-10.86s7.838-10.588,10.312-17.463
		c2.474-6.875,3.713-14.805,3.713-23.787c0.363-8.98-0.37-17.367-2.2-25.162c-1.835-7.791-4.771-14.618-8.8-20.488
		c-4.035-5.865-9.213-10.492-15.538-13.887c-6.325-3.391-13.707-5.088-22.14-5.088c-7.52,0-14.257,1.607-20.212,4.812
		c-5.96,3.21-11,7.521-15.125,12.927c-4.125,5.408-7.288,11.733-9.485,18.976C571.198,173.898,570.098,181.551,570.098,189.617z"/>
	<path fill="#323232" d="M785.146,178.342c3.113-0.365,6.826-0.916,11.138-1.65c4.306-0.729,7.837-1.738,10.587-3.023
		c2.75-1.277,4.443-3.438,5.088-6.462c0.641-3.022,0.963-5.815,0.963-8.39c0-8.43-2.707-15.353-8.113-20.762
		c-5.407-5.406-14.529-8.113-27.36-8.113c-5.687,0-10.909,0.507-15.675,1.513c-4.771,1.01-8.938,2.75-12.515,5.225
		s-6.51,5.775-8.8,9.9c-2.295,4.125-3.807,9.309-4.537,15.538h-16.773c0.55-8.433,2.475-15.63,5.773-21.589
		c3.3-5.955,7.562-10.814,12.787-14.574c5.225-3.755,11.275-6.505,18.15-8.25c6.875-1.74,14.162-2.612,21.86-2.612
		c7.149,0,13.89,0.782,20.212,2.337c6.325,1.56,11.825,4.035,16.5,7.425c4.678,3.395,8.343,7.932,11,13.613
		c2.656,5.685,3.988,12.65,3.988,20.9v77.55c0,6.419,1.145,10.497,3.438,12.236c2.29,1.744,6.918,1.332,13.887-1.236v12.925
		c-1.284,0.369-3.162,0.915-5.637,1.649c-2.478,0.73-4.907,1.101-7.288,1.101c-2.569,0-5.044-0.274-7.426-0.825
		c-2.75-0.369-4.949-1.235-6.601-2.61c-1.649-1.375-2.981-3.025-3.988-4.95c-1.01-1.925-1.695-4.03-2.062-6.325
		c-0.369-2.29-0.55-4.718-0.55-7.287c-6.971,7.7-14.944,13.569-23.925,17.601c-8.984,4.031-18.7,6.051-29.15,6.051
		c-6.234,0-12.237-0.824-18.012-2.475c-5.775-1.65-10.863-4.217-15.265-7.701c-4.398-3.479-7.885-7.742-10.448-12.787
		c-2.569-5.039-3.852-11.043-3.852-18.012c0-24.201,16.59-38.5,49.774-42.899L785.146,178.342z M812.921,186.592
		c-6.97,2.936-14.023,4.859-21.176,5.775c-7.149,0.919-14.3,1.648-21.449,2.199c-12.648,0.92-22.508,3.76-29.562,8.523
		c-7.062,4.771-10.588,12.012-10.588,21.727c0,4.398,0.866,8.207,2.61,11.412c1.74,3.209,4.03,5.869,6.875,7.976
		c2.841,2.108,6.143,3.67,9.9,4.675c3.755,1.01,7.562,1.514,11.412,1.514c6.601,0,13.016-0.826,19.25-2.476
		c6.229-1.649,11.776-4.168,16.638-7.562c4.854-3.393,8.753-7.701,11.688-12.926c2.932-5.227,4.399-11.412,4.399-18.562v-22.275
		H812.921z"/>
	<path fill="#323232" d="M875.071,261.393v-198h16.5v198H875.071z"/>
	<path fill="#323232" d="M936.117,261.393v-198h16.5v198H936.117z"/>
	<path display="none" fill="#FFFFFF" d="M1051.338,265.241c-9.17-0.185-17.736-1.834-25.713-4.949
		c-7.975-3.115-14.944-7.791-20.899-14.024c-5.96-6.229-10.683-14.023-14.163-23.375c-3.482-9.352-5.225-20.256-5.225-32.727
		c0-10.449,1.375-20.212,4.125-29.287c2.75-9.074,6.875-17.002,12.375-23.787c5.5-6.781,12.375-12.143,20.625-16.088
		c8.25-3.94,17.875-5.912,28.875-5.912c11.182,0,20.899,1.972,29.149,5.912c8.25,3.945,15.125,9.26,20.625,15.95
		c5.5,6.694,9.578,14.622,12.237,23.788c2.654,9.169,3.986,18.975,3.986,29.424c0,11.37-1.56,21.635-4.675,30.801
		c-3.12,9.17-7.562,17.051-13.338,23.649c-5.775,6.601-12.744,11.688-20.9,15.263
		C1070.266,263.454,1061.237,265.241,1051.338,265.241z M1099.737,190.166c0-8.43-0.919-16.314-2.75-23.648
		c-1.834-7.332-4.675-13.703-8.524-19.113c-3.851-5.404-8.8-9.668-14.851-12.786c-6.05-3.115-13.477-4.675-22.274-4.675
		c-8.62,0-15.997,1.697-22.138,5.088c-6.146,3.395-11.14,7.885-14.987,13.475c-3.851,5.596-6.694,12.012-8.525,19.25
		c-1.835,7.244-2.75,14.713-2.75,22.412c0,8.801,1.055,16.913,3.163,24.338c2.105,7.428,5.18,13.797,9.212,19.113
		c4.03,5.318,9.075,9.443,15.125,12.374c6.052,2.937,13.018,4.399,20.9,4.399c8.615,0,15.993-1.692,22.139-5.088
		c6.141-3.391,11.138-7.929,14.986-13.613c3.852-5.68,6.69-12.1,8.524-19.25C1098.818,205.291,1099.737,197.867,1099.737,190.166z"
		/>
	<path fill="#323232" d="M1051.338,265.241c-9.17-0.185-17.736-1.834-25.713-4.949c-7.975-3.115-14.944-7.791-20.899-14.024
		c-5.96-6.229-10.683-14.023-14.163-23.375c-3.482-9.352-5.225-20.256-5.225-32.727c0-10.449,1.375-20.212,4.125-29.287
		c2.75-9.074,6.875-17.002,12.375-23.787c5.5-6.781,12.375-12.143,20.625-16.088c8.25-3.94,17.875-5.912,28.875-5.912
		c11.182,0,20.899,1.972,29.149,5.912c8.25,3.945,15.125,9.26,20.625,15.95c5.5,6.694,9.578,14.622,12.237,23.788
		c2.654,9.169,3.986,18.975,3.986,29.424c0,11.37-1.56,21.635-4.675,30.801c-3.12,9.17-7.562,17.051-13.338,23.649
		c-5.775,6.601-12.744,11.688-20.9,15.263C1070.266,263.454,1061.237,265.241,1051.338,265.241z M1099.737,190.166
		c0-8.43-0.919-16.314-2.75-23.648c-1.834-7.332-4.675-13.703-8.524-19.113c-3.851-5.404-8.8-9.668-14.851-12.786
		c-6.05-3.115-13.477-4.675-22.274-4.675c-8.62,0-15.997,1.697-22.138,5.088c-6.146,3.395-11.14,7.885-14.987,13.475
		c-3.851,5.596-6.694,12.012-8.525,19.25c-1.835,7.244-2.75,14.713-2.75,22.412c0,8.801,1.055,16.913,3.163,24.338
		c2.105,7.428,5.18,13.797,9.212,19.113c4.03,5.318,9.075,9.443,15.125,12.374c6.052,2.937,13.018,4.399,20.9,4.399
		c8.615,0,15.993-1.692,22.139-5.088c6.141-3.391,11.138-7.929,14.986-13.613c3.852-5.68,6.69-12.1,8.524-19.25
		C1098.818,205.291,1099.737,197.867,1099.737,190.166z"/>
	<path fill="#323232" d="M1197.637,261.941c-2.02,0.365-4.675,1.006-7.975,1.925c-3.3,0.916-6.97,1.375-11,1.375
		c-8.25,0-14.532-2.062-18.838-6.188c-4.312-4.125-6.462-11.502-6.462-22.137V79.342h16.5v150.975c0,3.484,0.09,6.512,0.272,9.076
		c0.182,2.568,0.73,4.674,1.65,6.324c0.915,1.649,2.338,2.846,4.263,3.575c1.925,0.733,4.628,1.101,8.112,1.101
		c2.199,0,4.441-0.182,6.736-0.551c2.291-0.365,4.537-0.824,6.736-1.375v13.475H1197.637L1197.637,261.941z"/>
</g>
<text transform="matrix(1 0 0 1 5.3125 108.5)" display="none" fill="#323232" enable-background="new    " font-family="'Helvetica-Light'" font-size="150">beta</text>
<polygon fill="#ED1C24" points="933.367,165.2 1051.983,236.459 1359.145,53.225 1317.983,29.324 1052.868,204.15 971.873,142.628 
	"/>
<g enable-background="new    ">
	<path fill="#6E6E6E" d="M16.774,23.737c4.2-0.699,9.701-1.3,16.701-1.3c8.601,0,14.901,2,18.901,5.601
		c3.7,3.2,5.9,8.101,5.9,14.101c0,6.101-1.8,10.9-5.2,14.401c-4.601,4.9-12.101,7.4-20.602,7.4c-2.6,0-5-0.101-7-0.601v27.002h-8.7
		V23.737z M25.475,56.239c1.9,0.501,4.3,0.7,7.201,0.7c10.5,0,16.901-5.1,16.901-14.4c0-8.9-6.3-13.201-15.901-13.201
		c-3.8,0-6.7,0.3-8.201,0.7V56.239z"/>
	<path fill="#6E6E6E" d="M110.977,65.74c0,17.901-12.401,25.701-24.102,25.701c-13.101,0-23.201-9.601-23.201-24.901
		c0-16.2,10.601-25.701,24.001-25.701C101.577,40.839,110.977,50.939,110.977,65.74z M72.575,66.24
		c0,10.601,6.101,18.602,14.701,18.602c8.4,0,14.701-7.9,14.701-18.802c0-8.2-4.1-18.601-14.501-18.601
		C77.075,47.439,72.575,57.04,72.575,66.24z"/>
	<path fill="#6E6E6E" d="M124.876,41.938l6.4,24.602c1.4,5.4,2.7,10.401,3.6,15.401h0.3c1.1-4.9,2.7-10.101,4.3-15.301l7.901-24.702
		h7.4l7.5,24.202c1.8,5.8,3.2,10.9,4.3,15.801h0.3c0.8-4.9,2.1-10.001,3.7-15.701l6.9-24.302h8.701l-15.601,48.403h-8l-7.4-23.102
		c-1.7-5.4-3.1-10.2-4.3-15.9h-0.2c-1.2,5.8-2.7,10.8-4.4,16.001l-7.801,23.001h-8l-14.601-48.403H124.876z"/>
	<path fill="#6E6E6E" d="M198.876,67.74c0.199,11.901,7.8,16.801,16.601,16.801c6.301,0,10.101-1.1,13.4-2.5l1.501,6.301
		c-3.101,1.4-8.401,3-16.102,3c-14.9,0-23.802-9.801-23.802-24.401s8.601-26.102,22.702-26.102c15.801,0,20.001,13.9,20.001,22.802
		c0,1.8-0.2,3.2-0.3,4.1H198.876z M224.677,61.44c0.101-5.601-2.3-14.302-12.2-14.302c-8.9,0-12.801,8.201-13.501,14.302H224.677z"
		/>
	<path fill="#6E6E6E" d="M244.074,57.04c0-5.7-0.101-10.601-0.4-15.102h7.7l0.301,9.501h0.399c2.2-6.5,7.501-10.601,13.401-10.601
		c1,0,1.7,0.1,2.5,0.3v8.301c-0.9-0.2-1.801-0.3-3-0.3c-6.201,0-10.601,4.7-11.801,11.301c-0.2,1.199-0.4,2.6-0.4,4.1v25.802h-8.7
		V57.04z"/>
	<path fill="#6E6E6E" d="M280.675,67.74c0.199,11.901,7.8,16.801,16.601,16.801c6.301,0,10.101-1.1,13.4-2.5l1.501,6.301
		c-3.101,1.4-8.401,3-16.102,3c-14.9,0-23.802-9.801-23.802-24.401s8.601-26.102,22.702-26.102c15.801,0,20.001,13.9,20.001,22.802
		c0,1.8-0.2,3.2-0.3,4.1H280.675z M306.476,61.44c0.101-5.601-2.3-14.302-12.2-14.302c-8.9,0-12.801,8.201-13.501,14.302H306.476z"
		/>
	<path fill="#6E6E6E" d="M367.676,19.338v58.503c0,4.301,0.101,9.201,0.4,12.501h-7.9l-0.4-8.4h-0.199
		c-2.7,5.4-8.601,9.5-16.501,9.5c-11.701,0-20.702-9.9-20.702-24.601c-0.1-16.102,9.901-26.002,21.702-26.002
		c7.4,0,12.4,3.5,14.601,7.4h0.2V19.338H367.676z M358.876,61.64c0-1.1-0.101-2.6-0.4-3.7c-1.3-5.6-6.101-10.2-12.7-10.2
		c-9.101,0-14.501,8-14.501,18.701c0,9.801,4.8,17.901,14.301,17.901c5.9,0,11.301-3.9,12.9-10.501c0.3-1.2,0.4-2.4,0.4-3.8V61.64z"
		/>
	<path fill="#6E6E6E" d="M403.772,23.838c3.8-0.8,9.801-1.4,15.9-1.4c8.701,0,14.302,1.5,18.502,4.9c3.5,2.601,5.6,6.601,5.6,11.9
		c0,6.501-4.3,12.201-11.4,14.802v0.199c6.4,1.601,13.901,6.9,13.901,16.901c0,5.801-2.301,10.2-5.701,13.501
		c-4.7,4.3-12.301,6.3-23.301,6.3c-6.001,0-10.601-0.399-13.501-0.8V23.838z M412.473,51.439h7.9
		c9.201,0,14.602-4.801,14.602-11.301c0-7.9-6.001-11.001-14.801-11.001c-4.001,0-6.301,0.301-7.701,0.601V51.439z M412.473,83.741
		c1.7,0.3,4.2,0.4,7.301,0.4c9,0,17.301-3.301,17.301-13.101c0-9.201-7.9-13.001-17.401-13.001h-7.2V83.741z"/>
	<path fill="#6E6E6E" d="M461.271,41.938l10.601,28.603c1.1,3.2,2.3,7,3.1,9.9h0.2c0.9-2.9,1.9-6.601,3.101-10.101l9.601-28.402
		h9.301l-13.201,34.503c-6.301,16.601-10.601,25.102-16.602,30.302c-4.3,3.8-8.6,5.3-10.8,5.7l-2.2-7.4c2.2-0.7,5.1-2.101,7.7-4.301
		c2.4-1.899,5.4-5.3,7.4-9.801c0.4-0.899,0.7-1.6,0.7-2.1s-0.2-1.2-0.601-2.3l-17.9-44.604H461.271z"/>
</g>
</svg>
