<?xml version="1.0" encoding="utf-8"?>
<!-- Generator: Adobe Illustrator 16.0.4, SVG Export Plug-In . SVG Version: 6.00 Build 0)  -->
<!DOCTYPE svg PUBLIC "-//W3C//DTD SVG 1.1//EN" "http://www.w3.org/Graphics/SVG/1.1/DTD/svg11.dtd">
<svg version="1.1" id="Layer_1" xmlns="http://www.w3.org/2000/svg" xmlns:xlink="http://www.w3.org/1999/xlink" x="0px" y="0px"
	 width="64.751px" height="48.56px" viewBox="35.706 41.071 64.751 48.56" enable-background="new 35.706 41.071 64.751 48.56"
	 xml:space="preserve">
<g id="Layer_3">
	<path fill="#323232" d="M84.27,87.609v2.021H51.894v-2.021c0-2.237,1.812-4.047,4.047-4.047h8.094V45.117H51.894
		c0,1.269-0.597,2.387-1.514,3.13l7.047,15.502h-2.223l-6.663-14.657c-0.225,0.04-0.456,0.071-0.695,0.071
		c-0.239,0-0.47-0.031-0.695-0.071L40.489,63.75h-2.223l7.047-15.502c-0.917-0.743-1.514-1.862-1.514-3.13
		c0-2.237,1.812-4.047,4.047-4.047h40.468c2.233,0,4.047,1.81,4.047,4.047c0,1.269-0.596,2.387-1.514,3.13l7.047,15.502h-2.223
		L89.01,49.093c-0.225,0.04-0.457,0.071-0.695,0.071c-0.236,0-0.471-0.031-0.693-0.071L80.957,63.75h-2.223l7.048-15.502
		c-0.917-0.743-1.515-1.862-1.515-3.13H72.127v38.444h8.096C82.456,83.562,84.27,85.372,84.27,87.609z"/>
	<path fill="#3B97D3" d="M59.987,65.352h-1.832h-2.223H39.761h-2.223h-1.832c0,6.703,5.436,10.117,12.141,10.117
		C54.552,75.469,59.987,72.055,59.987,65.352z"/>
	<path fill="#3B97D3" d="M96.4,65.352H80.229h-2.223h-1.832c0,6.703,5.436,10.117,12.141,10.117s12.143-3.414,12.143-10.117h-1.832
		H96.4z"/>
</g>
</svg>
