<?xml version="1.0" encoding="utf-8"?>
<!-- Generator: Adobe Illustrator 16.0.4, SVG Export Plug-In . SVG Version: 6.00 Build 0)  -->
<!DOCTYPE svg PUBLIC "-//W3C//DTD SVG 1.1//EN" "http://www.w3.org/Graphics/SVG/1.1/DTD/svg11.dtd">
<svg version="1.1" id="Layer_1" xmlns="http://www.w3.org/2000/svg" xmlns:xlink="http://www.w3.org/1999/xlink" x="0px" y="0px"
	 width="136px" height="136px" viewBox="0 0 136 136" enable-background="new 0 0 136 136" xml:space="preserve">
<g id="Layer_1_1_" display="none">
	<path display="inline" fill="#ED1C24" d="M69.594,67.808c-0.246,0.102-0.505,0.153-0.767,0.153H58.795
		c-1.108,0-2.006-0.897-2.006-2.006s0.898-2.006,2.006-2.006h9.2l9.442-9.442c0.783-0.784,2.055-0.784,2.838,0
		c0.783,0.784,0.783,2.053,0,2.837l-10.031,10.03C70.061,67.558,69.841,67.706,69.594,67.808z"/>
	<circle display="inline" fill="#595959" cx="68.081" cy="65.414" r="34.976"/>
	<path display="inline" fill="none" stroke="#323232" stroke-width="4" stroke-miterlimit="10" d="M68.081,35.125
		c-16.73,0-30.289,13.565-30.289,30.289c0,16.729,13.559,30.288,30.289,30.288c16.729,0,30.289-13.56,30.289-30.288
		C98.37,48.691,84.811,35.125,68.081,35.125z"/>
</g>
<g id="Layer_2" display="none">
	<path display="inline" fill="none" stroke="#323232" stroke-width="6" stroke-miterlimit="10" d="M93.236,42.355H42.926
		c-2.315,0-4.193,1.875-4.193,4.193v37.733c0,2.314,1.878,4.191,4.193,4.191h50.311c2.315,0,4.191-1.877,4.191-4.191V46.548
		C97.43,44.23,95.553,42.355,93.236,42.355z"/>
	<rect x="42.925" y="46.548" display="inline" fill="#595959" width="50.312" height="37.733"/>
	<polygon display="inline" fill="#FBAD18" points="89.044,80.088 47.118,80.088 47.118,71.703 55.503,59.125 63.888,75.896 
		72.273,63.318 80.658,67.511 89.044,50.741 	"/>
</g>
<g id="Layer_3">
	<path fill="#323232" d="M84.27,87.609v2.022H51.894v-2.022c0-2.237,1.812-4.047,4.047-4.047h8.094V45.117H51.894
		c0,1.269-0.597,2.387-1.514,3.13l7.047,15.502h-2.223l-6.663-14.657c-0.225,0.04-0.456,0.071-0.695,0.071
		c-0.239,0-0.47-0.031-0.695-0.071L40.489,63.75h-2.223l7.047-15.502c-0.917-0.743-1.514-1.862-1.514-3.13
		c0-2.237,1.812-4.047,4.047-4.047h40.468c2.234,0,4.047,1.81,4.047,4.047c0,1.269-0.596,2.387-1.514,3.13l7.047,15.502h-2.222
		L89.01,49.093c-0.225,0.04-0.457,0.071-0.695,0.071c-0.237,0-0.471-0.031-0.694-0.071L80.957,63.75h-2.223l7.048-15.502
		c-0.917-0.743-1.515-1.862-1.515-3.13h-12.14v38.444h8.095C82.456,83.562,84.27,85.372,84.27,87.609z"/>
	<path fill="#3B97D3" d="M59.987,65.352h-1.832h-2.223H39.761h-2.223h-1.832c0,6.703,5.436,10.117,12.141,10.117
		C54.552,75.469,59.987,72.055,59.987,65.352z"/>
	<path fill="#3B97D3" d="M96.4,65.352H80.229h-2.223h-1.832c0,6.703,5.436,10.117,12.141,10.117s12.142-3.414,12.142-10.117h-1.832
		H96.4z"/>
</g>
</svg>
