<?xml version="1.0" encoding="utf-8"?>
<!-- Generator: Adobe Illustrator 16.0.4, SVG Export Plug-In . SVG Version: 6.00 Build 0)  -->
<!DOCTYPE svg PUBLIC "-//W3C//DTD SVG 1.1//EN" "http://www.w3.org/Graphics/SVG/1.1/DTD/svg11.dtd">
<svg version="1.1" id="Layer_1" xmlns="http://www.w3.org/2000/svg" xmlns:xlink="http://www.w3.org/1999/xlink" x="0px" y="0px"
	 width="612.981px" height="141.79px" viewBox="2 -49 612.981 141.79" enable-background="new 2 -49 612.981 141.79"
	 xml:space="preserve">
<path display="none" fill="#4FBA6F" d="M18.27,37.051l-11.899,6.07l19.215,8.792l12.967-5.691L18.27,37.051z"/>
<g>
	<polygon fill="#2ECC71" points="2,21.895 2,75.297 40.789,92.687 40.789,92.79 40.907,92.739 41.023,92.79 41.023,92.687 
		79.81,75.297 79.81,21.895 40.907,39.335 	"/>
	<polygon fill="#2ECC71" points="41.029,-48.895 41.029,-49 40.911,-48.948 40.793,-49 40.793,-48.895 2.004,-31.508 2.004,21.895 
		9.174,18.682 26.497,26.494 26.502,26.491 40.48,32.794 65.119,21.75 51.099,15.465 51.135,15.448 33.763,7.66 40.911,4.455 
		79.813,21.895 79.813,-31.508 	"/>
</g>
<path fill="#323232" d="M99.357-29.659v73.724c0,3.288,0.632,6.168,1.912,8.64c1.276,2.467,2.907,4.518,4.898,6.166
	c1.996,1.647,4.266,2.849,6.819,3.62c2.549,0.773,5.053,1.158,7.502,1.158c2.756,0,5.488-0.407,8.197-1.23
	c2.705-0.825,5.127-2.06,7.277-3.704c2.145-1.642,3.878-3.673,5.209-6.091c1.323-2.415,1.989-5.268,1.989-8.561v-73.723h12.335
	V42.21c0,5.351-1.027,10.055-3.081,14.117c-2.059,4.064-4.761,7.48-8.1,10.254c-3.342,2.778-7.097,4.859-11.259,6.244
	c-4.161,1.393-8.356,2.083-12.568,2.083c-3.911,0-7.867-0.69-11.88-2.083c-4.008-1.39-7.608-3.472-10.795-6.244
	c-3.188-2.774-5.784-6.19-7.786-10.254c-2.009-4.062-3.011-8.766-3.011-14.117v-71.869H99.357z"/>
<path fill="#323232" d="M173.079,49.002c0,2.441,0.457,4.633,1.382,6.562c0.917,1.937,2.174,3.539,3.761,4.814
	c1.587,1.276,3.401,2.27,5.451,2.979c2.046,0.712,4.202,1.065,6.452,1.065c1.838,0,3.835-0.226,5.986-0.689
	c2.149-0.459,4.148-1.179,5.991-2.159c1.841-0.968,3.377-2.229,4.606-3.768c1.232-1.544,1.847-3.438,1.847-5.696
	c0-1.638-0.49-3.208-1.464-4.69c-0.98-1.488-2.29-2.845-3.933-4.077c-1.648-1.234-3.546-2.389-5.708-3.465
	c-2.159-1.08-4.418-2.079-6.788-3.002c-3.188-1.235-6.349-2.537-9.485-3.927c-3.134-1.38-5.936-2.972-8.404-4.772
	c-2.468-1.792-4.473-3.872-6.013-6.23c-1.541-2.359-2.314-5.183-2.314-8.465c0-3.692,0.716-6.77,2.157-9.232
	c1.437-2.465,3.343-4.439,5.706-5.927c2.368-1.485,5.092-2.563,8.175-3.232c3.086-0.665,6.271-1,9.562-1
	c3.907,0,7.504,0.44,10.799,1.312c3.287,0.876,6.141,2.187,8.562,3.933c2.412,1.75,4.289,3.933,5.626,6.555
	c1.337,2.623,2.003,5.733,2.003,9.332l-10.948-0.154c0-2.056-0.438-3.804-1.31-5.243c-0.875-1.438-2.061-2.624-3.55-3.548
	c-1.489-0.925-3.217-1.62-5.166-2.082c-1.955-0.465-3.96-0.694-6.016-0.694c-4.315,0-7.843,1.03-10.565,3.084
	c-2.724,2.058-4.086,4.317-4.086,6.788c0,1.851,0.516,3.469,1.544,4.858c1.034,1.389,2.37,2.623,4.025,3.7
	c1.651,1.079,3.531,2.059,5.645,2.931c2.115,0.875,4.312,1.827,6.584,2.852c2.987,1.339,6.028,2.651,9.128,3.935
	c3.095,1.289,5.932,2.777,8.516,4.473c2.579,1.695,4.666,3.727,6.265,6.09c1.599,2.375,2.399,5.301,2.399,8.796
	c0,4.113-0.802,7.61-2.398,10.482c-1.595,2.887-3.736,5.249-6.417,7.099c-2.676,1.854-5.799,3.189-9.355,4.012
	c-3.557,0.82-7.293,1.234-11.212,1.234c-3.814,0-7.421-0.519-10.825-1.544c-3.401-1.026-6.366-2.596-8.896-4.704
	c-2.526-2.107-4.538-4.704-6.032-7.79c-1.488-3.083-2.237-6.682-2.237-10.797h10.95V49.002z"/>
<path fill="#323232" d="M286.9,48.539c-1.029,3.601-2.469,6.94-4.32,10.024c-1.85,3.085-4.086,5.761-6.707,8.019
	c-2.625,2.263-5.632,4.041-9.025,5.323c-3.392,1.282-7.091,1.924-11.103,1.924c-5.352,0-10.076-1.106-14.189-3.314
	c-4.111-2.21-7.556-5.14-10.334-8.796c-2.779-3.649-4.884-7.84-6.325-12.567c-1.44-4.729-2.156-9.666-2.156-14.807
	c0-5.143,0.716-10.126,2.156-14.961c1.441-4.831,3.546-9.101,6.325-12.803c2.778-3.7,6.222-6.681,10.334-8.943
	c4.113-2.262,8.84-3.394,14.189-3.394c5.344,0,10.076,1.131,14.188,3.394c4.113,2.263,7.561,5.243,10.334,8.943
	c2.776,3.703,4.881,7.975,6.323,12.803c1.439,4.834,2.161,9.818,2.161,14.961v2.003H233.69c0.206,3.89,0.875,7.542,2.004,10.971
	c1.129,3.422,2.647,6.389,4.554,8.899c1.899,2.505,4.16,4.498,6.783,5.984c2.624,1.482,5.528,2.223,8.716,2.223
	c4.624,0,8.687-1.454,12.185-4.351c3.494-2.902,6.116-6.748,7.862-11.536H286.9L286.9,48.539z M277.027,26.945
	c-0.614-3.248-1.541-6.292-2.774-9.135c-1.233-2.841-2.753-5.304-4.554-7.384c-1.799-2.081-3.881-3.729-6.246-4.949
	c-2.365-1.215-4.936-1.828-7.709-1.828s-5.349,0.611-7.71,1.828c-2.369,1.22-4.477,2.867-6.325,4.949
	c-1.85,2.08-3.421,4.542-4.706,7.384c-1.284,2.841-2.184,5.886-2.701,9.135H277.027z"/>
<path fill="#323232" d="M294.146-4.21h10.952v9.562h0.311c1.952-3.494,4.343-6.193,7.171-8.097c2.829-1.902,6.402-2.856,10.72-2.856
	c2.054,0,3.956,0.464,5.703,1.391V6.74c-1.435-0.411-2.52-0.668-3.237-0.771c-0.719-0.102-1.488-0.155-2.312-0.155
	c-2.673,0-5.141,0.463-7.402,1.387c-2.267,0.927-4.195,2.187-5.785,3.78c-1.595,1.597-2.854,3.447-3.781,5.553
	c-0.924,2.108-1.389,4.346-1.389,6.708v49.202h-10.949V-4.21L294.146-4.21z"/>
<path fill="#2ECC71" d="M333.824-29.659h37.482c3.184,0,6.27,0.722,9.251,2.159c2.989,1.441,5.604,3.317,7.869,5.629
	c2.259,2.314,4.061,4.936,5.393,7.866c1.338,2.931,2.009,5.888,2.009,8.87c0,2.467-0.23,4.883-0.692,7.248
	c-0.462,2.367-1.209,4.604-2.237,6.709c-1.026,2.109-2.286,3.96-3.773,5.554c-1.493,1.593-3.271,2.852-5.323,3.777
	c2.882,0.721,5.349,1.955,7.399,3.704c2.055,1.749,3.784,3.777,5.168,6.09c1.395,2.316,2.418,4.834,3.085,7.559
	c0.672,2.726,1.005,5.425,1.005,8.097c0,3.291-0.693,6.657-2.082,10.104c-1.393,3.446-3.266,6.551-5.625,9.329
	c-2.371,2.779-5.122,5.038-8.255,6.788c-3.137,1.748-6.452,2.62-9.945,2.62h-40.727L333.824-29.659L333.824-29.659L333.824-29.659z
	 M346.161,13.527h22.732c1.944,0,3.84-0.541,5.688-1.619c1.838-1.081,3.454-2.442,4.832-4.088c1.385-1.644,2.485-3.471,3.301-5.474
	c0.824-2.005,1.231-3.933,1.231-5.785c0-1.543-0.308-3.211-0.923-5.012c-0.613-1.798-1.56-3.443-2.843-4.935
	c-1.279-1.489-2.865-2.749-4.756-3.779c-1.894-1.026-4.066-1.543-6.529-1.543h-22.73L346.161,13.527L346.161,13.527z
	 M346.161,61.491h23.973c2.157,0,4.304-0.507,6.459-1.543c2.149-1.024,4.066-2.39,5.757-4.086c1.691-1.691,3.071-3.645,4.151-5.864
	c1.07-2.212,1.611-4.499,1.611-6.863c0-2.161-0.414-4.392-1.231-6.706c-0.817-2.315-1.998-4.399-3.53-6.249
	c-1.533-1.849-3.399-3.365-5.608-4.547c-2.203-1.179-4.687-1.775-7.458-1.775h-24.126L346.161,61.491L346.161,61.491z"/>
<path fill="#2ECC71" d="M407.237,18.462c0-3.702,0.844-7.042,2.545-10.026c1.693-2.981,3.905-5.527,6.63-7.634
	c2.724-2.105,5.757-3.702,9.097-4.78c3.336-1.081,6.714-1.623,10.099-1.623c3.602,0,7.124,0.518,10.566,1.544
	c3.44,1.028,6.5,2.571,9.183,4.626c2.666,2.058,4.829,4.577,6.476,7.559c1.646,2.984,2.468,6.429,2.468,10.334v39.484
	c0,1.231,0.462,2.445,1.389,3.623c0.929,1.185,2.014,1.776,3.245,1.776c0.715,0,1.388-0.155,2-0.46
	c0.624-0.311,1.341-0.669,2.165-1.083v10.49c-1.339,0.408-2.624,0.772-3.86,1.074c-1.231,0.312-2.882,0.465-4.934,0.465
	c-6.586,0-9.873-4.164-9.873-12.491c-3.497,4.317-7.732,7.479-12.723,9.483c-4.99,2.005-9.948,3.008-14.885,3.008
	c-2.983,0-5.809-0.54-8.483-1.616c-2.667-1.083-5.063-2.596-7.171-4.554c-2.108-1.953-3.771-4.189-5.004-6.709
	c-1.235-2.516-1.86-5.265-1.86-8.247c0-4.732,1.206-8.611,3.632-11.649c2.415-3.032,5.45-5.552,9.097-7.557
	c3.645-2.005,7.58-3.599,11.804-4.778c4.21-1.18,8.143-2.264,11.798-3.243c3.645-0.975,6.68-1.977,9.095-3.006
	c2.411-1.027,3.628-2.365,3.628-4.011c0-1.953-0.359-3.857-1.079-5.708c-0.722-1.851-1.8-3.469-3.236-4.857
	c-1.445-1.389-3.274-2.491-5.482-3.316c-2.209-0.821-4.863-1.233-7.938-1.233c-2.27,0-4.45,0.385-6.563,1.158
	c-2.106,0.77-3.954,1.825-5.547,3.161c-1.595,1.338-2.882,2.932-3.859,4.781c-0.979,1.85-1.466,3.857-1.466,6.016H407.237z
	 M453.357,30.644c-2.784,1.237-6.304,2.392-10.566,3.472c-4.264,1.08-8.403,2.367-12.416,3.855
	c-4.018,1.496-7.464,3.371-10.329,5.631c-2.885,2.262-4.325,5.192-4.325,8.792c0,3.905,1.44,6.94,4.325,9.096
	c2.874,2.159,6.263,3.241,10.175,3.241c2.055,0,4.267-0.311,6.631-0.924c2.364-0.624,4.622-1.547,6.783-2.78
	c2.163-1.233,4.096-2.78,5.788-4.628c1.689-1.854,3.009-4.011,3.931-6.48V30.644H453.357z"/>
<path fill="#2ECC71" d="M487.6-29.659V72.443h-10.958V-29.659H487.6z"/>
<path fill="#2ECC71" d="M507.638-29.659V72.443h-10.951V-29.659H507.638z"/>
<path fill="#2ECC71" d="M546.352,73.832c-5.348,0-10.074-1.107-14.186-3.314c-4.119-2.212-7.56-5.138-10.336-8.796
	c-2.776-3.643-4.88-7.836-6.327-12.565c-1.435-4.73-2.162-9.667-2.162-14.806c0-5.139,0.72-10.126,2.162-14.961
	c1.442-4.831,3.551-9.101,6.327-12.801c2.78-3.701,6.223-6.683,10.336-8.947c4.111-2.26,8.839-3.392,14.186-3.392
	s10.071,1.133,14.186,3.392c4.112,2.264,7.558,5.246,10.327,8.947c2.782,3.7,4.885,7.972,6.333,12.801
	c1.429,4.834,2.158,9.822,2.158,14.961c0,5.137-0.722,10.074-2.158,14.806c-1.446,4.732-3.551,8.921-6.333,12.565
	c-2.777,3.651-6.217,6.583-10.327,8.796C556.434,72.725,551.7,73.832,546.352,73.832z M546.352,64.423
	c3.291,0,6.295-0.791,9.023-2.377c2.721-1.589,5.033-3.763,6.94-6.524c1.901-2.76,3.397-5.958,4.475-9.59
	c1.074-3.635,1.614-7.493,1.614-11.584c0-4.095-0.54-7.973-1.614-11.662c-1.077-3.684-2.573-6.929-4.475-9.744
	c-1.907-2.814-4.217-5.065-6.94-6.751c-2.729-1.687-5.733-2.533-9.023-2.533c-3.293,0-6.299,0.848-9.021,2.533
	c-2.729,1.686-5.039,3.939-6.945,6.75c-1.908,2.817-3.399,6.062-4.472,9.745c-1.077,3.682-1.618,7.567-1.618,11.662
	c0,4.091,0.541,7.957,1.618,11.584c1.072,3.632,2.563,6.83,4.472,9.59c1.906,2.761,4.212,4.935,6.945,6.524
	C540.053,63.632,543.06,64.423,546.352,64.423z"/>
<path fill="#2ECC71" d="M601.106-25.34v21.13h12.177v9.407h-12.177v50.746c0,3.185,0.976,5.419,2.928,6.709
	c1.953,1.284,4.265,1.926,6.938,1.926c0.516,0,1.08-0.023,1.697-0.077c0.614-0.049,1.394-0.335,2.312-0.851v8.947
	c-1.338,0.311-2.833,0.59-4.472,0.851c-1.646,0.255-3.397,0.381-5.251,0.381c-2.05,0-3.986-0.255-5.778-0.771
	c-1.804-0.516-3.401-1.332-4.782-2.467c-1.388-1.132-2.493-2.624-3.319-4.475c-0.813-1.853-1.229-4.109-1.229-6.786V5.193h-11.101
	v-9.406h11.101V-25.34H601.106z"/>
</svg>
