<?xml version="1.0" encoding="utf-8"?>
<!-- Generator: Adobe Illustrator 16.0.4, SVG Export Plug-In . SVG Version: 6.00 Build 0)  -->
<!DOCTYPE svg PUBLIC "-//W3C//DTD SVG 1.1//EN" "http://www.w3.org/Graphics/SVG/1.1/DTD/svg11.dtd">
<svg version="1.1" id="Layer_1" xmlns="http://www.w3.org/2000/svg" xmlns:xlink="http://www.w3.org/1999/xlink" x="0px" y="0px"
	 width="223.879px" height="247.331px" viewBox="0 0 223.879 247.331" enable-background="new 0 0 223.879 247.331"
	 xml:space="preserve">
<linearGradient id="SVGID_1_" gradientUnits="userSpaceOnUse" x1="111.9399" y1="0" x2="111.9399" y2="247.3311">
	<stop  offset="0" style="stop-color:#2484C6"/>
	<stop  offset="1" style="stop-color:#232162"/>
</linearGradient>
<path fill="url(#SVGID_1_)" d="M137.276,26.331V17c0-9.374-7.626-17-17-17h-16.671c-9.374,0-17,7.626-17,17v9.331
	c-16.525,3.824-31.636,11.323-44.459,21.565l-1.306-1.306c-2.515-2.515-6.594-2.516-9.108,0l-7.319,7.319
	c-2.515,2.515-2.515,6.593,0,9.108l1.173,1.173C9.611,83.541,0,108.339,0,135.391c0,61.823,50.117,111.94,111.94,111.94
	c61.822,0,111.939-50.117,111.939-111.94C223.879,82.282,186.894,37.812,137.276,26.331z M127.276,24.501
	c-5.015-0.687-10.133-1.05-15.336-1.05s-10.321,0.363-15.335,1.05V17c0-3.86,3.14-7,7-7h16.671c3.859,0,7,3.14,7,7V24.501z"/>
<g>
	<path fill="#FFFFFF" d="M65.465,85.38L46.955,66.87l-3.535,3.535L61.93,88.916C63.065,87.694,64.244,86.516,65.465,85.38z"/>
	<path fill="#FFFFFF" d="M161.95,88.916l18.511-18.511l-3.535-3.535l-18.511,18.511C159.635,86.516,160.815,87.695,161.95,88.916z"
		/>
	<path fill="#FFFFFF" d="M43.655,135.391c0-0.838,0.033-1.669,0.063-2.5H17.536v5h26.182
		C43.688,137.06,43.655,136.229,43.655,135.391z"/>
	<path fill="#FFFFFF" d="M111.94,67.106c0.839,0,1.669,0.033,2.5,0.063V40.987h-5v26.183
		C110.271,67.139,111.101,67.106,111.94,67.106z"/>
	<path fill="#FFFFFF" d="M61.93,181.866l-18.511,18.511l3.535,3.535L65.465,185.4C64.244,184.265,63.065,183.086,61.93,181.866z"/>
	<path fill="#FFFFFF" d="M180.161,132.891c0.03,0.831,0.063,1.662,0.063,2.5s-0.033,1.669-0.063,2.5h26.183v-5H180.161z"/>
	<path fill="#FFFFFF" d="M111.94,203.675c-0.839,0-1.669-0.033-2.5-0.063v26.183h5v-26.183
		C113.609,203.642,112.779,203.675,111.94,203.675z"/>
	<path fill="#FFFFFF" d="M158.415,185.4l18.512,18.512l3.535-3.535l-18.512-18.512C160.815,183.086,159.635,184.265,158.415,185.4z"
		/>
</g>
<polygon fill="#BE1E2D" points="117.477,135.391 111.94,73.222 106.403,135.391 111.94,129.854 "/>
</svg>
